<?xml version="1.0" encoding="UTF-8"?> <svg xmlns="http://www.w3.org/2000/svg" width="93" height="94" viewBox="0 0 93 94" fill="none"><path d="M52.0015 35.6416V18.4464C52.0015 14.9552 49.1543 12.125 45.6421 12.125H17.9844C14.4722 12.125 11.625 14.9552 11.625 18.4464V75.5536C11.625 79.0448 14.4722 81.875 17.9844 81.875H38.3667M33.3279 75.6877H30.3009M35.3136 18.2112H28.1827M74.8428 44.6968L78.3124 41.2479C78.8308 40.7327 78.8308 39.8975 78.3124 39.3823L76.509 37.5896C76.9137 36.8415 77.245 36.0486 77.4959 35.2205H80.0473C80.7809 35.2205 81.375 34.63 81.375 33.9007V29.0238C81.375 28.2944 80.7809 27.7039 80.0473 27.7039H77.4959C77.245 26.8758 76.9137 26.083 76.509 25.3349L78.3124 23.5422C78.8308 23.027 78.8308 22.1918 78.3124 21.6766L74.8428 18.2277C74.3245 17.7124 73.4843 17.7124 72.966 18.2277L71.1625 20.0203C70.4099 19.618 69.6123 19.2887 68.7792 19.0393V16.5032C68.7792 15.7739 68.1852 15.1834 67.4515 15.1834H62.5453C61.8116 15.1834 61.2175 15.7739 61.2175 16.5032V19.0393C60.3844 19.2887 59.5868 19.618 58.8342 20.0203L57.0308 18.2277M75.0842 57.4338H71.972C71.6643 56.4245 71.2596 55.4576 70.7673 54.5424L72.9684 52.3545C73.6003 51.7264 73.6003 50.7054 72.9684 50.0772L68.7366 45.8707C68.1047 45.2426 67.0776 45.2426 66.4456 45.8707L64.2446 48.0587C63.3263 47.5693 62.3536 47.167 61.3359 46.8612V43.7675C61.3359 42.8782 60.6116 42.1583 59.717 42.1583H53.7339C52.8393 42.1583 52.1151 42.8782 52.1151 43.7675V46.8612C51.0997 47.167 50.127 47.5693 49.2064 48.0587L47.0053 45.8707C46.3734 45.2426 45.3462 45.2426 44.7143 45.8707L40.4826 50.0772C39.8507 50.7054 39.8507 51.7264 40.4826 52.3545L42.6836 54.5424C42.1914 55.4553 41.7866 56.4245 41.479 57.4338H38.3667C37.4721 57.4338 36.7479 58.1537 36.7479 59.043V64.9904C36.7479 65.8797 37.4721 66.5995 38.3667 66.5995H41.479C41.7866 67.6088 42.1914 68.5757 42.6836 69.4909L40.4826 71.6788C39.8507 72.307 39.8507 73.328 40.4826 73.9561L44.7143 78.1626C45.3462 78.7907 46.3734 78.7907 47.0053 78.1626L49.2064 75.9747C50.1246 76.464 51.0974 76.8663 52.1151 77.1721V80.2658C52.1151 81.1551 52.8393 81.875 53.7339 81.875H59.717C60.6116 81.875 61.3359 81.1551 61.3359 80.2658V77.1721C62.3512 76.8663 63.3239 76.464 64.2446 75.9747L66.4456 78.1626C67.0776 78.7907 68.1047 78.7907 68.7366 78.1626L72.9684 73.9561C73.6003 73.328 73.6003 72.307 72.9684 71.6788L70.7673 69.4909C71.2596 68.5781 71.6643 67.6112 71.972 66.5995H75.0842C75.9788 66.5995 76.7031 65.8797 76.7031 64.9904V59.043C76.7031 58.1537 75.9788 57.4338 75.0842 57.4338ZM62.311 62.0167C62.311 58.9512 59.8117 56.4669 56.7278 56.4669C53.644 56.4669 51.1447 58.9512 51.1447 62.0167C51.1447 65.0821 53.644 67.5665 56.7278 67.5665C59.8117 67.5665 62.311 65.0821 62.311 62.0167ZM64.9948 35.6416C67.3166 35.6416 69.2005 33.7713 69.2005 31.4611C69.2005 29.1508 67.319 27.2805 64.9948 27.2805C62.6707 27.2805 60.7891 29.1508 60.7891 31.4611C60.7891 33.7713 62.6707 35.6416 64.9948 35.6416Z" stroke="#7F96FF" stroke-width="3" stroke-linecap="round" stroke-linejoin="round"></path></svg> 