<?xml version="1.0" encoding="UTF-8"?> <svg xmlns="http://www.w3.org/2000/svg" width="93" height="94" viewBox="0 0 93 94" fill="none"><path d="M16.3394 64.793C15.9181 64.0797 14.9983 63.843 14.285 64.2644C13.5717 64.6857 13.3351 65.6055 13.7564 66.3188L16.3394 64.793ZM64.0426 78.1569L63.2762 76.8675L64.0426 78.1569ZM81.7891 37.5994C81.5744 36.7993 80.7517 36.3248 79.9515 36.5395C79.1514 36.7543 78.6769 37.577 78.8917 38.3771L81.7891 37.5994ZM11.7175 62.2537C12.0491 63.0129 12.9333 63.3595 13.6925 63.0279C14.4517 62.6964 14.7983 61.8121 14.4668 61.0529L11.7175 62.2537ZM31.4837 14.3783L32.0878 15.7513L31.4837 14.3783ZM78.5848 32.8377L78.1126 34.2615C78.8462 34.5048 79.6446 34.1508 79.9569 33.4438L78.5848 32.8377ZM83.5279 25.3596C83.8627 24.6018 83.5197 23.7162 82.762 23.3814C82.0042 23.0467 81.1185 23.3896 80.7838 24.1474L83.5279 25.3596ZM70.2844 28.5044C69.4981 28.2436 68.6492 28.6696 68.3884 29.4559C68.1276 30.2422 68.5536 31.0911 69.3399 31.3519L70.2844 28.5044ZM67.0566 41.7705C67.885 41.7705 68.5566 41.0989 68.5566 40.2705C68.5566 39.4421 67.885 38.7705 67.0566 38.7705V41.7705ZM59.1874 40.2705V38.7705C58.3589 38.7705 57.6874 39.4421 57.6874 40.2705H59.1874ZM59.1874 47.4315H57.6874C57.6874 48.2599 58.3589 48.9315 59.1874 48.9315V47.4315ZM60.6874 52.6395C60.6874 51.8111 60.0158 51.1395 59.1874 51.1395C58.3589 51.1395 57.6874 51.8111 57.6874 52.6395H60.6874ZM55.966 39.1776C56.2185 38.3886 55.7836 37.5443 54.9945 37.2918C54.2055 37.0394 53.3612 37.4743 53.1087 38.2633L55.966 39.1776ZM46.9087 57.6383C46.6563 58.4273 47.0912 59.2716 47.8802 59.5241C48.6692 59.7766 49.5135 59.3417 49.766 58.5526L46.9087 57.6383ZM40.9474 56.5455C40.9474 57.3739 41.6189 58.0455 42.4474 58.0455C43.2758 58.0455 43.9474 57.3739 43.9474 56.5455H40.9474ZM42.4474 40.2705H43.9474C43.9474 39.6066 43.5109 39.0216 42.8745 38.8326C42.2381 38.6435 41.5531 38.8953 41.1906 39.4516L42.4474 40.2705ZM34.3874 52.6395L33.1306 51.8206C32.8302 52.2817 32.8064 52.8703 33.0686 53.3542C33.3308 53.8381 33.837 54.1395 34.3874 54.1395V52.6395ZM44.4624 54.1395C45.2908 54.1395 45.9624 53.4679 45.9624 52.6395C45.9624 51.8111 45.2908 51.1395 44.4624 51.1395V54.1395ZM22.0374 44.8275C22.0374 45.6559 22.7089 46.3275 23.5374 46.3275C24.3658 46.3275 25.0374 45.6559 25.0374 44.8275H22.0374ZM29.5618 48.591L30.3985 49.836H30.3985L29.5618 48.591ZM24.6877 51.8664L23.8511 50.6214H23.8511L24.6877 51.8664ZM23.5374 56.5455H22.0374C22.0374 57.3739 22.7089 58.0455 23.5374 58.0455V56.5455ZM31.2874 58.0455C32.1158 58.0455 32.7874 57.3739 32.7874 56.5455C32.7874 55.7171 32.1158 55.0455 31.2874 55.0455V58.0455ZM13.7564 66.3188C24.251 84.085 47.1077 89.9675 64.809 79.4463L63.2762 76.8675C47.008 86.5368 25.9934 81.136 16.3394 64.793L13.7564 66.3188ZM64.809 79.4463C79.5182 70.7036 86.0282 53.3922 81.7891 37.5994L78.8917 38.3771C82.7929 52.9112 76.7952 68.8322 63.2762 76.8675L64.809 79.4463ZM14.4668 61.0529C6.86837 43.6554 14.7625 23.3741 32.0878 15.7513L30.8796 13.0053C12.0343 21.2969 3.46009 43.3471 11.7175 62.2537L14.4668 61.0529ZM32.0878 15.7513C49.4101 8.12975 69.613 16.0434 77.2102 33.4381L79.9594 32.2374C71.7007 13.3279 49.7278 4.7124 30.8796 13.0053L32.0878 15.7513ZM79.9569 33.4438L83.5279 25.3596L80.7838 24.1474L77.2127 32.2316L79.9569 33.4438ZM79.057 31.414L70.2844 28.5044L69.3399 31.3519L78.1126 34.2615L79.057 31.414ZM67.0566 38.7705H59.1874V41.7705H67.0566V38.7705ZM57.6874 40.2705V47.4315H60.6874V40.2705H57.6874ZM59.1874 48.9315H65.0893V45.9315H59.1874V48.9315ZM66.2124 50.0355V53.9415H69.2124V50.0355H66.2124ZM65.0893 55.0455H61.8105V58.0455H65.0893V55.0455ZM60.6874 53.9415V52.6395H57.6874V53.9415H60.6874ZM61.8105 55.0455C61.1799 55.0455 60.6874 54.5409 60.6874 53.9415H57.6874C57.6874 56.2184 59.5437 58.0455 61.8105 58.0455V55.0455ZM66.2124 53.9415C66.2124 54.5409 65.7199 55.0455 65.0893 55.0455V58.0455C67.3561 58.0455 69.2124 56.2184 69.2124 53.9415H66.2124ZM65.0893 48.9315C65.7199 48.9315 66.2124 49.4361 66.2124 50.0355H69.2124C69.2124 47.7586 67.3561 45.9315 65.0893 45.9315V48.9315ZM43.9474 56.5455V52.6395H40.9474V56.5455H43.9474ZM43.9474 52.6395V40.2705H40.9474V52.6395H43.9474ZM41.1906 39.4516L33.1306 51.8206L35.6441 53.4584L43.7041 41.0894L41.1906 39.4516ZM34.3874 54.1395H42.4474V51.1395H34.3874V54.1395ZM42.4474 54.1395H44.4624V51.1395H42.4474V54.1395ZM25.0374 44.8275V42.8745H22.0374V44.8275H25.0374ZM26.1207 41.7705H28.704V38.7705H26.1207V41.7705ZM29.7874 42.8745V45.3411H32.7874V42.8745H29.7874ZM28.7252 47.346L23.8511 50.6214L25.5244 53.1114L30.3985 49.836L28.7252 47.346ZM22.0374 54.0331V56.5455H25.0374V54.0331H22.0374ZM23.5374 58.0455H31.2874V55.0455H23.5374V58.0455ZM23.8511 50.6214C22.715 51.3849 22.0374 52.6662 22.0374 54.0331H25.0374C25.0374 53.6587 25.2231 53.3139 25.5244 53.1114L23.8511 50.6214ZM29.7874 45.3411C29.7874 46.1508 29.3858 46.9021 28.7252 47.346L30.3985 49.836C31.8939 48.8311 32.7874 47.1433 32.7874 45.3411H29.7874ZM28.704 41.7705C29.2911 41.7705 29.7874 42.2535 29.7874 42.8745H32.7874C32.7874 40.6192 30.9704 38.7705 28.704 38.7705V41.7705ZM25.0374 42.8745C25.0374 42.2535 25.5336 41.7705 26.1207 41.7705V38.7705C23.8543 38.7705 22.0374 40.6192 22.0374 42.8745H25.0374ZM53.1087 38.2633L46.9087 57.6383L49.766 58.5526L55.966 39.1776L53.1087 38.2633Z" fill="#7F96FF"></path></svg> 