<?xml version="1.0" encoding="UTF-8"?> <svg xmlns="http://www.w3.org/2000/svg" width="247" height="254" viewBox="0 0 247 254" fill="none"><path d="M57.651 97.2573C36.8315 143.248 52.387 194.798 91.8078 212.644C131.229 230.489 180.228 208.162 201.047 162.171C221.866 116.18 206.311 64.6301 166.89 46.7847C127.469 28.9394 78.4704 51.2666 57.651 97.2573Z" fill="#1A133D" stroke="#7F96FF" stroke-width="3"></path><path d="M46.5934 91.9675C25.7413 138.03 39.7136 188.777 77.0052 205.658C114.297 222.54 161.647 199.553 182.499 153.491C203.352 107.428 189.379 56.681 152.088 39.7995C114.796 22.9181 67.4455 45.9046 46.5934 91.9675Z" fill="url(#paint0_linear_711_8139)" stroke="#7F96FF" stroke-width="3"></path><path d="M117.765 174.545L115.738 179.297C114.782 181.73 112.428 183.026 110.48 182.192C108.532 181.358 107.728 178.709 108.683 176.276L110.71 171.524C107.392 169.572 104.808 167.05 102.958 163.958C101.033 160.878 100.031 157.242 99.9519 153.05C99.8725 148.858 100.422 146.069 100.993 144.369L101.101 144.091C102.262 141.125 105.13 139.542 107.503 140.559C109.874 141.574 110.748 144.793 110.126 147.903C109.798 149.546 109.67 151.067 109.743 152.466C109.861 155.303 110.624 157.664 112.032 159.55C113.455 161.398 115.297 162.806 117.558 163.774C120.18 164.897 122.605 165.316 124.83 165.031C129.491 164.461 132.907 161.412 135.078 155.884C135.97 153.612 136.366 151.393 136.266 149.227C136.006 144.958 133.465 140.353 128.643 135.413C125.243 132.144 122.588 128.817 120.677 125.433C118.796 122.062 117.771 118.527 117.604 114.828C117.452 111.092 118.215 107.084 119.896 102.805C122.35 96.5576 125.782 92.0781 130.192 89.3667C134.603 86.6553 139.466 85.9736 144.783 87.3216L146.691 82.8283C147.658 80.3637 150.043 79.0507 152.016 79.8957C153.989 80.7406 154.803 83.4235 153.835 85.8881L151.906 90.4382C156.584 93.5031 159.417 97.9012 160.406 103.633C161.176 107.883 160.831 112.662 159.369 117.97C158.496 121.137 155.49 122.759 153.042 121.711C150.595 120.663 149.672 117.338 150.35 114.131C150.963 111.234 151.069 108.557 150.669 106.098C150.049 102.117 148.051 99.4031 144.674 97.9571C141.117 96.4336 137.988 96.4648 135.287 98.0507C132.601 99.5987 130.463 102.398 128.871 106.45C127.92 108.873 127.486 111.143 127.571 113.258C127.71 117.298 130.349 121.967 135.488 127.264C138.919 130.636 141.56 134 143.41 137.358C145.231 140.703 146.21 144.175 146.347 147.772C146.483 151.369 145.712 155.307 144.031 159.586C141.474 166.098 137.884 170.621 133.262 173.153C128.64 175.686 123.474 176.15 117.765 174.545Z" fill="url(#paint1_linear_711_8139)"></path><path fill-rule="evenodd" clip-rule="evenodd" d="M81.6298 81.2898C85.6233 70.3129 96.9982 64.7209 106.746 68.9421C115.818 72.8704 120.243 83.9424 116.876 94.2861L116.144 96.5349C115.143 99.6101 112.084 101.327 109.311 100.369C106.538 99.4118 105.102 96.1427 106.103 93.0676L106.835 90.8187C108.297 86.3264 106.375 81.5178 102.435 79.8118C98.2019 77.9785 93.2617 80.4071 91.5273 85.1744L73.1135 132.134C71.3057 137.103 73.4545 142.556 77.9196 144.33L78.4938 144.558C82.6239 146.199 87.3428 143.835 89.0687 139.261C90.2091 136.238 93.3373 134.689 96.0558 135.801C98.7743 136.914 100.054 140.265 98.9132 143.288C94.9214 153.869 84.0073 159.336 74.4549 155.541L73.8807 155.313C63.9727 151.375 59.2045 139.276 63.216 128.249L81.6298 81.2898Z" fill="url(#paint2_linear_711_8139)"></path><defs><linearGradient id="paint0_linear_711_8139" x1="76.3866" y1="207.025" x2="152.706" y2="38.433" gradientUnits="userSpaceOnUse"><stop stop-color="#26045E"></stop><stop offset="1" stop-color="#345AB0"></stop></linearGradient><linearGradient id="paint1_linear_711_8139" x1="86.8864" y1="230.001" x2="154.073" y2="86.7549" gradientUnits="userSpaceOnUse"><stop stop-color="#342D5A"></stop><stop offset="1" stop-color="#6FD6BD"></stop></linearGradient><linearGradient id="paint2_linear_711_8139" x1="78.3841" y1="200.028" x2="85.8969" y2="71.1984" gradientUnits="userSpaceOnUse"><stop stop-color="#342D5A"></stop><stop offset="1" stop-color="#6FD6BD"></stop></linearGradient></defs></svg> 