<?xml version="1.0" encoding="UTF-8"?> <svg xmlns="http://www.w3.org/2000/svg" width="663" height="497" viewBox="0 0 663 497" fill="none"><path d="M197.189 205.744C164.304 311.814 208.461 419.211 295.07 446.063C381.679 472.915 478.846 409.334 511.732 303.264C544.618 197.194 500.46 89.7967 413.851 62.9447C327.242 36.0927 230.075 99.674 197.189 205.744Z" fill="#1A133D" stroke="#7F96FF" stroke-width="3"></path><path d="M160.267 193.436C127.381 299.506 171.538 406.903 258.148 433.755C344.757 460.607 441.924 397.026 474.809 290.956C507.695 184.886 463.537 77.4888 376.928 50.6368C290.319 23.7848 193.152 87.3661 160.267 193.436Z" fill="url(#paint0_linear_711_8150)" stroke="#7F96FF" stroke-width="3"></path><path d="M149.999 278.676C62.6229 314.245 7.38197 347.745 12.7002 365.621C20.8894 393.147 169.569 373.204 344.786 321.077C520.002 268.949 655.405 204.377 647.216 176.851C642.488 160.96 590.942 160.889 514.499 173.697" stroke="#7F96FF" stroke-width="3"></path><path d="M295.879 356.382L292.435 369.062C290.899 375.526 284.986 379.656 279.228 378.287C273.471 376.919 270.048 370.57 271.585 364.107L275.029 351.427C264.98 347.763 256.701 342.395 250.192 335.323C243.48 328.309 239.065 319.556 236.946 309.065C234.827 298.573 235.081 291.369 235.885 286.89L236.06 286.152C237.92 278.275 245.122 273.235 252.137 274.902C259.143 276.567 263.016 284.32 262.709 292.359C262.547 296.604 262.884 300.469 263.719 303.953C265.332 311.03 268.509 316.673 273.251 320.881C278.017 324.989 283.742 327.837 290.425 329.425C298.176 331.268 305.06 331.416 311.076 329.871C323.689 326.706 331.741 317.782 335.231 303.098C336.665 297.064 336.753 291.347 335.494 285.947C332.84 275.329 323.736 264.718 308.182 254.115C297.312 247.175 288.471 239.814 281.66 232.032C274.938 224.272 270.507 215.781 268.368 206.56C266.254 197.239 266.547 186.895 269.248 175.531C273.192 158.936 280.639 146.415 291.59 137.967C302.541 129.519 315.663 125.997 330.956 127.401L334.186 115.413C335.742 108.866 341.73 104.683 347.562 106.069C353.393 107.455 356.859 113.885 355.303 120.432L352.037 132.57C366.344 138.521 376.162 148.504 381.491 162.521C385.545 172.903 386.756 185.027 385.124 198.892C384.15 207.167 376.583 212.357 369.349 210.638C362.115 208.918 358.061 200.917 358.48 192.616C358.859 185.117 357.938 178.357 355.719 172.334C352.202 162.573 345.454 156.507 335.474 154.135C324.96 151.636 316.334 152.88 309.595 157.866C302.879 162.751 298.243 170.575 295.685 181.336C294.156 187.773 293.987 193.63 295.181 198.907C297.395 208.996 306.799 219.732 323.392 231.113C334.393 238.297 343.21 245.758 349.843 253.497C356.387 261.215 360.663 269.563 362.671 278.541C364.68 287.518 364.333 297.689 361.632 309.054C357.521 326.353 349.657 339.04 338.042 347.118C326.426 355.195 312.372 358.283 295.879 356.382Z" fill="url(#paint1_linear_711_8150)"></path><path d="M150.999 235.362C85.158 246.693 43.1674 262.565 43.6193 279.073C44.4051 307.781 173.24 327.545 331.381 323.216C489.521 318.888 617.082 292.106 616.297 263.398C615.882 248.241 579.772 235.577 522.499 227.636" stroke="#7F96FF" stroke-width="3"></path><path d="M156.999 323.578C100.308 367.468 68.1441 403.602 76.6818 418.305C91.1029 443.14 216.189 397.428 356.07 316.204C495.95 234.98 597.655 149.002 583.234 124.167C576.333 112.281 544.085 116.553 496.999 133.143" stroke="#7F96FF" stroke-width="3"></path><circle cx="578.999" cy="121" r="18" fill="#7F96FF"></circle><path d="M61.9993 375C61.9993 381.075 57.0745 386 50.9993 386C44.9242 386 39.9993 381.075 39.9993 375C39.9993 368.925 44.9242 364 50.9993 364C57.0745 364 61.9993 368.925 61.9993 375Z" fill="#7F96FF"></path><path d="M450.999 315C450.999 321.075 446.074 326 439.999 326C433.924 326 428.999 321.075 428.999 315C428.999 308.925 433.924 304 439.999 304C446.074 304 450.999 308.925 450.999 315Z" fill="#7F96FF"></path><defs><linearGradient id="paint0_linear_711_8150" x1="257.703" y1="435.188" x2="377.372" y2="49.2041" gradientUnits="userSpaceOnUse"><stop stop-color="#1A133D"></stop><stop offset="1" stop-color="#493E84"></stop></linearGradient><linearGradient id="paint1_linear_711_8150" x1="235.744" y1="507.069" x2="340.934" y2="118.347" gradientUnits="userSpaceOnUse"><stop stop-color="#342D5A"></stop><stop offset="1" stop-color="#6FD6BD"></stop></linearGradient></defs></svg> 