<?xml version="1.0" encoding="UTF-8"?> <svg xmlns="http://www.w3.org/2000/svg" width="46" height="36" viewBox="0 0 46 36" fill="none"><path d="M36.0332 27.7135C28.6604 27.7135 13.9148 28.4625 13.9148 8.23914C12.8979 9.1546 10.4573 11.7345 8.83016 14.7306C3.74548 24.7174 11.6267 32.2076 17.9826 34.9539C24.3384 37.7003 32.9824 34.9539 36.0332 27.7135Z" fill="url(#paint0_linear_229_559)" fill-opacity="0.4"></path><path d="M7.45571 18.399C2.65885 21.4344 -0.0290534 24.5729 0.75519 26.8062C2.08174 30.5839 12.8403 30.341 24.7852 26.2638C36.7301 22.1866 45.3379 15.819 44.0114 12.0413C43.2076 9.75236 38.9409 8.93948 33.0456 9.5613M7.45571 18.399C7.26017 19.754 7.25168 21.1577 7.45354 22.5797C8.6166 30.7722 16.3222 36.4688 24.6644 35.3033C33.0067 34.1379 38.8266 26.5518 37.6635 18.3592C37.1663 14.8566 35.4731 11.8103 33.0456 9.5613M7.45571 18.399C8.38674 11.9472 13.5583 6.59872 20.4526 5.63556C25.2283 4.96839 29.7953 6.55 33.0456 9.5613" stroke="#7F96FF"></path><path d="M27.6435 8.48877L28.5064 11.6361L31.7112 12.4835L28.5064 13.3309L27.6435 16.4782L26.7806 13.3309L23.5757 12.4835L26.7806 11.6361L27.6435 8.48877Z" fill="#7F96FF"></path><path d="M26.1181 0L26.5496 1.57366L28.152 1.99737L26.5496 2.42107L26.1181 3.99474L25.6867 2.42107L24.0842 1.99737L25.6867 1.57366L26.1181 0Z" fill="#7F96FF"></path><path d="M35.2705 2.99609L35.8098 4.96317L37.8128 5.4928L35.8098 6.02244L35.2705 7.98951L34.7312 6.02244L32.7281 5.4928L34.7312 4.96317L35.2705 2.99609Z" fill="#7F96FF"></path><defs><linearGradient id="paint0_linear_229_559" x1="23.3215" y1="18.226" x2="12.097" y2="30.1636" gradientUnits="userSpaceOnUse"><stop stop-color="#6FD6BD"></stop><stop offset="1" stop-color="#387B92"></stop></linearGradient></defs></svg> 