<?xml version="1.0" encoding="UTF-8"?> <svg xmlns="http://www.w3.org/2000/svg" width="93" height="94" viewBox="0 0 93 94" fill="none"><path d="M70.525 37.7V30.725M70.525 83.8125V76.45M46.5 76.0625V68.7M46.5 25.3V19.1M22.475 46.6125V39.25M22.475 83.8125V76.45M15.8875 33.4375L45.725 10.575L70.1375 24.525L77.5 17.1625M77.5 17.1625V22.2M77.5 17.1625H72.075M18.6 76.45H26.35C28.4901 76.45 30.225 74.7151 30.225 72.575V50.875C30.225 48.7349 28.4901 47 26.35 47H18.6C16.4599 47 14.725 48.7349 14.725 50.875V72.575C14.725 74.7151 16.4599 76.45 18.6 76.45ZM41.85 68.7H51.15C53.2901 68.7 55.025 66.9651 55.025 64.825V29.175C55.025 27.0349 53.2901 25.3 51.15 25.3H41.85C39.7099 25.3 37.975 27.0349 37.975 29.175V64.825C37.975 66.9651 39.7099 68.7 41.85 68.7ZM66.65 76.45H74.4C76.5401 76.45 78.275 74.7151 78.275 72.575V41.575C78.275 39.4349 76.5401 37.7 74.4 37.7H66.65C64.5099 37.7 62.775 39.4349 62.775 41.575V72.575C62.775 74.7151 64.5099 76.45 66.65 76.45Z" stroke="#7F96FF" stroke-width="3" stroke-linecap="round" stroke-linejoin="round"></path></svg> 