<?xml version="1.0" encoding="UTF-8"?> <svg xmlns="http://www.w3.org/2000/svg" width="95" height="94" viewBox="0 0 95 94" fill="none"><path d="M21.5206 33.4448C21.0967 34.1565 21.33 35.0772 22.0417 35.5012C22.7534 35.9251 23.674 35.6918 24.098 34.9801L21.5206 33.4448ZM24.098 66.7698C23.674 66.0581 22.7534 65.8248 22.0417 66.2488C21.33 66.6727 21.0967 67.5934 21.5206 68.3051L24.098 66.7698ZM24.4232 52.375C25.2516 52.375 25.9232 51.7034 25.9232 50.875C25.9232 50.0465 25.2516 49.375 24.4232 49.375V52.375ZM2 49.375C1.17157 49.375 0.5 50.0465 0.5 50.875C0.5 51.7034 1.17157 52.375 2 52.375V49.375ZM27.9026 61.675C28.7311 61.675 29.4026 61.0034 29.4026 60.175C29.4026 59.3465 28.7311 58.675 27.9026 58.675L27.9026 61.675ZM11.2786 58.675C10.4501 58.675 9.77856 59.3465 9.77856 60.175C9.77856 61.0034 10.4501 61.675 11.2786 61.675L11.2786 58.675ZM29.4491 43.075C30.2775 43.075 30.9491 42.4034 30.9491 41.575C30.9491 40.7465 30.2775 40.075 29.4491 40.075L29.4491 43.075ZM7.41252 40.075C6.58409 40.075 5.91252 40.7466 5.91252 41.575C5.91252 42.4034 6.58409 43.075 7.41252 43.075L7.41252 40.075ZM49.2089 40.8C49.2089 41.6284 49.8805 42.3 50.7089 42.3C51.5373 42.3 52.2089 41.6284 52.2089 40.8H49.2089ZM52.2089 32.275C52.2089 31.4465 51.5373 30.775 50.7089 30.775C49.8805 30.775 49.2089 31.4465 49.2089 32.275H52.2089ZM60.7678 49.375C59.9394 49.375 59.2678 50.0465 59.2678 50.875C59.2678 51.7034 59.9394 52.375 60.7678 52.375V49.375ZM76.2249 52.375C77.0534 52.375 77.7249 51.7034 77.7249 50.875C77.7249 50.0466 77.0534 49.375 76.2249 49.375V52.375ZM49.2124 16.3875C49.2124 17.2159 49.884 17.8875 50.7124 17.8875C51.5409 17.8875 52.2124 17.2159 52.2124 16.3875H49.2124ZM43.7535 9.84998C42.9251 9.84998 42.2535 10.5215 42.2535 11.35C42.2535 12.1784 42.9251 12.85 43.7535 12.85V9.84998ZM57.2848 12.85C58.1132 12.85 58.7848 12.1784 58.7848 11.35C58.7848 10.5215 58.1132 9.84998 57.2848 9.84998V12.85ZM75.9708 30.5129C75.3309 31.0391 75.2387 31.9844 75.7649 32.6242C76.2911 33.2641 77.2364 33.3563 77.8762 32.8301L75.9708 30.5129ZM82.0779 27.4329L83.2387 26.4827V26.4827L82.0779 27.4329ZM80.2241 22.7999C79.6993 22.1588 78.7543 22.0645 78.1132 22.5892C77.4722 23.114 77.3779 24.059 77.9026 24.7001L80.2241 22.7999ZM83.7643 31.8612C84.2891 32.5023 85.2341 32.5966 85.8752 32.0719C86.5162 31.5471 86.6105 30.6021 86.0858 29.961L83.7643 31.8612ZM81.6874 50.875C81.6874 68.0267 67.8162 81.925 50.7125 81.925V84.925C69.4796 84.925 84.6874 69.677 84.6874 50.875H81.6874ZM50.7125 19.825C67.8162 19.825 81.6874 33.7233 81.6874 50.875H84.6874C84.6874 32.0729 69.4796 16.825 50.7125 16.825V19.825ZM24.098 34.9801C29.5073 25.8993 39.4037 19.825 50.7125 19.825V16.825C38.3012 16.825 27.4474 23.4954 21.5206 33.4448L24.098 34.9801ZM50.7125 81.925C39.4037 81.925 29.5073 75.8507 24.098 66.7698L21.5206 68.3051C27.4474 78.2545 38.3012 84.925 50.7125 84.925V81.925ZM43.8 50.875C43.8 54.6963 46.8915 57.8 50.7125 57.8V54.8C48.5549 54.8 46.8 53.046 46.8 50.875H43.8ZM50.7125 57.8C54.5334 57.8 57.625 54.6963 57.625 50.875H54.625C54.625 53.046 52.87 54.8 50.7125 54.8V57.8ZM57.625 50.875C57.625 47.0537 54.5334 43.95 50.7125 43.95V46.95C52.87 46.95 54.625 48.704 54.625 50.875H57.625ZM50.7125 43.95C46.8915 43.95 43.8 47.0537 43.8 50.875H46.8C46.8 48.704 48.5549 46.95 50.7125 46.95V43.95ZM24.4232 49.375H2V52.375H24.4232V49.375ZM27.9026 58.675H11.2786L11.2786 61.675H27.9026L27.9026 58.675ZM29.4491 40.075L7.41252 40.075L7.41252 43.075L29.4491 43.075L29.4491 40.075ZM52.2089 40.8V32.275H49.2089V40.8H52.2089ZM60.7678 52.375L76.2249 52.375V49.375L60.7678 49.375V52.375ZM52.2124 16.3875V11.35H49.2124V16.3875H52.2124ZM50.7124 9.84998H43.7535V12.85H50.7124V9.84998ZM50.7124 12.85H57.2848V9.84998H50.7124V12.85ZM77.8762 32.8301L83.0307 28.5914L81.1252 26.2743L75.9708 30.5129L77.8762 32.8301ZM83.2387 26.4827L80.2241 22.7999L77.9026 24.7001L80.9172 28.383L83.2387 26.4827ZM80.9172 28.383L83.7643 31.8612L86.0858 29.961L83.2387 26.4827L80.9172 28.383Z" fill="#7F96FF"></path></svg> 