<?xml version="1.0" encoding="UTF-8"?> <svg xmlns="http://www.w3.org/2000/svg" width="186" height="209" viewBox="0 0 186 209" fill="none"><path d="M136.942 82.5821C145.085 101.716 146.755 121.82 142.938 138.828C139.122 155.834 129.852 169.649 116.163 176.483C102.473 183.318 86.7545 181.978 72.3371 174.075C57.9189 166.172 44.8907 151.738 36.748 132.604C28.6053 113.47 26.9346 93.3656 30.7515 76.3583C34.5682 59.3519 43.8378 45.5374 57.5273 38.7029C71.2169 31.8684 86.9355 33.2076 101.353 41.1106C115.771 49.0141 128.799 63.4485 136.942 82.5821Z" fill="#1A133D" stroke="#7F96FF" stroke-width="3"></path><path d="M148.866 76.2821C157.008 95.4158 158.679 115.52 154.862 132.528C151.045 149.534 141.776 163.349 128.086 170.183C114.397 177.018 98.6781 175.678 84.2606 167.775C69.8425 159.872 56.8143 145.438 48.6716 126.304C40.5289 107.17 38.8582 87.0656 42.6751 70.0583C46.4918 53.0519 55.7613 39.2373 69.4509 32.4028C83.1404 25.5683 98.859 26.9076 113.276 34.8106C127.695 42.7141 140.723 57.1485 148.866 76.2821Z" fill="url(#paint0_linear_711_8145)" stroke="#7F96FF" stroke-width="3"></path><path fill-rule="evenodd" clip-rule="evenodd" d="M107.646 56.0164C110.399 56.2414 112.447 58.655 112.222 61.4072L109.218 98.1503L110.124 100.536L124.122 94.8657C126.682 93.829 129.597 95.0634 130.634 97.6228C131.671 100.182 130.436 103.098 127.877 104.134L113.674 109.887L115.531 114.776L130.122 108.866C132.682 107.829 135.597 109.063 136.634 111.623C137.671 114.182 136.436 117.098 133.877 118.134L119.081 124.127L123.675 136.225C124.655 138.806 123.357 141.694 120.775 142.674C118.194 143.654 115.306 142.356 114.326 139.775L109.811 127.882L94.3772 134.134C91.8177 135.171 88.9025 133.936 87.8658 131.377C86.829 128.817 88.0634 125.902 90.6229 124.865L106.26 118.531L104.404 113.642L88.3772 120.134C85.8177 121.171 82.9025 119.936 81.8658 117.377C80.829 114.817 82.0634 111.902 84.6229 110.865L100.853 104.291L100.017 102.088L64.1423 77.0944C61.8765 75.5158 61.3194 72.3994 62.898 70.1336C64.4766 67.8679 67.593 67.3108 69.8587 68.8894L99.8678 89.7967L102.256 60.5923C102.481 57.84 104.894 55.7913 107.646 56.0164Z" fill="url(#paint1_linear_711_8145)"></path><defs><linearGradient id="paint0_linear_711_8145" x1="68.8635" y1="31.0226" x2="136.962" y2="167.425" gradientUnits="userSpaceOnUse"><stop stop-color="#345AB0"></stop><stop offset="1" stop-color="#0D5163"></stop></linearGradient><linearGradient id="paint1_linear_711_8145" x1="91.8762" y1="184.96" x2="93.9121" y2="60.0912" gradientUnits="userSpaceOnUse"><stop stop-color="#342D5A"></stop><stop offset="1" stop-color="#6FD6BD"></stop></linearGradient></defs></svg> 