<?xml version="1.0" encoding="UTF-8"?> <svg xmlns="http://www.w3.org/2000/svg" width="93" height="93" viewBox="0 0 93 93" fill="none"><path d="M63.5379 32.3865V32.4228V52.1672C63.5379 53.9473 61.8668 55.4367 59.1786 56.3812C56.9444 57.1805 53.8746 57.6709 50.5143 57.6709C46.0823 64.4461 36.528 65.4633 30.7881 59.7234C25.793 54.7283 25.793 46.6453 30.7881 41.6502C32.5319 39.9064 34.7661 38.6713 37.2727 38.1627V32.4047C37.2727 30.6064 38.9438 29.1351 41.6321 28.1906C46.5182 26.465 54.2743 26.465 59.1786 28.1906C61.8668 29.1533 63.5198 30.6064 63.5379 32.3865ZM35.311 53.6385C35.2383 52.8937 35.7832 52.2398 36.528 52.1672C37.2727 52.0945 37.9266 52.6394 37.9993 53.3842C38.0901 54.4377 40.1063 55.0553 41.2688 54.1107C41.5412 53.8928 41.7047 53.6021 41.7047 53.2933C41.7047 52.4033 40.6512 52.2035 39.5977 52.0037C37.4543 51.5859 35.2928 51.1682 35.2928 48.0621C35.2928 46.1912 36.7096 44.7562 38.4715 44.2658V43.7027C38.4715 42.958 39.0709 42.3404 39.852 42.3404C40.6149 42.3404 41.2143 42.958 41.1961 43.7209L41.178 44.2658C42.958 44.7381 44.3748 46.173 44.3748 48.0621C44.3748 48.8068 43.7754 49.4062 43.0307 49.4062C42.286 49.4062 41.6866 48.8068 41.6866 48.0621C41.6866 46.9541 39.5977 46.282 38.417 47.2447C38.1446 47.4627 37.9811 47.7533 37.9811 48.0621C37.9811 48.9521 39.0346 49.1519 40.0881 49.3517C42.2315 49.7695 44.393 50.1873 44.393 53.2933C44.393 55.1642 42.958 56.6174 41.178 57.0896V57.6527C41.178 58.3974 40.5786 59.015 39.8338 59.015C39.0891 59.015 38.4715 58.4156 38.4715 57.6527V57.0896C36.8368 56.6355 35.4744 55.364 35.311 53.6385ZM51.8948 54.9463C54.4014 54.8191 56.6356 54.4195 58.3067 53.8383C59.887 53.2752 60.8496 52.6758 60.8496 52.1672V49.0793C58.7245 50.2236 55.6002 50.823 52.6213 51.0228C52.585 52.4033 52.3307 53.7111 51.8948 54.9463ZM52.4034 48.3527C54.8192 48.1892 56.9625 47.7715 58.5428 47.1721C59.9596 46.6271 60.8315 46.064 60.8315 45.5918V42.5039C58.343 43.8299 54.5104 44.4474 51.0047 44.5201C51.6768 45.6826 52.1491 46.9723 52.4034 48.3527ZM49.0067 41.7955C52.2762 41.959 55.8727 41.5412 58.2885 40.6693C59.8688 40.1062 60.8315 39.5068 60.8315 38.9982V35.9103C55.8182 38.5986 44.9924 38.5986 39.9791 35.9103V37.9084C43.5393 37.9629 46.718 39.4342 49.0067 41.7955ZM38.8166 40.6693C38.7985 40.6693 38.7985 40.6693 38.7803 40.6693C33.7307 41.1779 29.7891 45.501 29.7891 50.6777C29.7891 56.2359 34.2938 60.7588 39.852 60.7588C45.4102 60.7588 49.9149 56.2541 49.9149 50.6777C49.9149 44.7199 44.7744 40.0699 38.8166 40.6693ZM76.3618 83.1551H70.967C70.5311 83.1551 70.1678 82.9553 69.9135 82.6646L66.2444 78.5777C55.2551 84.8625 41.7774 85.2439 30.443 79.5949C29.7709 79.2498 29.4985 78.4324 29.8799 77.724L34.2393 68.9508C34.5662 68.2787 35.3836 68.0062 36.0375 68.3513C46.7543 73.6916 59.7598 70.8217 67.2797 61.4672C69.5502 58.6336 71.2395 55.2914 72.1295 51.6586C72.293 50.9502 73.0014 50.5142 73.6916 50.6596L83.3913 52.5486C84.1541 52.6939 84.6446 53.4568 84.4266 54.256C83.1369 59.7779 80.6303 64.8275 77.2336 69.1324C74.7815 72.2385 71.8389 74.9449 68.5512 77.1609L71.5664 80.4668H76.3618C77.3789 77.0156 81.7565 75.8531 84.3358 78.4324C87.351 81.4476 85.2077 86.6062 80.9573 86.6062C78.7957 86.5881 76.943 85.1713 76.3618 83.1551ZM64.3916 76.5252L62.4481 74.3637C61.9577 73.8187 61.994 72.965 62.5389 72.4564C63.102 71.966 63.9375 72.0023 64.4461 72.5654L66.7348 75.1084C73.9096 70.4039 79.1954 63.2291 81.484 54.9099L74.4182 53.5295C70.8762 65.5178 59.8325 73.7097 47.3901 73.7097C43.4666 73.7097 39.6159 72.8924 36.0739 71.3303L32.877 77.7603C42.9399 82.3195 54.6739 81.8473 64.3916 76.5252ZM80.9391 83.8816C82.7918 83.8816 83.7182 81.6293 82.4104 80.3215C81.1026 79.0137 78.8502 79.94 78.8502 81.7928C78.8684 82.9553 79.7948 83.8816 80.9391 83.8816ZM11.625 17.2014V24.4851L14.2407 26.8283C19.3993 17.6736 28.227 10.8984 38.6895 8.46444C39.416 8.30096 40.1245 8.7369 40.3243 9.51796L42.8127 18.9996C42.9944 19.7443 42.5403 20.489 41.7592 20.6525C36.0375 21.9422 31.0243 25.1754 27.4823 29.6074C18.7817 40.4877 20.4528 56.3631 31.2241 65.209C31.7871 65.6812 31.878 66.4986 31.442 67.0799L25.3934 74.8904C24.9211 75.4898 24.0674 75.5807 23.468 75.1084C9.86312 64.1191 5.48558 45.174 12.9873 29.3168L9.46351 26.1381C9.15472 25.8838 8.97308 25.5205 8.97308 25.0846V17.2014C5.52191 16.1842 4.35941 11.8066 6.93871 9.22733C9.95394 6.23026 15.1125 8.35546 15.1125 12.6058C15.058 14.7492 13.6231 16.6019 11.625 17.2014ZM16.275 28.6629L19.2539 31.333C19.7989 31.8234 19.8534 32.6953 19.3448 33.2402C18.8543 33.8033 18.0006 33.8396 17.4375 33.3492L15.0217 31.1695C8.71878 45.3738 12.4787 61.9576 24.0674 72.1113L28.4813 66.4078C17.4375 56.4539 16.0389 39.5976 25.3571 27.9363C29.008 23.3771 34.0395 19.9623 39.8338 18.3639L38.0174 11.407C28.6629 13.9682 20.8342 20.2711 16.275 28.6629ZM10.2627 10.517C8.41 10.517 7.48363 12.7693 8.79144 14.0771C10.0993 15.3849 12.3516 14.4586 12.3516 12.6058C12.3516 11.4615 11.4252 10.517 10.2627 10.517ZM78.1418 12.5514H73.3465L70.7309 15.4576C79.7766 22.4871 85.4438 33.4037 85.4438 45.5191C85.4438 46.2639 84.8444 46.8814 84.0996 46.8814H74.2184C73.4737 46.8814 72.8561 46.282 72.8561 45.5191C72.8561 31.442 61.4491 20.0349 47.3719 20.0349C46.6272 20.0349 46.0278 19.4355 46.0278 18.6908V8.80956C46.0278 8.06483 46.6272 7.46542 47.3719 7.46542C55.2006 7.46542 62.4663 9.82675 68.5149 13.8773L71.6936 10.3535C71.9479 10.0447 72.3293 9.84491 72.7471 9.84491H78.1418C79.159 6.39374 83.5366 5.23124 86.1159 7.81053C89.1129 10.8258 86.9696 15.9662 82.7373 15.9662C80.5758 15.9662 78.7231 14.5494 78.1418 12.5514ZM68.8963 17.4557L66.208 20.4346C65.7176 20.9795 64.8457 21.034 64.3008 20.5254C63.7377 20.0349 63.7014 19.1812 64.1918 18.6182L66.6621 15.8754C61.4672 12.4787 55.3096 10.408 48.6979 10.1719V17.3467C63.1928 18.0369 74.8178 29.6619 75.4899 44.1387H82.6647C82.3014 33.3855 77.052 23.7404 68.8963 17.4557ZM84.2086 9.71776C82.9008 8.40995 80.6485 9.33631 80.6485 11.189C80.6485 13.0418 82.9008 13.9682 84.2086 12.6603C85.0079 11.8611 85.0079 10.5351 84.2086 9.71776ZM58.2885 30.7517C53.9836 29.226 46.8451 29.226 42.5403 30.7517C40.96 31.3148 39.9973 31.9142 39.9973 32.4228C39.9973 32.9314 40.9782 33.549 42.5403 34.0939C46.8451 35.6197 53.9836 35.6197 58.2885 34.0939C59.8688 33.5308 60.8315 32.9314 60.8315 32.4228C60.8496 31.8961 59.8688 31.2967 58.2885 30.7517Z" fill="#7F96FF"></path></svg> 