<?xml version="1.0" encoding="UTF-8"?> <svg xmlns="http://www.w3.org/2000/svg" width="82" height="82" viewBox="0 0 82 82" fill="none"><g id="astronaut 1"><g id="015---Astronaut"><path id="Shape" d="M51.0147 25.6754C50.6886 25.5308 50.3183 25.5218 49.9854 25.6504C49.6526 25.779 49.3845 26.0346 49.2403 26.361C47.3137 30.7608 42.9668 33.6043 38.1636 33.6066C37.4212 33.6066 36.8193 34.2084 36.8193 34.9508C36.8193 35.6933 37.4212 36.2951 38.1636 36.2951C44.0538 36.3126 49.3927 32.8326 51.7541 27.4364C51.8913 27.105 51.8904 26.7325 51.7515 26.4018C51.6127 26.0711 51.3474 25.8096 51.0147 25.6754Z" fill="#7F96FF"></path><path id="Shape_2" d="M72.8458 23.4439C70.2024 22.1051 66.9742 23.1572 65.6272 25.7963C62.659 30.9303 57.9088 34.7955 52.2786 36.658C52.1218 36.6978 51.9553 36.6685 51.8216 36.5773C51.7708 36.527 51.7298 36.4678 51.7006 36.4026C59.505 29.3208 60.5399 17.4237 54.0753 9.10084C47.6107 0.778006 35.8274 -1.16301 27.0349 4.64658C18.2424 10.4562 15.4065 22.0567 20.5272 31.2675C18.8009 31.3112 17.2006 32.1813 16.2255 33.6065C13.555 37.0939 9.70146 39.4844 5.39076 40.3278C2.84606 40.6939 0.890153 42.7668 0.672396 45.3285C0.450598 48.2052 2.53877 50.7442 5.4042 51.0819C7.19207 51.297 12.6901 50.0199 17.5026 46.9685C16.4171 49.5138 14.9383 51.8726 13.1203 53.9586C8.51 59.0774 5.92436 65.7016 5.84781 72.5901C5.84781 76.3022 8.85704 79.3114 12.5691 79.3114C16.3047 79.2671 19.3055 76.2184 19.2904 72.4826C19.3153 69.8594 20.0693 67.2949 21.4681 65.0757C22.5224 65.734 23.6686 66.2323 24.8691 66.5544C23.9559 69.3758 23.4534 72.314 23.377 75.2786C23.377 78.9907 26.3862 81.9999 30.0983 81.9999C33.8104 81.9999 36.8196 78.9907 36.8196 75.2786C36.8609 71.6796 38.2136 68.2192 40.6239 65.5462C44.9504 60.5523 48.0445 54.6127 49.6573 48.2052C60.4613 46.7134 69.9281 40.2113 75.1983 30.6626C76.537 28.0192 75.485 24.7909 72.8458 23.4439ZM63.5435 32.8537C64.6379 34.2804 65.9172 35.5552 67.3478 36.6445C66.6353 37.357 65.8422 38.0695 64.9819 38.7819C63.4781 37.7266 62.2289 36.3488 61.3255 34.7491C62.1011 34.161 62.8417 33.5281 63.5435 32.8537ZM38.1639 38.9835C35.3523 38.9828 32.5836 38.2952 30.0983 36.9806C27.9364 31.7887 27.0158 26.1639 27.4098 20.5537C28.3508 18.7121 35.8652 5.45765 53.4885 13.0662C56.4772 18.4833 56.3789 25.077 53.2299 30.4026C50.081 35.7282 44.3508 38.9919 38.1639 38.9835ZM38.1639 4.03273C42.7885 4.02912 47.2242 5.86726 50.4908 9.14092C32.4508 3.87142 24.8691 19.4245 24.8691 19.5993C24.4524 20.4999 24.1835 27.2213 26.294 34.2786C21.0574 29.3871 19.3377 21.7945 21.9555 15.1239C24.5733 8.45341 30.9981 4.057 38.1639 4.03273ZM12.2465 40.6639C12.903 42.3976 13.3542 44.2022 13.5908 46.0409C12.8856 46.3867 12.1632 46.6962 11.4265 46.9685C11.1976 45.185 10.746 43.4373 10.0822 41.7662C10.8245 41.4412 11.5471 41.0731 12.2465 40.6639ZM6.45272 48.3934C5.63635 48.5204 4.80689 48.2651 4.20333 47.7009C3.59976 47.1367 3.28913 46.3263 3.36092 45.5032C3.53788 44.2051 4.5622 43.1863 5.86125 43.0163C6.42584 42.9088 6.97699 42.7878 7.50125 42.6399C8.21322 44.2949 8.6666 46.0495 8.84551 47.8422C8.06584 48.0439 7.27272 48.2186 6.45272 48.3934ZM13.0665 76.6229C11.9137 76.7662 10.7552 76.4055 9.88754 75.6331C9.0199 74.8607 8.52746 73.7517 8.53633 72.5901C8.53633 72.4422 8.53633 72.3078 8.53633 72.1599C11.1381 71.1941 14.0001 71.1941 16.6019 72.1599V72.5094C16.5824 74.5586 15.0894 76.2956 13.0665 76.6229ZM30.5419 79.3114C29.3892 79.4547 28.2306 79.094 27.363 78.3216C26.4953 77.5492 26.0029 76.4402 26.0117 75.2786C26.0117 75.1308 26.0117 74.9829 26.0117 74.8216C28.6118 73.846 31.4773 73.846 34.0773 74.8216V75.2786C34.0617 77.2944 32.5876 79.0019 30.5957 79.3114H30.5419ZM48.3937 45.7049C47.8356 45.7665 47.3746 46.1685 47.2376 46.7131C45.7751 53.0349 42.7997 58.9072 38.5672 63.8255C36.4668 66.1715 35.0285 69.0341 34.3999 72.1196C31.7601 71.2753 28.9284 71.2379 26.2671 72.0121C26.525 70.3185 26.9575 68.6562 27.5576 67.0517C28.4185 67.1566 29.2848 67.2104 30.1521 67.2131C30.8945 67.2131 31.4963 66.6112 31.4963 65.8688C31.4963 65.1264 30.8945 64.5245 30.1521 64.5245C25.6891 64.5245 23.3098 63.2609 22.0865 62.0914C21.4955 61.5581 21.0355 60.8957 20.7422 60.1557C20.6654 59.7804 20.4321 59.4558 20.101 59.2632C19.7698 59.0707 19.3723 59.0286 19.0081 59.1475C18.2938 59.3322 17.8618 60.0581 18.0403 60.774C18.3156 61.6813 18.773 62.5229 19.3845 63.2475C18.1688 65.0936 17.3199 67.1565 16.8842 69.3235C14.2335 68.503 11.3993 68.4843 8.73797 69.2698C9.44214 64.2229 11.6268 59.4982 15.0157 55.6927C18.0593 52.1484 20.2729 47.9691 21.495 43.4599C21.6518 42.8827 21.4083 42.2712 20.8976 41.9598C20.3869 41.6484 19.7318 41.7119 19.2904 42.1157C18.2828 43.0348 17.199 43.8667 16.0508 44.6026C15.7306 42.7552 15.1983 40.9509 14.4645 39.2255C15.9598 38.0982 17.2861 36.7628 18.4032 35.2599C19.0684 34.2551 20.3209 33.8156 21.4681 34.1845C21.7553 34.2849 22.0681 34.2849 22.3553 34.1845C24.787 37.246 28.0563 39.5345 31.7652 40.7714C29.2949 43.504 27.5196 46.7917 26.5898 50.356C25.768 49.9848 24.9995 49.5056 24.3045 48.9311C23.7802 48.4099 22.9334 48.4099 22.4091 48.9311C22.1546 49.1835 22.0115 49.5271 22.0115 49.8855C22.0115 50.2439 22.1546 50.5875 22.4091 50.8399C23.4988 51.7875 24.7391 52.5462 26.079 53.0849C25.8899 54.7509 25.8899 56.4329 26.079 58.099C26.1547 58.7831 26.7349 59.2995 27.4232 59.2953C27.8069 59.2977 28.1733 59.1359 28.4301 58.8509C28.6869 58.5658 28.8097 58.1846 28.7675 57.8032C28.6472 56.547 28.6472 55.2821 28.7675 54.0258C31.8293 54.8835 34.9978 55.2999 38.1773 55.2626C38.9197 55.2626 39.5216 54.6607 39.5216 53.9183C39.5216 53.1759 38.9197 52.574 38.1773 52.574C35.121 52.6198 32.0754 52.2028 29.1439 51.3373C30.0603 47.5944 32.0177 44.1875 34.7898 41.5108C39.9566 42.4122 45.2704 41.2383 49.5767 38.2442C50.3842 39.3239 51.788 39.772 53.0717 39.3599C55.2062 38.6901 57.2409 37.7361 59.1209 36.5235C60.0627 38.0704 61.2737 39.4362 62.6967 40.5563C58.4425 43.4047 53.5448 45.1466 48.4475 45.6242L48.3937 45.7049ZM72.7652 29.5737C71.7804 31.3902 70.5945 33.0902 69.2298 34.6416C67.7732 33.5763 66.4939 32.2879 65.4389 30.8239C66.4271 29.6463 67.3004 28.3769 68.0468 27.0331C68.713 25.7098 70.3241 25.1747 71.6494 25.8367C72.9549 26.5122 73.4758 28.1109 72.8189 29.4258L72.7652 29.5737Z" fill="#7F96FF"></path><path id="Oval" d="M51.607 22.8523C52.3494 22.8523 52.9512 22.2505 52.9512 21.5081C52.9512 20.7657 52.3494 20.1638 51.607 20.1638C50.8645 20.1638 50.2627 20.7657 50.2627 21.5081C50.2627 22.2505 50.8645 22.8523 51.607 22.8523Z" fill="#7F96FF"></path><path id="Shape_3" d="M79.984 76.6229H78.6397V75.2786C78.6397 74.5362 78.0379 73.9343 77.2955 73.9343C76.5531 73.9343 75.9512 74.5362 75.9512 75.2786V76.6229H74.607C73.8645 76.6229 73.2627 77.2247 73.2627 77.9671C73.2627 78.7095 73.8645 79.3114 74.607 79.3114H75.9512V80.6556C75.9512 81.3981 76.5531 81.9999 77.2955 81.9999C78.0379 81.9999 78.6397 81.3981 78.6397 80.6556V79.3114H79.984C80.7264 79.3114 81.3283 78.7095 81.3283 77.9671C81.3283 77.2247 80.7264 76.6229 79.984 76.6229Z" fill="#7F96FF"></path><path id="Shape_4" d="M59.8199 57.8033H58.4757V56.459C58.4757 55.7166 57.8738 55.1147 57.1314 55.1147C56.389 55.1147 55.7872 55.7166 55.7872 56.459V57.8033H54.4429C53.7005 57.8033 53.0986 58.4051 53.0986 59.1475C53.0986 59.8899 53.7005 60.4918 54.4429 60.4918H55.7872V61.8361C55.7872 62.5785 56.389 63.1803 57.1314 63.1803C57.8738 63.1803 58.4757 62.5785 58.4757 61.8361V60.4918H59.8199C60.5624 60.4918 61.1642 59.8899 61.1642 59.1475C61.1642 58.4051 60.5624 57.8033 59.8199 57.8033Z" fill="#7F96FF"></path><path id="Shape_5" d="M71.9185 9.40981C72.6609 9.40981 73.2628 8.80797 73.2628 8.06555V6.72129H74.6071C75.3495 6.72129 75.9513 6.11944 75.9513 5.37703C75.9513 4.63461 75.3495 4.03276 74.6071 4.03276H73.2628V2.6885C73.2628 1.94608 72.6609 1.34424 71.9185 1.34424C71.1761 1.34424 70.5743 1.94608 70.5743 2.6885V4.03276H69.23C68.4876 4.03276 67.8857 4.63461 67.8857 5.37703C67.8857 6.11944 68.4876 6.72129 69.23 6.72129H70.5743V8.06555C70.5743 8.80797 71.1761 9.40981 71.9185 9.40981Z" fill="#7F96FF"></path></g></g></svg> 