<?xml version="1.0" encoding="UTF-8"?> <svg xmlns="http://www.w3.org/2000/svg" width="26" height="26" viewBox="0 0 26 26" fill="none"><path d="M12.9974 2.16699C10.8548 2.16699 8.76026 2.80236 6.97872 3.99274C5.19719 5.18312 3.80866 6.87506 2.98871 8.85459C2.16876 10.8341 1.95422 13.0123 2.37223 15.1138C2.79023 17.2153 3.82201 19.1456 5.33708 20.6607C6.85215 22.1757 8.78246 23.2075 10.8839 23.6255C12.9854 24.0435 15.1636 23.829 17.1431 23.009C19.1227 22.1891 20.8146 20.8005 22.005 19.019C23.1954 17.2375 23.8307 15.143 23.8307 13.0003C23.8307 11.5777 23.5505 10.1689 23.0061 8.85459C22.4617 7.54023 21.6637 6.34597 20.6577 5.34C19.6518 4.33403 18.4575 3.53606 17.1431 2.99163C15.8288 2.4472 14.4201 2.16699 12.9974 2.16699ZM17.3307 14.0837H12.9974C12.7101 14.0837 12.4345 13.9695 12.2314 13.7664C12.0282 13.5632 11.9141 13.2876 11.9141 13.0003V8.66699C11.9141 8.37967 12.0282 8.10412 12.2314 7.90096C12.4345 7.6978 12.7101 7.58366 12.9974 7.58366C13.2847 7.58366 13.5603 7.6978 13.7634 7.90096C13.9666 8.10412 14.0807 8.37967 14.0807 8.66699V11.917H17.3307C17.6181 11.917 17.8936 12.0311 18.0968 12.2343C18.2999 12.4375 18.4141 12.713 18.4141 13.0003C18.4141 13.2876 18.2999 13.5632 18.0968 13.7664C17.8936 13.9695 17.6181 14.0837 17.3307 14.0837Z" fill="#7F96FF"></path></svg> 