<?xml version="1.0" encoding="UTF-8"?> <svg xmlns="http://www.w3.org/2000/svg" width="93" height="93" viewBox="0 0 93 93" fill="none"><path d="M87.5151 39.665L82.4267 36.8703L78.6365 27.601L80.2803 21.9857C80.5788 20.9791 80.3069 19.8882 79.5725 19.1451L73.5397 13.0429C72.8047 12.3021 71.728 12.0273 70.7336 12.3267L65.1753 13.9812L56.0136 10.1422L53.2513 4.99835C52.756 4.07485 51.8007 3.49983 50.7623 3.5H42.2334C41.195 3.49983 40.2399 4.07485 39.7444 4.99835L36.9824 10.1465L27.8208 13.9812L22.2708 12.318C21.2761 12.0157 20.1975 12.291 19.4632 13.0343L13.432 19.1366C12.6998 19.8802 12.4282 20.9696 12.7241 21.9756L14.3593 27.6008L10.5651 36.8703L5.48094 39.665C4.56817 40.1661 3.99983 41.1326 4 42.1833V50.8124C3.99983 51.8631 4.56817 52.8294 5.48094 53.3307L10.5692 56.1253L14.3593 65.3947L12.7155 71.01C12.4171 72.0166 12.689 73.1075 13.4234 73.8506L19.4547 79.9527C20.1897 80.6936 21.2663 80.9683 22.2607 80.6689L27.8205 79.0145L36.9821 82.8535L39.7442 88.0016C40.2395 88.9251 41.1948 89.5002 42.2333 89.5H50.7621C51.8005 89.5002 52.7557 88.9251 53.2511 88.0016L56.0133 82.8535L65.1749 79.0145L70.7249 80.6776C71.7196 80.98 72.7982 80.7047 73.5325 79.9614L79.5637 73.8592C80.2959 73.1156 80.5675 72.0263 80.2716 71.02L78.6364 65.3949L82.4308 56.1255L87.5191 53.3309C88.4318 52.8297 89.0002 51.8632 89 50.8126V42.1834C88.9995 41.1317 88.4294 40.165 87.5151 39.665ZM86.1643 50.8124L80.6356 53.8492C80.3494 54.007 80.1259 54.2601 80.0028 54.5654L75.8233 64.773C75.699 65.0764 75.6815 65.4136 75.7738 65.7284L77.5619 71.8306L71.5307 77.9328L65.4995 76.1236C65.1881 76.0316 64.8552 76.0493 64.5551 76.1737L54.4662 80.4023C54.1644 80.5269 53.9143 80.7531 53.7583 81.0426L50.7568 86.6363H42.2336L39.2321 81.0426C39.0761 80.7531 38.826 80.5269 38.5242 80.4023L28.4353 76.1737C28.2633 76.1021 28.079 76.0651 27.893 76.0648C27.7569 76.0651 27.6216 76.0849 27.4909 76.1236L21.4597 77.9328L15.4285 71.8306L17.2166 65.7284C17.3089 65.4136 17.2914 65.0764 17.1671 64.773L12.9933 54.5597C12.8702 54.2544 12.6466 54.0013 12.3605 53.8435L6.83895 50.8067V42.1833L12.3677 39.1465C12.6538 38.9886 12.8774 38.7356 13.0005 38.4303L17.1799 28.2226C17.3042 27.9193 17.3217 27.582 17.2295 27.2672L15.4413 21.165L21.4726 15.0629L27.5038 16.8721C27.815 16.9647 28.1483 16.947 28.4481 16.8219L38.5371 12.5933C38.8388 12.4688 39.089 12.2426 39.245 11.9531L42.2465 6.36661H50.7753L53.7768 11.9604C53.9328 12.2499 54.1829 12.4761 54.4847 12.6006L64.5737 16.8292C64.8737 16.9543 65.2068 16.972 65.518 16.8794L71.5492 15.0702L77.5804 21.1723L75.7923 27.2745C75.7 27.5893 75.7175 27.9265 75.8418 28.2299L80.0213 38.4375C80.1444 38.7428 80.368 38.9959 80.6541 39.1538L86.1828 42.1905L86.1643 50.8124Z" fill="#7F96FF"></path><path d="M46.5 16.5C30.2075 16.5 17 29.9314 17 46.5C17 63.0686 30.2075 76.5 46.5 76.5C62.7925 76.5 76 63.0686 76 46.5C75.9823 29.939 62.7851 16.5182 46.5 16.5ZM46.5 73.643C31.7593 73.643 19.8095 61.4907 19.8095 46.5002C19.8095 31.5096 31.7593 19.3571 46.5 19.3571C61.2407 19.3571 73.1905 31.5094 73.1905 46.5C73.1743 61.4838 61.2341 73.6264 46.5 73.643Z" fill="#7F96FF"></path><path d="M31 36.625V33.875C31 33.1156 30.3285 32.5 29.5 32.5C28.6715 32.5 28 33.1156 28 33.875V36.625C26.3431 36.625 25 37.8563 25 39.375V46.25C25 47.7689 26.3432 49 28 49V53.125C28 53.8844 28.6715 54.5 29.5 54.5C30.3285 54.5 31 53.8844 31 53.125V49C32.6569 49 34 47.7687 34 46.25V39.375C34 37.8561 32.6568 36.625 31 36.625ZM27.9998 46.25V39.375H30.9998V46.25H27.9998Z" fill="#7F96FF"></path><path d="M53.3333 32.6154V26.9231C53.3333 26.1371 52.7364 25.5 52 25.5C51.2636 25.5 50.6667 26.1371 50.6667 26.9231V32.6154C49.1938 32.6154 48 33.8897 48 35.4615V52.5385C48 54.1105 49.194 55.3846 50.6667 55.3846V61.0769C50.6667 61.8629 51.2636 62.5 52 62.5C52.7364 62.5 53.3333 61.8629 53.3333 61.0769V55.3846C54.8062 55.3846 56 54.1103 56 52.5385V35.4615C56 33.8895 54.806 32.6154 53.3333 32.6154ZM50.6665 52.5385V35.4615H53.3332V52.5385H50.6665Z" fill="#7F96FF"></path><path d="M42.3333 29.7V26.9C42.3333 26.1268 41.7364 25.5 41 25.5C40.2636 25.5 39.6667 26.1268 39.6667 26.9V29.7C38.1938 29.7 37 30.9537 37 32.5V60.5C37 62.0465 38.194 63.3 39.6667 63.3V66.1C39.6667 66.8732 40.2636 67.5 41 67.5C41.7364 67.5 42.3333 66.8732 42.3333 66.1V63.3C43.8062 63.3 45 62.0463 45 60.5V32.5C45 30.9535 43.8062 29.7 42.3333 29.7ZM39.6667 60.5V32.5H42.3333V60.5H39.6667Z" fill="#7F96FF"></path><path d="M65 40.9C65 40.1268 64.3285 39.5 63.5 39.5C62.6715 39.5 62 40.1268 62 40.9V43.7C60.3431 43.7 59 44.9537 59 46.5V53.5C59 55.0465 60.3432 56.3 62 56.3V59.1C62 59.8732 62.6715 60.5 63.5 60.5C64.3285 60.5 65 59.8732 65 59.1V56.3C66.6569 56.3 68 55.0463 68 53.5V46.5C68 44.9535 66.6568 43.7 65 43.7V40.9ZM65 53.5002H62V46.5002H65V53.5002Z" fill="#7F96FF"></path></svg> 