<?xml version="1.0" encoding="UTF-8"?> <svg xmlns="http://www.w3.org/2000/svg" width="55" height="59" viewBox="0 0 55 59" fill="none"><path d="M24.1055 59V41.087L47.4962 12.6518C47.8526 12.61 47.9993 12.5892 47.9993 12.5892C49.5503 49.3546 24.1055 59 24.1055 59Z" fill="#40DCC8"></path><path d="M17.5448 22.0259L10.4605 28.3309L24.1051 41.0871V59C24.1051 59 -1.31875 49.3755 0.232248 12.5892C0.232248 12.5892 11.6132 14.5726 24.1051 4.53046V30.8571L17.5448 22.0259Z" fill="#1DB7C2"></path><path d="M34.1862 10.4179C31.1052 9.18613 27.7097 7.32803 24.2305 4.53043V30.857L42.1299 12.5265L54.3283 0L42.2137 9.31139C39.9291 11.0651 36.869 11.5035 34.1862 10.4388V10.4179Z" fill="#40DCC8"></path></svg> 