<?xml version="1.0" encoding="UTF-8"?> <svg xmlns="http://www.w3.org/2000/svg" width="93" height="93" viewBox="0 0 93 93" fill="none"><path fill-rule="evenodd" clip-rule="evenodd" d="M93 52.1768C91.9984 35.8884 79.5223 22.649 63.5716 20.4394V16.043H71.2469C73.35 16.043 75.0511 14.3395 75.0511 12.2422V8.32521C75.0511 6.22795 73.35 4.52435 71.2469 4.52435H46.4532C44.3503 4.52435 42.649 6.22795 42.649 8.32521V12.2424C42.649 14.3395 44.3501 16.0433 46.4532 16.0433H54.1285V20.4397C50.552 20.9361 47.1499 21.9867 44.0021 23.5017H28.5848C27.7007 23.5017 26.9909 24.2136 26.9909 25.0902C26.9909 25.9695 27.7009 26.6787 28.5848 26.6787H38.711C34.5988 29.6884 31.1697 33.5911 28.7317 38.1038H12.3936C11.5095 38.1038 10.7997 38.8157 10.7997 39.6923C10.7997 40.5701 11.5097 41.2795 12.3936 41.2795H27.2181C25.7581 44.8287 24.8606 48.6763 24.6732 52.7047H1.59389C0.709764 52.7047 0 53.4166 0 54.2932C0 55.171 0.710016 55.8816 1.59389 55.8816H24.6732C24.8606 59.9112 25.7581 63.7563 27.2181 67.3081H13.435C12.5642 67.3081 11.8411 68.0174 11.8411 68.8965C11.8411 69.7731 12.5644 70.485 13.435 70.485H28.7317C31.1695 74.995 34.5985 78.9002 38.711 81.9087H27.2181C26.334 81.9087 25.6242 82.618 25.6242 83.4974C25.6242 84.3739 26.3342 85.0858 27.2181 85.0858H44.0019C48.5025 87.2565 53.539 88.4757 58.8566 88.4757C77.008 88.4757 91.906 74.271 93 56.4005V52.1768ZM58.8566 23.2888C75.9616 23.2888 89.8789 37.1976 89.8789 54.2932C89.8789 71.3915 75.9616 85.3003 58.8566 85.3003C41.7382 85.3003 27.8209 71.3915 27.8209 54.2932C27.8209 37.1976 41.7382 23.2888 58.8566 23.2888ZM60.3971 16.043V20.1503H57.3163V16.043H60.3971ZM71.8764 12.2422C71.8764 12.5808 71.5951 12.8671 71.2469 12.8671H46.4532C46.1183 12.8671 45.8237 12.5808 45.8237 12.2422V8.32521C45.8237 7.9866 46.1183 7.70028 46.4532 7.70028H71.2469C71.5951 7.70028 71.8764 7.9866 71.8764 8.32521V12.2422Z" fill="#7F96FF"></path><path fill-rule="evenodd" clip-rule="evenodd" d="M47.2779 33.6798C47.2779 32.7626 48.0214 32.0191 48.9386 32.0191H68.6891C69.6063 32.0191 70.3498 32.7626 70.3498 33.6798C70.3498 38.2281 74.0302 41.9107 78.5645 41.9107C79.4817 41.9107 80.2252 42.6542 80.2252 43.5714C80.2252 51.1852 79.5993 58.9195 76.6594 65.378C73.6695 71.9465 68.3358 77.0864 59.2443 79.5265C58.9623 79.6022 58.6654 79.6022 58.3834 79.5265C52.6134 77.978 48.3241 75.332 45.187 71.8676C44.5713 71.1878 44.6234 70.1375 45.3032 69.5219C45.9831 68.9062 47.0333 68.9583 47.649 69.6381C50.2357 72.4947 53.8132 74.7859 58.8139 76.2C66.6761 73.9768 71.1027 69.5684 73.6364 64.002C76.0859 58.6208 76.807 52.0656 76.8943 45.112C71.8545 44.3802 67.8722 40.3861 67.1467 35.3406H50.481C49.7555 40.3862 45.7732 44.3802 40.7333 45.112C40.7884 49.5145 41.0972 53.7748 41.9498 57.6886C42.145 58.5848 41.5768 59.4695 40.6806 59.6648C39.7845 59.86 38.8997 59.2918 38.7045 58.3956C37.679 53.6883 37.4025 48.6156 37.4025 43.5714C37.4025 42.6542 38.1461 41.9107 39.0632 41.9107C43.5975 41.9107 47.2779 38.2282 47.2779 33.6798ZM52.9768 40.0957C53.2479 39.5068 53.837 39.1296 54.4853 39.1296H63.1426C63.7909 39.1296 64.3799 39.5068 64.651 40.0957C66.1584 43.3694 68.7848 46.0223 72.0361 47.5608C72.6481 47.8504 73.023 48.4825 72.9837 49.1584C72.6795 54.3912 71.763 60.2611 68.9814 64.7082C66.6188 68.4853 63.2338 70.7121 59.3597 72.0603C59.0063 72.1833 58.6216 72.1833 58.2682 72.0603C54.394 70.7123 51.0092 68.4854 48.6465 64.7083C45.8648 60.2611 44.9483 54.3912 44.6441 49.1584C44.6048 48.4825 44.9797 47.8504 45.5917 47.5608C48.8428 46.0224 51.4694 43.3694 52.9768 40.0957ZM55.5145 42.451C53.8099 45.6509 51.2023 48.2947 48.0315 50.0418C48.3888 54.7977 49.3071 59.5012 51.4624 62.9469C53.2303 65.7732 55.727 67.5571 58.8139 68.7252C61.9008 67.5569 64.3977 65.773 66.1655 62.9469C68.3207 59.5011 69.239 54.7977 69.5963 50.0418C66.4254 48.2946 63.818 45.6509 62.1133 42.451H55.5145ZM64.7197 51.4657C65.3688 52.1138 65.3696 53.1653 64.7216 53.8143L58.4117 60.1348C58.1001 60.4468 57.6773 60.6221 57.2364 60.6221C56.7955 60.6221 56.3726 60.4468 56.0611 60.1348L52.9061 56.9745C52.2581 56.3255 52.259 55.274 52.9081 54.6259C53.5572 53.9779 54.6087 53.9788 55.2567 54.6279L57.2364 56.6109L62.3711 51.4677C63.0191 50.8186 64.0706 50.8177 64.7197 51.4657ZM40.8695 64.8027C40.8695 63.8855 41.6131 63.142 42.5302 63.142H42.5315C43.4487 63.142 44.1922 63.8855 44.1922 64.8027C44.1922 65.7199 43.4487 66.4634 42.5315 66.4634H42.5302C41.6131 66.4634 40.8695 65.7199 40.8695 64.8027Z" fill="#7F96FF"></path></svg> 