<?xml version="1.0" encoding="UTF-8"?> <svg xmlns="http://www.w3.org/2000/svg" width="82" height="82" viewBox="0 0 82 82" fill="none"><g id="money 1"><g id="Group"><g id="Group_2"><path id="Vector" d="M55.5358 52.182C61.231 52.182 65.8479 50.4577 65.8479 48.3305C65.8479 46.2034 61.231 44.479 55.5358 44.479C49.8405 44.479 45.2236 46.2034 45.2236 48.3305C45.2236 50.4577 49.8405 52.182 55.5358 52.182Z" stroke="#7F96FF" stroke-width="2" stroke-miterlimit="10" stroke-linecap="round" stroke-linejoin="round"></path><path id="Vector_2" d="M65.8479 48.3306V66.8427C65.8479 68.9548 61.2509 70.6942 55.5358 70.6942C49.8206 70.6942 45.2236 68.9548 45.2236 66.8427V48.3306C45.2236 50.4427 49.8206 52.1821 55.5358 52.1821C61.2509 52.1821 65.8479 50.4427 65.8479 48.3306Z" stroke="#7F96FF" stroke-width="2" stroke-miterlimit="10" stroke-linecap="round" stroke-linejoin="round"></path><path id="Vector_3" d="M79.5143 54.5427C79.5143 56.6548 74.9174 58.3942 69.2022 58.3942C67.9598 58.3942 66.8416 58.27 65.8477 58.1457V50.9396C66.9658 50.8154 68.084 50.6912 69.2022 50.6912C74.9174 50.6912 79.5143 52.4306 79.5143 54.5427Z" stroke="#7F96FF" stroke-width="2" stroke-miterlimit="10" stroke-linecap="round" stroke-linejoin="round"></path><path id="Vector_4" d="M79.5146 54.5427V66.8427C79.5146 68.9548 74.9176 70.6942 69.2025 70.6942C66.5934 70.6942 64.2328 70.3215 62.3691 69.7003C64.4813 68.9548 65.8479 67.9609 65.8479 66.8427V58.1458C66.9661 58.27 68.0843 58.3942 69.2025 58.3942C74.9176 58.3942 79.5146 56.6548 79.5146 54.5427Z" stroke="#7F96FF" stroke-width="2" stroke-miterlimit="10" stroke-linecap="round" stroke-linejoin="round"></path><path id="Vector_5" d="M65.8479 54.5427C65.8479 56.6548 61.2509 58.3942 55.5358 58.3942C49.8206 58.3942 45.2236 56.6548 45.2236 54.5427" stroke="#7F96FF" stroke-width="2" stroke-miterlimit="10" stroke-linecap="round" stroke-linejoin="round"></path><path id="Vector_6" d="M65.8479 60.7549C65.8479 62.867 61.2509 64.6064 55.5358 64.6064C49.8206 64.6064 45.2236 62.867 45.2236 60.7549" stroke="#7F96FF" stroke-width="2" stroke-miterlimit="10" stroke-linecap="round" stroke-linejoin="round"></path><path id="Vector_7" d="M79.5141 60.7549C79.5141 62.867 74.9171 64.6064 69.202 64.6064C68.0838 64.6064 67.0899 64.4822 65.9717 64.4822" stroke="#7F96FF" stroke-width="2" stroke-miterlimit="10" stroke-linecap="round" stroke-linejoin="round"></path></g><path id="Vector_8" d="M65.8479 48.3305C65.8479 46.2184 61.2509 44.479 55.5358 44.479C49.8206 44.479 45.2236 46.2184 45.2236 48.3305V66.8426C45.2236 68.9548 49.8206 70.6942 55.5358 70.6942C58.1448 70.6942 60.5055 70.3214 62.3691 69.7002C64.2327 70.3214 66.5933 70.6942 69.2024 70.6942C74.9176 70.6942 79.5145 68.9548 79.5145 66.8426V54.5426C79.5145 52.4305 74.9176 50.6911 69.2024 50.6911C68.0842 50.6911 66.9661 50.8154 65.8479 50.9396V48.3305ZM65.8479 48.3305C65.8479 48.8275 65.5994 49.2002 65.2267 49.6972C65.5994 49.3245 65.8479 48.8275 65.8479 48.3305Z" stroke="#7F96FF" stroke-width="2" stroke-miterlimit="10" stroke-linecap="round" stroke-linejoin="round"></path><path id="Vector_9" d="M79.5151 60.7546C79.5151 62.8668 74.9181 64.6062 69.203 64.6062C68.0848 64.6062 67.0908 64.4819 65.9727 64.4819" stroke="#7F96FF" stroke-width="2" stroke-miterlimit="10" stroke-linecap="round" stroke-linejoin="round"></path><path id="Vector_10" d="M44.1056 38.6394L48.3298 41L28.451 52.5545L27.9541 52.803L27.3329 52.6788L3.10559 38.6394L2.48438 38.2667L22.8601 26.4636L27.0844 28.8242L44.1056 38.6394Z" stroke="#7F96FF" stroke-width="2" stroke-miterlimit="10" stroke-linecap="round" stroke-linejoin="round"></path><path id="Vector_11" d="M74.4211 25.9668L57.5242 35.7819L53.4242 33.2971L36.403 23.4819L32.1787 21.1213L38.8878 17.2698L48.4545 11.5546L48.9514 11.3062L49.4484 11.6789L73.6757 25.7183L74.4211 25.9668Z" stroke="#7F96FF" stroke-width="2" stroke-miterlimit="10" stroke-linecap="round" stroke-linejoin="round"></path><path id="Vector_12" d="M44.1061 38.6394L28.9485 47.4606C28.203 47.0879 27.3333 47.0879 26.5879 47.4606L13.2939 39.7576C14.4121 39.1364 14.4121 37.5212 13.2939 36.9L27.0849 28.9485L44.1061 38.6394Z" stroke="#7F96FF" stroke-width="2" stroke-miterlimit="10" stroke-linecap="round" stroke-linejoin="round"></path><path id="Vector_13" d="M63.363 27.4576L53.4236 33.2969L36.4023 23.4818L47.9569 16.7727C48.7023 17.1454 49.572 17.1454 50.3175 16.7727L63.363 24.3515C62.2448 25.0969 62.2448 26.8363 63.363 27.4576Z" stroke="#7F96FF" stroke-width="2" stroke-miterlimit="10" stroke-linecap="round" stroke-linejoin="round"></path><path id="Vector_14" d="M57.524 35.7819L51.1876 39.5092L48.3301 41.1244L44.1058 38.6395L27.0846 28.8244L22.8604 26.4638L32.1785 21.1213L36.2785 23.4819L53.424 33.2971L57.524 35.7819Z" stroke="#7F96FF" stroke-width="2" stroke-miterlimit="10" stroke-linecap="round" stroke-linejoin="round"></path><path id="Vector_15" d="M52.306 22.8606C50.9393 22.1152 48.703 22.1152 47.4605 22.8606C46.0939 23.6061 46.0939 24.9727 47.4605 25.7182C48.8272 26.4636 51.0636 26.4636 52.306 25.7182C53.6727 24.8485 53.6727 23.6061 52.306 22.8606Z" stroke="#7F96FF" stroke-width="2" stroke-miterlimit="10" stroke-linecap="round" stroke-linejoin="round"></path><path id="Vector_16" d="M29.1966 36.7759C27.83 36.0304 25.5936 36.0304 24.3512 36.7759C22.9845 37.5213 22.9845 38.888 24.3512 39.6335C25.7178 40.3789 27.9542 40.3789 29.1966 39.6335C30.439 38.888 30.5633 37.5213 29.1966 36.7759Z" stroke="#7F96FF" stroke-width="2" stroke-miterlimit="10" stroke-linecap="round" stroke-linejoin="round"></path><path id="Vector_17" d="M2.48438 38.2668V44.2305V44.3547L27.8298 59.0153L41.248 51.1881" stroke="#7F96FF" stroke-width="2" stroke-miterlimit="10" stroke-linecap="round" stroke-linejoin="round"></path><path id="Vector_18" d="M59.3877 40.7516L74.421 32.0547V31.8062V25.9668" stroke="#7F96FF" stroke-width="2" stroke-miterlimit="10" stroke-linecap="round" stroke-linejoin="round"></path><path id="Vector_19" d="M2.48438 44.2305V44.3547V50.1941L27.8298 64.8547L41.3723 57.0274" stroke="#7F96FF" stroke-width="2" stroke-miterlimit="10" stroke-linecap="round" stroke-linejoin="round"></path><path id="Vector_20" d="M65.9727 42.7395L74.4211 37.894V32.0546V31.8062" stroke="#7F96FF" stroke-width="2" stroke-miterlimit="10" stroke-linecap="round" stroke-linejoin="round"></path><path id="Vector_21" d="M2.48438 50.0698V56.0335L27.8298 70.6941L41.4965 62.8668" stroke="#7F96FF" stroke-width="2" stroke-miterlimit="10" stroke-linecap="round" stroke-linejoin="round"></path><path id="Vector_22" d="M74.4211 37.6455V43.7334L69.3271 46.7152" stroke="#7F96FF" stroke-width="2" stroke-miterlimit="10" stroke-linecap="round" stroke-linejoin="round"></path><path id="Vector_23" d="M48.3301 41.7456V41.1244L57.524 35.782V40.8759" stroke="#7F96FF" stroke-width="2" stroke-miterlimit="10" stroke-linecap="round" stroke-linejoin="round"></path></g></g></svg> 