<?xml version="1.0" encoding="UTF-8"?> <svg xmlns="http://www.w3.org/2000/svg" width="82" height="82" viewBox="0 0 82 82" fill="none"><g id="moon 1" clip-path="url(#clip0_1248_13369)"><g id="Group"><g id="Group_2"><path id="Vector" d="M32.0494 60.4395L37.1402 55.8453L37.1403 51.1269C40.8653 48.8919 46.2045 45.5393 51.1713 42.0626L46.7012 62.6745L36.7677 65.1579L32.0494 60.4395Z" stroke="#7F96FF" stroke-width="2" stroke-miterlimit="10"></path><path id="Vector_2" d="M12.6787 41.0693L7.96027 36.3509L10.4436 26.4175L31.1797 22.0716C27.5788 26.9141 24.3505 32.3775 22.1154 36.1026L17.3971 36.1026L12.6787 41.0693Z" stroke="#7F96FF" stroke-width="2" stroke-miterlimit="10"></path></g><path id="Vector_3" d="M19.5067 40.4485C19.5067 40.4485 30.061 21.6991 37.8836 13.8765C51.2938 0.46636 67.5598 5.55725 67.5598 5.55725C67.5598 5.55725 72.6507 21.8233 59.2406 35.2335C51.418 43.056 32.6686 53.6103 32.6686 53.6103L19.5067 40.4485Z" stroke="#7F96FF" stroke-width="2" stroke-miterlimit="10"></path><path id="Vector_4" d="M46.7007 26.4172C44.1634 23.8799 44.1634 19.7661 46.7007 17.2288C49.238 14.6915 53.3519 14.6915 55.8892 17.2288C58.4265 19.7661 58.4265 23.8799 55.8892 26.4172C53.3519 28.9545 49.238 28.9545 46.7007 26.4172Z" stroke="#7F96FF" stroke-width="2" stroke-miterlimit="10"></path><path id="Vector_5" d="M13.7959 50.6302C11.3125 53.1135 9.45 63.9162 9.45 63.9162C9.45 63.9162 20.2526 62.0536 22.736 59.5703C25.2194 57.0869 25.2194 53.1135 22.736 50.6302C20.2526 48.1468 16.2793 48.1468 13.7959 50.6302Z" stroke="#7F96FF" stroke-width="2" stroke-miterlimit="10"></path><g id="Group_3"><g id="Group_4"><path id="Vector_6" d="M76.4497 37.6775C76.3495 37.7075 76.246 37.7397 76.1399 37.7744C75.1927 38.2509 74.2173 38.8083 73.3599 39.6657C72.5025 40.5231 71.945 41.4986 71.4686 42.4458C71.4392 42.5355 71.4116 42.6234 71.3857 42.7091C71.4925 42.6767 71.6027 42.6418 71.7157 42.6042C72.6227 42.3018 73.4859 41.678 74.429 40.7349C75.3059 39.8581 75.8689 38.8578 76.3526 37.8906C76.388 37.8198 76.4203 37.7486 76.4497 37.6775Z" fill="#010101" stroke="#7F96FF" stroke-width="2"></path></g><g id="Group_5"><path id="Vector_7" d="M71.5097 37.8153C71.542 37.9221 71.577 38.0324 71.6146 38.1454C71.917 39.0524 72.5407 39.9155 73.4839 40.8587C74.3607 41.7355 75.361 42.2986 76.3282 42.7822C76.399 42.8176 76.4702 42.8499 76.5412 42.8794C76.505 42.7582 76.4655 42.6323 76.4223 42.5029C76.12 41.5959 75.4962 40.7327 74.5531 39.7895C73.6956 38.9321 72.7202 38.3747 71.773 37.8982C71.6833 37.8689 71.5954 37.8413 71.5097 37.8153Z" fill="#010101" stroke="#7F96FF" stroke-width="2"></path></g></g><g id="Group_6"><g id="Group_7"><path id="Vector_8" d="M14.8907 8.71088L14.9004 8.69144L14.9109 8.67245C14.9449 8.61136 14.9758 8.5515 15.004 8.49303C14.8779 8.53053 14.7465 8.57169 14.6113 8.61676C13.7043 8.9191 12.8411 9.54288 11.898 10.486C11.0211 11.3629 10.4581 12.3631 9.97443 13.3304C9.93903 13.4012 9.90674 13.4724 9.8773 13.5434C9.99847 13.5072 10.1244 13.4676 10.2538 13.4245C11.1608 13.1221 12.024 12.4984 12.9671 11.5552C13.8439 10.6784 14.407 9.67812 14.8907 8.71088Z" fill="#010101" stroke="#7F96FF" stroke-width="2"></path></g><g id="Group_8"><path id="Vector_9" d="M10.1661 8.48963C10.2003 8.60329 10.2374 8.72098 10.2777 8.84177C10.58 9.74877 11.2038 10.6119 12.147 11.5551C13.0238 12.4319 14.0241 12.995 14.9913 13.4786C15.0621 13.514 15.1333 13.5463 15.2043 13.5758C15.1681 13.4546 15.1286 13.3287 15.0854 13.1993C14.7831 12.2923 14.1593 11.4291 13.2161 10.4859C12.3508 9.62057 11.3652 9.06079 10.4097 8.58139C10.3256 8.54819 10.2443 8.51767 10.1661 8.48963Z" fill="#010101" stroke="#7F96FF" stroke-width="2"></path></g></g><g id="Group_9"><g id="Group_10"><path id="Vector_10" d="M46.1465 74.3362C46.1759 74.2464 46.2035 74.1585 46.2294 74.0729C46.1226 74.1052 46.0123 74.1401 45.8994 74.1778C44.9924 74.4801 44.1292 75.1039 43.186 76.0471C42.3092 76.9239 41.7461 77.9241 41.2625 78.8914C41.2271 78.9622 41.1948 79.0334 41.1654 79.1044C41.2866 79.0682 41.4124 79.0287 41.5419 78.9855C42.4489 78.6832 43.312 78.0594 44.2552 77.1162C45.1126 76.2588 45.67 75.2834 46.1465 74.3362Z" fill="#010101" stroke="#7F96FF" stroke-width="2"></path></g><g id="Group_11"><path id="Vector_11" d="M41.2118 74.0729C41.2442 74.1797 41.2791 74.29 41.3168 74.4029C41.6191 75.3099 42.2429 76.1731 43.1861 77.1163C44.0629 77.9931 45.0631 78.5562 46.0304 79.0398C46.1012 79.0752 46.1724 79.1075 46.2434 79.1369C46.2072 79.0157 46.1676 78.8899 46.1245 78.7604C45.8222 77.8534 45.1984 76.9903 44.2552 76.0471C43.3978 75.1897 42.4223 74.6323 41.4752 74.1558C41.3854 74.1264 41.2975 74.0988 41.2118 74.0729Z" fill="#010101" stroke="#7F96FF" stroke-width="2"></path></g></g></g></g><defs><clipPath id="clip0_1248_13369"><rect width="82" height="82" fill="white" transform="matrix(-1 0 0 1 82 0)"></rect></clipPath></defs></svg> 