<?xml version="1.0" encoding="UTF-8"?> <svg xmlns="http://www.w3.org/2000/svg" width="398" height="274" viewBox="0 0 398 274" fill="none"><rect y="127" width="398" height="147" rx="10" fill="url(#paint0_linear_258_9868)"></rect><g clip-path="url(#clip0_258_9868)"><path d="M216.4 132.9L211 126.4L203.5 126.6C206.7 102.8 210.6 70.4 210 65.5C209 57.7 227.5 48.7 204.9 43.8L182.3 38.9L162.5 34.4V140.6L172.7 150.8C172.7 150.8 199.2 153.3 199.8 152C199.9 151.8 200.2 149.8 200.7 146.6L216.4 132.8V132.9Z" fill="url(#paint1_linear_258_9868)"></path><path d="M216.4 132.9L211 126.4L203.5 126.6C206.7 102.8 210.6 70.4 210 65.5C209 57.7 227.5 48.7 204.9 43.8L182.3 38.9L162.5 34.4V140.6L172.7 150.8C172.7 150.8 199.2 153.3 199.8 152C199.9 151.8 200.2 149.8 200.7 146.6L216.4 132.8V132.9Z" fill="url(#paint2_linear_258_9868)"></path><path d="M162.5 98.7H172.7V44.7L171.6 36.6L162.5 34.5V98.7Z" fill="url(#paint3_linear_258_9868)"></path><path d="M165.2 35.1L162.7 34.5L172.7 50.3V48L165.2 35.1Z" fill="url(#paint4_linear_258_9868)"></path><path d="M172.7 53.8L162.5 36.2V40L172.7 56.3V53.8Z" fill="url(#paint5_linear_258_9868)"></path><path d="M162.5 48.1V52C166 57.4 169.4 62.7 172.7 67.8V63.9C169.4 58.7 165.9 53.3 162.5 48.1Z" fill="url(#paint6_linear_258_9868)"></path><path d="M172.7 83.8L162.5 67V69.9L172.7 85.7V83.8Z" fill="url(#paint7_linear_258_9868)"></path><path d="M162.5 60.4V64.1C166 69.7 169.4 75.3 172.7 80.6V77.6C169.4 72 165.9 66.2 162.5 60.4Z" fill="url(#paint8_linear_258_9868)"></path><path style="mix-blend-mode:multiply" opacity="0.4" d="M202.3 47.3C201.6 45.7 201 44.2 200.5 42.9C188.3 40.3 182.3 38.9 182.3 38.9L181.6 38.7C181.6 38.7 180.8 61.3 172.9 65C169.1 64.8 165 64.4 162.6 64.2V82C165.8 82.8 169.7 83.1 174.6 82.6C189.8 80.9 193.3 93.2 199.8 78.4C206.3 63.6 208.7 61.7 202.5 47.1L202.3 47.3Z" fill="url(#paint9_linear_258_9868)"></path><path d="M210.9 20.2L183.2 21L162.5 34.5L172.7 44.7L195 45.5L216.4 26.7L210.9 20.2Z" fill="url(#paint10_linear_258_9868)"></path><path style="mix-blend-mode:multiply" opacity="0.4" d="M172.7 44.7L195 45.5L208.4 33.7C209.8 29.5 211.1 25.5 212.8 22.4L211 20.2L187.8 20.9C185.3 24.6 182 31.1 181.1 32.1C180.1 33.3 179.7 38.3 179.7 38.3C179.7 38.3 175.2 41.3 171.6 43.7L172.7 44.8V44.7Z" fill="url(#paint11_linear_258_9868)"></path><path d="M209.8 32.2001H182.3C182.3 32.2001 183.1 148.4 182.3 151.4L205.2 155.5L223.1 155.2L239.9 142.6V23.3L209.8 32.2001Z" fill="url(#paint12_linear_258_9868)"></path><g opacity="0.4"><path d="M239.9 30.5V23.3L230.3 26.1C227.1 38.6 223.8 51.7001 223.8 51.7001L230.3 34.9001L223.7 66.9001L233.8 32.8L220.5 94.1001L239.9 30.4V30.5Z" fill="url(#paint13_linear_258_9868)"></path><path d="M239.9 38.1L223.8 107.3L239.9 63.7V38.1Z" fill="url(#paint14_linear_258_9868)"></path></g><path d="M223.1 155.2V35.9C223.1 35.9 217.5 29.7 215.6 29.4C213.7 29.1 201.2 29.1 201.2 29.1L189.2 40.4L196.4 113.5L205.2 155.5L223.1 155.2Z" fill="url(#paint15_linear_258_9868)"></path><path d="M204.7 36.4L205.2 155.5L182.3 151.4V32.2L194.6 29.1L204.7 36.4Z" fill="url(#paint16_linear_258_9868)"></path><g opacity="0.3"><path d="M198.6 120.7C199 118.8 199.2 69.0001 199.2 32.5001L197.1 31.0001C197.5 67.1001 198.1 122.7 198.6 120.8V120.7Z" fill="url(#paint17_linear_258_9868)"></path><path d="M191.4 109C192.5 105.3 193.3 62.3 193.8 29.3L192 29.8C191.2 62.6 190.1 113.2 191.3 109.1L191.4 109Z" fill="url(#paint18_linear_258_9868)"></path><path d="M187.9 30.8L185.8 31.3L187.4 100.9L187.9 30.8Z" fill="url(#paint19_linear_258_9868)"></path><path d="M185.1 31.5001L183.2 32.0001L184.5 87.4001L185.1 31.5001Z" fill="url(#paint20_linear_258_9868)"></path><path d="M200.4 33.3L200.9 120.2L202.7 34.9001L200.4 33.3Z" fill="url(#paint21_linear_258_9868)"></path></g><path style="mix-blend-mode:multiply" opacity="0.4" d="M239.9 89.3L222.5 88.4L203.7 86.3L199.2 72.7C199.2 72.7 187.9 63.8 186.9 63.8C185.9 63.8 184.3 63.5 182.5 63.2C182.5 81.2 182.7 103.8 182.7 121.5C194.2 122.2 210.5 120.9 229.9 121C233.8 121 237.1 120.8 240 120.3V89.1L239.9 89.3Z" fill="url(#paint22_linear_258_9868)"></path><path d="M191.9 16.1V30.2C191.9 30.2 198 29.1 198.4 27.4C198.9 25.7 199 19.4 197.8 18.4C196.7 17.4 195.9 16.2 195 16.2C194.1 16.2 191.8 16.1 191.8 16.1H191.9Z" fill="url(#paint23_linear_258_9868)"></path><path d="M204.4 13.4L191.9 16.1L194.3 21.2L182.3 32.1L205.2 36.2L223.1 35.9L239.9 23.3C239.9 23.3 229.2 13.7 227.1 13.7C225 13.7 204.4 13.4 204.4 13.4Z" fill="url(#paint24_linear_258_9868)"></path><path d="M191.9 16.1L204 19.4L206.2 23.5L217.3 28.4L222.8 36.6L218.8 28.1L207 22.9L204.1 18.1L191.9 16.1Z" fill="url(#paint25_linear_258_9868)"></path><path d="M194.9 143.6L196.1 75.8L182.6 79.4L154 77.4V147.2L158.9 155.4L174 158.7H185.9L194.9 153.8L196.1 144.4L194.9 143.6Z" fill="url(#paint26_linear_258_9868)"></path><path d="M185.9 88.9L185.3 157.2L173 157.6C173 157.6 163.7 98.1 165.2 95.9C166.8 93.7 164.3 77.9 169.9 77.7C175.5 77.5 178.3 75.7 181.2 77.7C184.1 79.7 185.9 88.9 185.9 88.9Z" fill="url(#paint27_linear_258_9868)"></path><path d="M174 88.8L173.6 157.4C173.6 157.4 170.5 157.2 168.3 157.2C166.1 157.2 158.9 155.4 158.9 155.4L159.4 81.2L174.3 78.8L174.1 88.8H174Z" fill="url(#paint28_linear_258_9868)"></path><path d="M168.1 79.8C167.9 103.4 167.7 138.9 167.7 157.1C167.9 157.1 168.1 157.1 168.3 157.1C168.8 139.7 169.4 106.2 169.9 79.4L168.1 79.7V79.8Z" fill="url(#paint29_linear_258_9868)"></path><path d="M162.6 107L162.2 80.8L161.1 81L160.4 155.8C160.4 155.8 160.5 155.8 160.6 155.8L162.5 106.9L162.6 107Z" fill="url(#paint30_linear_258_9868)"></path><path d="M167.3 80L166 80.2C165.5 92.3 163.7 138.2 163.2 156.4C163.3 156.4 163.5 156.4 163.6 156.4C164.5 140.8 166.1 104.1 167.2 79.9L167.3 80Z" fill="url(#paint31_linear_258_9868)"></path><path d="M159.8 102.9C160 102 159 82.9 159.8 81.8C160.6 81.5 173.8 83.3 173.8 83.3C173.8 83.3 173.5 103.4 173.5 104.1C173.5 104.8 160 102.9 160 102.9H159.8Z" fill="url(#paint32_linear_258_9868)"></path><path d="M243.8 155.6V98.7C243.8 98.7 218.8 93.5 217.9 93.7C217 93.9 198.3 97.6 198.3 97.6V161.2C198.2 161.2 205.3 164 205.3 164L234.6 162.8L240.5 163.1C240.5 163.1 244 156.8 244 156.2C244 155.6 244 155.9 243.9 155.7L243.8 155.6Z" fill="url(#paint33_linear_258_9868)"></path><path opacity="0.3" d="M239.1 163H239.8C238.4 146.9 235.9 120.3 233.7 96.9C234 96.9 234.2 96.9 234.5 96.8C227.3 95.3 218.4 93.6 217.9 93.7C217.2 93.9 205.4 96.2 200.4 97.2C201.4 104.4 211.3 98.5 225 97.7L231.8 162.9H232.1L228.7 117.1L226.2 97.7C227.4 97.7 228.5 97.6 229.5 97.5C230.7 114 233.1 146 234.5 162.8H235C234.1 147.6 232.2 119.3 230.7 97.3C231.1 97.3 231.4 97.3 231.8 97.2C234.1 118.6 237 146.2 238.9 163H239.1Z" fill="url(#paint34_linear_258_9868)"></path><path d="M240.4 105.2V108.3L240.5 163L244 156.1L243.8 98.7L240.4 105.2Z" fill="url(#paint35_linear_258_9868)"></path><path d="M223.7 103.1C223.7 103.1 227.8 162.7 226.8 162.9C225.8 163.1 210.6 163.9 210.6 163.9C210.6 163.9 201.9 152.1 201.5 147.3C201.1 142.5 201.5 129.7 202.2 122.2C202.9 114.7 201.2 97.9 202.2 96.6C203.2 95.3 206.3 93.3 209.7 93.3C213.1 93.3 212.3 94 216.4 94.8C220.5 95.7 223.7 103 223.7 103V103.1Z" fill="url(#paint36_linear_258_9868)"></path><path d="M205.5 101.3V139.1C205.5 139.1 196.5 142.7 197.1 137.9C197.6 133.1 198 124.2 198 123.7C198 123.2 198.5 97.5 198.5 97.5L205.6 101.2L205.5 101.3Z" fill="url(#paint37_linear_258_9868)"></path><path style="mix-blend-mode:multiply" opacity="0.4" d="M158.9 155.4L174 158.7H185.9L194.9 153.8L196.1 144.4L194.9 143.6L195.3 120.2L185.4 125.8L173.6 126.4C173.6 126.4 162.9 130.5 161.9 132.5C160.9 134.5 160.7 150.7 159.9 152.3C159.6 152.9 158.6 153.1 157.5 153.1L158.9 155.4Z" fill="url(#paint38_linear_258_9868)"></path><path d="M201.8 93.7L198.3 97.6L205.4 101.3L234.5 104L240.3 105.1C240.3 105.1 243.8 99.3 243.8 98.6C243.8 97.9 241.2 91.5 240.3 91.5C239.4 91.5 219 91.3 217.7 91.3C216.4 91.3 203.3 89.4 203.3 89.4C203.3 89.4 201.6 93.9 201.8 93.7Z" fill="url(#paint39_linear_258_9868)"></path><path d="M240.4 102.5L235.6 100.8L222 98.7L210.6 94.3L214.6 95.6L220.3 97.2L221.6 96.6L222.9 94.7L222.4 96.2L221.7 97.6L222 98.3C222 98.3 228.7 99.4 228.8 99.3C228.9 99.2 230.6 98.4 230.6 98.4L230.4 96.9L227.3 96L225.9 97.3L227 95.6H228.7C228.7 95.7 228.4 93.1 228.4 93.1L229.2 93.8V95.9L231.3 96.6C231.3 96.6 230.8 98.3 230.9 98.5C231 98.7 229.4 99.6 229.4 99.6C229.4 99.6 235.3 100.6 235.7 100.6C236 100.6 241.2 102.3 241.2 102.3L240.4 102.7V102.5Z" fill="url(#paint40_linear_258_9868)"></path><path d="M240.4 102.5L235.5 102.1L206.1 99.6L198.9 97.7L205.6 101.2L234.7 103.9L240.5 105C240.5 105 243.7 99.6 243.9 98.6C242.9 100.5 240.5 102.4 240.5 102.4L240.4 102.5Z" fill="url(#paint41_linear_258_9868)"></path><path d="M186.3 72L165.1 72.9L154 77.4L158.9 82.1L174 84H185.9L194.9 81.2L196.1 75.7L186.3 72Z" fill="url(#paint42_linear_258_9868)"></path><path d="M194.9 79.6L185.9 82.5H174L158.9 80.6L154.1 77.4H154L158.9 82.1L174 84H185.9L194.9 81.2L196.1 75.8L194.9 79.6Z" fill="url(#paint43_linear_258_9868)"></path><path style="mix-blend-mode:multiply" opacity="0.4" d="M240.2 159.5C239.6 159.6 226.6 156.6 226.6 156.6C226.6 156.6 215.8 124.1 215.3 124.1C214.8 124.1 205.4 122.1 205.4 122.1L198.4 120.7V161.3L205.5 164.1L234.8 162.9L240.7 163.2C240.7 163.2 244.2 156.9 244.2 156.3C243.2 156.3 241 159.5 240.4 159.7L240.2 159.5Z" fill="url(#paint44_linear_258_9868)"></path><path d="M215.6 131.7L202.3 129.5L180.1 131.9L163 135.7V165.3L170.2 168.1L185.5 169.8L197.5 170L202.7 168.9L211.1 166.3L215.6 163.4V131.7Z" fill="url(#paint45_linear_258_9868)"></path><path d="M210.2 130.8L208.7 130.6L209.1 131.7C209.7 131.4 210.1 131.1 210.2 130.8Z" fill="url(#paint46_linear_258_9868)"></path><path d="M209.1 131.6C208.4 131.9 207.3 132.2 205.8 132.4C197.1 133.5 200.6 134.5 196.5 137C192.4 139.5 196 143.2 194.9 143.6C193.8 144 194.2 152.9 191.2 163.4C190.3 166.5 190.2 168.5 190.4 169.9H197.5C197.5 170 202.7 168.9 202.7 168.9L211.1 166.3V136.8L209.1 131.6Z" fill="url(#paint47_linear_258_9868)"></path><path d="M197.5 170C197.8 169.3 197.5 140.5 197.5 140.5L186 136.5C186 136.5 182.4 135.8 182.4 138.1C182.4 140.4 183.1 155.6 182.9 157.2C182.7 158.8 185.5 169.8 185.5 169.8L197.6 170H197.5Z" fill="url(#paint48_linear_258_9868)"></path><path d="M196.5 139.8C194 139.7 185.8 139.7 185.8 139.7C185.8 140 185.6 149.1 185.8 149.9C186 150.7 194.3 151.8 196.5 151.1V139.8Z" fill="url(#paint49_linear_258_9868)"></path><path d="M170.2 138.5L185.5 140.2V169.7C185.5 169.7 170.3 168.7 170.2 168C170.1 167.2 163.6 148.1 164.2 146.9C164.8 145.6 170.2 138.5 170.2 138.5Z" fill="url(#paint50_linear_258_9868)"></path><path d="M185.5 144.4V140.3L184.1 140.1C179 142.8 174.4 145.3 174.4 145.3L184.3 142.2L170.1 151.3L185.4 144.4H185.5Z" fill="url(#paint51_linear_258_9868)"></path><path d="M166.8 157.5L185.4 149.3V144.7L166.5 156.4C166.6 156.7 166.7 157.1 166.8 157.4V157.5Z" fill="url(#paint52_linear_258_9868)"></path><path d="M185.5 157.7V152.4L168.4 162.4C168.6 163.1 168.9 163.8 169.1 164.4L185.6 157.8L185.5 157.7Z" fill="url(#paint53_linear_258_9868)"></path><path d="M170.2 138.5V168.1L163 165.3V135.7L171.9 133.9L170.2 138.5Z" fill="url(#paint54_linear_258_9868)"></path><path d="M173 127.6L165.2 130.8L163 135.7L170.2 138.5L185.5 140.3L197.5 140.5L202.7 139.4L211.1 136.8L215.6 131.7L213.9 125.4L198.8 123L195.1 123.3L188.9 126.5L173 127.6Z" fill="url(#paint55_linear_258_9868)"></path><path d="M169.8 137.1L187.4 134.6L202.2 136.1L188 133.9L183.9 130.7L177.8 132.7L183.5 131.6C183.5 131.6 187.3 133.3 186.2 133.6C185.1 134 167.4 136.8 167.4 136.8L169.9 137L169.8 137.1Z" fill="url(#paint56_linear_258_9868)"></path><path d="M211.1 135.4L202.7 138L197.5 139.1L185.5 138.8L170.2 137.1L163.2 135.5L163 135.7L170.2 138.5L185.5 140.3L197.5 140.5L202.7 139.4L211.1 136.8L215.6 131.7V131.6L211.1 135.4Z" fill="url(#paint57_linear_258_9868)"></path><path d="M158.9 85.5V155.4L154 147.2V77.4L158.9 85.5Z" fill="url(#paint58_linear_258_9868)"></path><path d="M222.9 56.4C222.7 55.5 223.6 37.6 222.9 36.5C222.2 35.4 204.8 36.4 204.8 36.4C204.8 36.4 205.2 56.5 205.2 57.2C205.2 57.9 223 56.4 223 56.4H222.9Z" fill="url(#paint59_linear_258_9868)"></path><path d="M182.3 32.2001C182.3 32.2001 202.8 34.7 204.2 34.8C205.6 34.8 221.4 34.8 222.5 34.3C223.6 33.8 239.9 23.3 239.9 23.3C239.9 23.3 223.7 36.4 222.8 36.6C221.9 36.8 205.3 36.8 204.3 36.8C203.3 36.8 182 32.3 182 32.3H182.3V32.2001Z" fill="url(#paint60_linear_258_9868)"></path></g><defs><linearGradient id="paint0_linear_258_9868" x1="199" y1="127" x2="199" y2="274" gradientUnits="userSpaceOnUse"><stop stop-color="#60D2D3"></stop><stop offset="1" stop-color="#3A96D3"></stop></linearGradient><linearGradient id="paint1_linear_258_9868" x1="189.4" y1="64" x2="189.4" y2="147.9" gradientUnits="userSpaceOnUse"><stop stop-color="#60D2D3"></stop><stop offset="1" stop-color="#4FAADF"></stop></linearGradient><linearGradient id="paint2_linear_258_9868" x1="189.4" y1="64" x2="189.4" y2="147.9" gradientUnits="userSpaceOnUse"><stop stop-color="#60D2D3"></stop><stop offset="1" stop-color="#4FAADF"></stop></linearGradient><linearGradient id="paint3_linear_258_9868" x1="167.5" y1="24.5" x2="167.5" y2="105.3" gradientUnits="userSpaceOnUse"><stop stop-color="#60D2D3"></stop><stop offset="1" stop-color="#4FAADF"></stop></linearGradient><linearGradient id="paint4_linear_258_9868" x1="208.7" y1="82.5" x2="156.1" y2="29.9" gradientUnits="userSpaceOnUse"><stop stop-color="white"></stop><stop offset="1" stop-color="#DFDFDF"></stop></linearGradient><linearGradient id="paint5_linear_258_9868" x1="206.2" y1="84.9" x2="153.6" y2="32.3" gradientUnits="userSpaceOnUse"><stop stop-color="white"></stop><stop offset="1" stop-color="#DFDFDF"></stop></linearGradient><linearGradient id="paint6_linear_258_9868" x1="200.4" y1="90.8" x2="147.8" y2="38.2" gradientUnits="userSpaceOnUse"><stop stop-color="white"></stop><stop offset="1" stop-color="#DFDFDF"></stop></linearGradient><linearGradient id="paint7_linear_258_9868" x1="191.2" y1="100" x2="138.6" y2="47.4" gradientUnits="userSpaceOnUse"><stop stop-color="white"></stop><stop offset="1" stop-color="#DFDFDF"></stop></linearGradient><linearGradient id="paint8_linear_258_9868" x1="194.1" y1="97.1" x2="141.5" y2="44.4" gradientUnits="userSpaceOnUse"><stop stop-color="white"></stop><stop offset="1" stop-color="#DFDFDF"></stop></linearGradient><linearGradient id="paint9_linear_258_9868" x1="184.2" y1="38.9" x2="184.2" y2="21.9" gradientUnits="userSpaceOnUse"><stop stop-color="#60D2D3"></stop><stop offset="1" stop-color="#4FAADF"></stop></linearGradient><linearGradient id="paint10_linear_258_9868" x1="189.4" y1="26.5" x2="189.4" y2="44.5" gradientUnits="userSpaceOnUse"><stop stop-color="#60D2D3"></stop><stop offset="1" stop-color="#4FAADF"></stop></linearGradient><linearGradient id="paint11_linear_258_9868" x1="192.1" y1="26.5" x2="192.1" y2="44.5" gradientUnits="userSpaceOnUse"><stop stop-color="#60D2D3"></stop><stop offset="1" stop-color="#4FAADF"></stop></linearGradient><linearGradient id="paint12_linear_258_9868" x1="211.1" y1="56.4" x2="211.1" y2="150.4" gradientUnits="userSpaceOnUse"><stop stop-color="#60D2D3"></stop><stop offset="1" stop-color="#4FAADF"></stop></linearGradient><linearGradient id="paint13_linear_258_9868" x1="249.6" y1="9.10005" x2="221.7" y2="67.9001" gradientUnits="userSpaceOnUse"><stop stop-color="white"></stop><stop offset="1" stop-color="white"></stop></linearGradient><linearGradient id="paint14_linear_258_9868" x1="259.7" y1="13.9" x2="231.8" y2="72.8" gradientUnits="userSpaceOnUse"><stop stop-color="white"></stop><stop offset="1" stop-color="white"></stop></linearGradient><linearGradient id="paint15_linear_258_9868" x1="206.1" y1="-8.49996" x2="206.1" y2="113.2" gradientUnits="userSpaceOnUse"><stop stop-color="#60D2D3"></stop><stop offset="1" stop-color="#4FAADF"></stop></linearGradient><linearGradient id="paint16_linear_258_9868" x1="193.7" y1="29.5" x2="193.7" y2="-16.1" gradientUnits="userSpaceOnUse"><stop stop-color="#60D2D3"></stop><stop offset="1" stop-color="#4FAADF"></stop></linearGradient><linearGradient id="paint17_linear_258_9868" x1="198.2" y1="1.80006" x2="198.2" y2="99.5001" gradientUnits="userSpaceOnUse"><stop stop-color="white"></stop><stop offset="1" stop-color="#DFDFDF"></stop></linearGradient><linearGradient id="paint18_linear_258_9868" x1="192.3" y1="1.80005" x2="192.3" y2="99.5" gradientUnits="userSpaceOnUse"><stop stop-color="white"></stop><stop offset="1" stop-color="#DFDFDF"></stop></linearGradient><linearGradient id="paint19_linear_258_9868" x1="186.8" y1="1.80005" x2="186.8" y2="99.5001" gradientUnits="userSpaceOnUse"><stop stop-color="white"></stop><stop offset="1" stop-color="#DFDFDF"></stop></linearGradient><linearGradient id="paint20_linear_258_9868" x1="184.1" y1="1.80006" x2="184.1" y2="99.5001" gradientUnits="userSpaceOnUse"><stop stop-color="white"></stop><stop offset="1" stop-color="#DFDFDF"></stop></linearGradient><linearGradient id="paint21_linear_258_9868" x1="201.5" y1="1.80005" x2="201.5" y2="99.5" gradientUnits="userSpaceOnUse"><stop stop-color="white"></stop><stop offset="1" stop-color="#DFDFDF"></stop></linearGradient><linearGradient id="paint22_linear_258_9868" x1="211.2" y1="156.4" x2="211.2" y2="24.6" gradientUnits="userSpaceOnUse"><stop stop-color="#60D2D3"></stop><stop offset="1" stop-color="#4FAADF"></stop></linearGradient><linearGradient id="paint23_linear_258_9868" x1="195.3" y1="33.9" x2="195.3" y2="12.4" gradientUnits="userSpaceOnUse"><stop stop-color="#60D2D3"></stop><stop offset="1" stop-color="#3E86B0"></stop></linearGradient><linearGradient id="paint24_linear_258_9868" x1="211.1" y1="19.1" x2="211.1" y2="35.4" gradientUnits="userSpaceOnUse"><stop stop-color="#60D2D3"></stop><stop offset="1" stop-color="#4FAADF"></stop></linearGradient><linearGradient id="paint25_linear_258_9868" x1="249.5" y1="63" x2="181.9" y2="0.40003" gradientUnits="userSpaceOnUse"><stop stop-color="white"></stop><stop offset="1" stop-color="white"></stop></linearGradient><linearGradient id="paint26_linear_258_9868" x1="175" y1="96.5" x2="175" y2="155.5" gradientUnits="userSpaceOnUse"><stop stop-color="#60D2D3"></stop><stop offset="1" stop-color="#4FAADF"></stop></linearGradient><linearGradient id="paint27_linear_258_9868" x1="175.4" y1="95.9" x2="175.4" y2="147.4" gradientUnits="userSpaceOnUse"><stop stop-color="#60D2D3"></stop><stop offset="1" stop-color="#3E86B0"></stop></linearGradient><linearGradient id="paint28_linear_258_9868" x1="166.6" y1="121.7" x2="166.6" y2="192.1" gradientUnits="userSpaceOnUse"><stop stop-color="#65DDDE"></stop><stop offset="1" stop-color="#4FAADF"></stop></linearGradient><linearGradient id="paint29_linear_258_9868" x1="218.9" y1="67.8" x2="153" y2="133.7" gradientUnits="userSpaceOnUse"><stop stop-color="white"></stop><stop offset="1" stop-color="white"></stop></linearGradient><linearGradient id="paint30_linear_258_9868" x1="215.2" y1="64.1" x2="149.3" y2="130" gradientUnits="userSpaceOnUse"><stop stop-color="white"></stop><stop offset="1" stop-color="white"></stop></linearGradient><linearGradient id="paint31_linear_258_9868" x1="217.1" y1="66" x2="151.2" y2="131.9" gradientUnits="userSpaceOnUse"><stop stop-color="white"></stop><stop offset="1" stop-color="white"></stop></linearGradient><linearGradient id="paint32_linear_258_9868" x1="166.6" y1="70" x2="166.6" y2="100.5" gradientUnits="userSpaceOnUse"><stop stop-color="white"></stop><stop offset="1" stop-color="white"></stop></linearGradient><linearGradient id="paint33_linear_258_9868" x1="221.1" y1="111.3" x2="221.1" y2="161.3" gradientUnits="userSpaceOnUse"><stop stop-color="#60D2D3"></stop><stop offset="1" stop-color="#4FAADF"></stop></linearGradient><linearGradient id="paint34_linear_258_9868" x1="278.7" y1="71.5" x2="157.3" y2="192.9" gradientUnits="userSpaceOnUse"><stop stop-color="white"></stop><stop offset="1" stop-color="white"></stop></linearGradient><linearGradient id="paint35_linear_258_9868" x1="307.1" y1="130.9" x2="294.6" y2="130.9" gradientUnits="userSpaceOnUse"><stop stop-color="#60D2D3"></stop><stop offset="1" stop-color="#4FAADF"></stop></linearGradient><linearGradient id="paint36_linear_258_9868" x1="214.1" y1="86.5" x2="214.1" y2="145.6" gradientUnits="userSpaceOnUse"><stop stop-color="#60D2D3"></stop><stop offset="1" stop-color="#4FAADF"></stop></linearGradient><linearGradient id="paint37_linear_258_9868" x1="201.2" y1="105.7" x2="201.2" y2="125" gradientUnits="userSpaceOnUse"><stop stop-color="#60D2D3"></stop><stop offset="1" stop-color="#4FAADF"></stop></linearGradient><linearGradient id="paint38_linear_258_9868" x1="201.9" y1="93.7" x2="173" y2="154.5" gradientUnits="userSpaceOnUse"><stop stop-color="#60D2D3"></stop><stop offset="1" stop-color="#4FAADF"></stop></linearGradient><linearGradient id="paint39_linear_258_9868" x1="233.5" y1="91.5" x2="203.2" y2="106.6" gradientUnits="userSpaceOnUse"><stop stop-color="#60D2D3"></stop><stop offset="1" stop-color="#4FAADF"></stop></linearGradient><linearGradient id="paint40_linear_258_9868" x1="240.7" y1="103.7" x2="213.2" y2="90.7" gradientUnits="userSpaceOnUse"><stop stop-color="white"></stop><stop offset="1" stop-color="white"></stop></linearGradient><linearGradient id="paint41_linear_258_9868" x1="221.3" y1="111.9" x2="221.3" y2="69.4" gradientUnits="userSpaceOnUse"><stop stop-color="white"></stop><stop offset="1" stop-color="white"></stop></linearGradient><linearGradient id="paint42_linear_258_9868" x1="175" y1="73.1" x2="175" y2="87.7" gradientUnits="userSpaceOnUse"><stop stop-color="#60D2D3"></stop><stop offset="1" stop-color="#4FAADF"></stop></linearGradient><linearGradient id="paint43_linear_258_9868" x1="175" y1="95.3" x2="175" y2="56.9001" gradientUnits="userSpaceOnUse"><stop stop-color="white"></stop><stop offset="1" stop-color="white"></stop></linearGradient><linearGradient id="paint44_linear_258_9868" x1="221.1" y1="131.5" x2="221.1" y2="162.3" gradientUnits="userSpaceOnUse"><stop stop-color="#60D2D3"></stop><stop offset="1" stop-color="#4FAADF"></stop></linearGradient><linearGradient id="paint45_linear_258_9868" x1="189.3" y1="139.6" x2="189.3" y2="168.4" gradientUnits="userSpaceOnUse"><stop stop-color="#60D2D3"></stop><stop offset="1" stop-color="#4FAADF"></stop></linearGradient><linearGradient id="paint46_linear_258_9868" x1="209.4" y1="195.499" x2="209.4" y2="121.1" gradientUnits="userSpaceOnUse"><stop stop-color="#60D2D3"></stop><stop offset="1" stop-color="#499DCF"></stop></linearGradient><linearGradient id="paint47_linear_258_9868" x1="200.7" y1="195.5" x2="200.7" y2="121.1" gradientUnits="userSpaceOnUse"><stop stop-color="#60D2D3"></stop><stop offset="1" stop-color="#499DCF"></stop></linearGradient><linearGradient id="paint48_linear_258_9868" x1="190" y1="160.6" x2="190" y2="221.3" gradientUnits="userSpaceOnUse"><stop stop-color="#60D2D3"></stop><stop offset="1" stop-color="#499DCF"></stop></linearGradient><linearGradient id="paint49_linear_258_9868" x1="191.1" y1="133.2" x2="191.1" y2="149.6" gradientUnits="userSpaceOnUse"><stop stop-color="white"></stop><stop offset="1" stop-color="white"></stop></linearGradient><linearGradient id="paint50_linear_258_9868" x1="174.8" y1="126" x2="174.8" y2="172.8" gradientUnits="userSpaceOnUse"><stop stop-color="#60D2D3"></stop><stop offset="1" stop-color="#499DCF"></stop></linearGradient><linearGradient id="paint51_linear_258_9868" x1="280.3" y1="89.5" x2="160.3" y2="155.7" gradientUnits="userSpaceOnUse"><stop stop-color="white"></stop><stop offset="1" stop-color="white"></stop></linearGradient><linearGradient id="paint52_linear_258_9868" x1="282.6" y1="93.5" x2="162.5" y2="159.7" gradientUnits="userSpaceOnUse"><stop stop-color="white"></stop><stop offset="1" stop-color="white"></stop></linearGradient><linearGradient id="paint53_linear_258_9868" x1="285.9" y1="99.6" x2="165.9" y2="165.8" gradientUnits="userSpaceOnUse"><stop stop-color="white"></stop><stop offset="1" stop-color="white"></stop></linearGradient><linearGradient id="paint54_linear_258_9868" x1="167.4" y1="138.8" x2="167.4" y2="172.8" gradientUnits="userSpaceOnUse"><stop stop-color="#60D2D3"></stop><stop offset="1" stop-color="#4FAADF"></stop></linearGradient><linearGradient id="paint55_linear_258_9868" x1="212" y1="154.2" x2="258.3" y2="200.4" gradientUnits="userSpaceOnUse"><stop stop-color="#60D2D3"></stop><stop offset="1" stop-color="#4FAADF"></stop></linearGradient><linearGradient id="paint56_linear_258_9868" x1="169.4" y1="151.8" x2="200" y2="121.3" gradientUnits="userSpaceOnUse"><stop stop-color="white"></stop><stop offset="1" stop-color="white"></stop></linearGradient><linearGradient id="paint57_linear_258_9868" x1="189.3" y1="176.1" x2="189.3" y2="65.1001" gradientUnits="userSpaceOnUse"><stop stop-color="white"></stop><stop offset="1" stop-color="white"></stop></linearGradient><linearGradient id="paint58_linear_258_9868" x1="156.5" y1="86.6" x2="156.5" y2="151.2" gradientUnits="userSpaceOnUse"><stop stop-color="#60D2D3"></stop><stop offset="1" stop-color="#3E86B0"></stop></linearGradient><linearGradient id="paint59_linear_258_9868" x1="213.9" y1="24.8" x2="213.9" y2="53.8" gradientUnits="userSpaceOnUse"><stop stop-color="white"></stop><stop offset="1" stop-color="white"></stop></linearGradient><linearGradient id="paint60_linear_258_9868" x1="210.9" y1="40.8" x2="210.9" y2="4.40005" gradientUnits="userSpaceOnUse"><stop stop-color="white"></stop><stop offset="1" stop-color="white"></stop></linearGradient><clipPath id="clip0_258_9868"><rect width="170" height="170" fill="white" transform="translate(114)"></rect></clipPath></defs></svg> 