<?xml version="1.0" encoding="UTF-8"?> <svg xmlns="http://www.w3.org/2000/svg" width="398" height="274" viewBox="0 0 398 274" fill="none"><rect y="127" width="398" height="147" rx="10" fill="url(#paint0_linear_258_10035)"></rect><g clip-path="url(#clip0_258_10035)"><path d="M152.5 142.8L131.3 114.5L128.7 98.7L130.6 90L135.8 88.1L148.2 89.3L169.4 116.6L152.5 142.8Z" fill="url(#paint1_linear_258_10035)"></path><path d="M137.3 108.6L152.5 142.8L131.3 114.5L137.3 108.6Z" fill="url(#paint2_linear_258_10035)"></path><path d="M144.6 100.2C144.6 100.2 162.6 129 161.2 130.3C159.7 131.6 152.6 142.7 152.6 142.7L137.4 108.5L144.6 100.1V100.2Z" fill="url(#paint3_linear_258_10035)"></path><g style="mix-blend-mode:screen" opacity="0.4"><path d="M141.4 117.7L142.4 120L151.7 111.9C151.4 111.4 151.1 110.9 150.8 110.3L141.4 117.6V117.7Z" fill="url(#paint4_linear_258_10035)"></path><path d="M143 121.4L143.5 122.6L153.3 114.7C153.2 114.4 153 114.2 152.9 113.9L143.1 121.4H143Z" fill="url(#paint5_linear_258_10035)"></path><path d="M155 117.6L147.6 124L154.6 116.9C154.6 116.9 154.6 116.7 154.5 116.6C151.8 119.1 148.2 122.4 144.9 125.4L145.7 127.2L155.3 117.9C155.3 117.8 155.1 117.6 155.1 117.5L155 117.6Z" fill="url(#paint6_linear_258_10035)"></path><path d="M140.8 116.3L141.2 117.3L149.9 108.9C149.9 108.8 149.8 108.7 149.7 108.6L140.8 116.3Z" fill="url(#paint7_linear_258_10035)"></path><path d="M140.4 115.6L140.7 116.4L149.1 107.8C149.1 107.8 149.1 107.7 149.1 107.6C146.9 109.6 143.7 112.6 140.4 115.6Z" fill="url(#paint8_linear_258_10035)"></path><path d="M156 119.3L145.7 127.3L146.8 129.8L157 121C156.7 120.5 156.4 119.9 156.1 119.3H156Z" fill="url(#paint9_linear_258_10035)"></path><path d="M137.9 109.9L138.5 111.2L147.1 104.3C146.9 104 146.7 103.7 146.5 103.4L137.9 109.9Z" fill="url(#paint10_linear_258_10035)"></path><path d="M139.3 113.1L139.7 114C142.6 111.1 145.5 108.4 148 105.9C148 105.7 147.8 105.6 147.7 105.4C145.1 107.8 142.3 110.4 139.3 113.1Z" fill="url(#paint11_linear_258_10035)"></path></g><path d="M135.8 88.1L144.6 100.2L148.2 89.3L135.8 88.1Z" fill="url(#paint12_linear_258_10035)"></path><path style="mix-blend-mode:multiply" opacity="0.5" d="M152.5 142.8L169.4 116.6L152.1 94.3L148.2 106.2L146 128.2L142 128.8L152.5 142.8Z" fill="url(#paint13_linear_258_10035)"></path><path d="M137.3 108.6L144.6 100.2L135.8 88.1L130.6 90L131 100.3L137.3 108.6Z" fill="url(#paint14_linear_258_10035)"></path><path d="M131.3 114.5L137.3 108.6L130.6 90L128.7 98.7L131.3 114.5Z" fill="url(#paint15_linear_258_10035)"></path><path style="mix-blend-mode:screen" opacity="0.4" d="M130.6 90C132.3 94.3 134.3 102.9 137.3 108.6C137.3 108.6 143.2 101.3 144.7 100.4C141.7 95.8 137.3 90.2 135.8 88.1L130.6 90Z" fill="url(#paint16_linear_258_10035)"></path><path d="M132.4 113.4L137.1 108.7L131.5 92.8L137.5 108.3L144.3 100.6L139.2 92.8L144.7 100L147.3 92.1L144.7 100.4L137.8 108.6L132.4 113.4Z" fill="#F24C88"></path><path d="M236 135.1L262.9 116.4L267.6 103.3L269.3 93.4L264.8 89.5L252.6 85.8L226.1 103.5L236 135.1Z" fill="url(#paint17_linear_258_10035)"></path><path d="M250.1 97.6C250.1 97.6 229.6 118 230.7 119.8C231.8 121.6 236 135 236 135L260.8 111.4L250.1 97.6Z" fill="url(#paint18_linear_258_10035)"></path><path d="M264.8 89.5L250.1 97.6L252.6 85.8L264.8 89.5Z" fill="url(#paint19_linear_258_10035)"></path><path style="mix-blend-mode:multiply" opacity="0.5" d="M243.9 129.6L249.3 125.8L245.6 123.7L243.7 105.8L244.7 91.1L226.1 103.5L236 135.1L243.9 129.6Z" fill="url(#paint20_linear_258_10035)"></path><path d="M260.8 111.4L250.1 97.6L264.8 89.5L269.3 93.4L266.4 103L260.8 111.4Z" fill="url(#paint21_linear_258_10035)"></path><path d="M262.9 116.4L260.8 111.4L269.3 93.4L267.6 103.3L262.9 116.4Z" fill="url(#paint22_linear_258_10035)"></path><path d="M148.6 130.9C148.2 128.7 156.5 71.9 156.5 71.9L158.2 57.8L171.6 44.8C171.6 44.8 172.4 32.4 173.7 31.3C174.7 30.4 184 23.8 187.5 21.4C188.2 20.9 189.1 21.3 189.4 22.2C191.9 28.7 200.9 52.1 201.3 53.5C201.7 55.1 205.1 79.5 205.5 81.1C205.9 82.7 207.2 105.5 207.2 105.5L202.6 152.6C202.6 152.6 193.8 163.4 188.8 164C183.8 164.6 158.3 169.4 156.2 168.9C154.1 168.4 148.7 131 148.7 131L148.6 130.9Z" fill="url(#paint23_linear_258_10035)"></path><path d="M175.7 68C174.6 66.7 171.5 68.4 171.5 68.4L148.8 128.5C148.8 128.5 156.9 129.8 158.6 129.4C160.3 129 172.3 136.1 178.3 118.6C184.3 101.1 189.3 98.2 183.9 85.6C178.5 73 176.9 69.4 175.8 68.1L175.7 68Z" fill="url(#paint24_linear_258_10035)"></path><path style="mix-blend-mode:screen" opacity="0.8" d="M148.7 129.5C151.2 132.6 160.1 140.4 161.9 141.1C164 142 173.4 132.5 175 128.1C176.2 124.7 168.3 113.9 168.3 113.9C168.3 113.9 157.4 122 148.7 128.4C148.7 128.8 148.7 129.1 148.7 129.4V129.5Z" fill="url(#paint25_linear_258_10035)"></path><path style="mix-blend-mode:screen" opacity="0.5" d="M166.3 115.5C162.8 118.1 155.4 123.6 149.1 128.3L167.1 145.6L151.7 127.5L185.1 155.9L157.2 126.1L173.2 139.5L161.9 123.3L175.8 138.4L166.1 122.2L188 147.4L166.4 115.4L166.3 115.5Z" fill="url(#paint26_linear_258_10035)"></path><path d="M148.6 130.9C148.6 130.9 154 168.2 156.1 168.8C158.2 169.4 183.7 164.5 188.7 163.9C193.7 163.4 202.5 152.5 202.5 152.5L204.2 134.6C203.5 134.4 203 134.3 202.5 134.2C194.9 132.6 182.4 134.8 181.8 135C181.2 135.2 165.2 151.2 165.2 151.2C165.2 151.2 150 130.3 148.7 128.4C148.6 129.8 148.5 130.6 148.6 130.9Z" fill="url(#paint27_linear_258_10035)"></path><path d="M189.6 22.8L201.3 53.5L209 69.1C209 69.1 206.7 143.2 206.7 144.6C206.7 146 202.6 152.5 202.6 152.5C202.6 152.5 181.9 136.4 181.9 135C181.9 133.6 184 99.6 183.6 77.6C183.2 55.6 181.3 51 182.8 37.8C183.7 29.5 185.9 24.8 187.3 22.4C187.9 21.4 189.2 21.5 189.6 22.7V22.8Z" fill="url(#paint28_linear_258_10035)"></path><path d="M199.1 89L194 52.5L189.1 22.9C188.9 21.7 187.9 21.1 187.1 21.7C183.4 24.3 173.3 30.7 172.3 31.5L169.2 90.6L168.4 113.9L169.2 115.2L199.3 106.5L199.1 89Z" fill="url(#paint29_linear_258_10035)"></path><g style="mix-blend-mode:screen" opacity="0.4"><path d="M172.3 62.1L192.5 43.1L191.9 39.6L172.6 59.1L172.3 62.1Z" fill="url(#paint30_linear_258_10035)"></path><path d="M194.4 54.6C184.8 62 172.9 71.3 172.9 71.3L189.3 60.7L170.8 76.6C170.8 76.7 193.6 60.4 193.6 60.4L170.1 83.6L169.7 87.7L196.3 65.2L194.6 54.7L194.4 54.6Z" fill="url(#paint31_linear_258_10035)"></path><path d="M172 65.3001V66.4001C178 62.2001 185.8 56.8001 193.8 51.2001L193.4 48.5001C185.7 54.7001 178 60.7001 172 65.4001V65.3001Z" fill="url(#paint32_linear_258_10035)"></path><path d="M199.1 83.4L198.3 78.8C188.4 86.4 173.5 98 173.5 98L189.9 87.4L170.4 104.1L194.1 87.1L168.3 112.6V114L169.1 115.3L199.1 89.9V83.5V83.4Z" fill="url(#paint33_linear_258_10035)"></path><path d="M197 71L196.5 67.8L169 95.7L168.9 97.4L197 71Z" fill="url(#paint34_linear_258_10035)"></path></g><path d="M169.2 115.2L185.4 99.7L199.1 89.8L186.1 101.7L169.2 115.2Z" fill="#F784B8"></path><path d="M199.3 106.5L168.3 113.9L181.9 135C181.9 136.4 188.9 141.8 188.9 141.8C188.9 141.8 201 140.2 201.3 138.9L207.1 117.3L199.2 106.5H199.3Z" fill="url(#paint35_linear_258_10035)"></path><path opacity="0.1" d="M181.2 134L203.1 115.4V111.8L199.3 106.7C189.7 114.1 177.5 123.6 177.5 123.6L193.9 113L177 127.5L177.2 127.7L198.2 112.6L179.4 131.1L181.2 133.9V134Z" fill="url(#paint36_linear_258_10035)"></path><path d="M204.4 81.1L205.8 84.5L207.6 116.6C208.3 95.2 209.1 69.3 209.1 69.3L201.4 53.7L203.7 73.8L204.4 81.3V81.1Z" fill="url(#paint37_linear_258_10035)"></path><path style="mix-blend-mode:multiply" d="M208 101C208.5 84.3 209 69.2 209 69.2L205.5 62L203.5 69.7L200.6 74.9L199.3 106.4L204.9 114.3C204.9 114.3 206.6 108.5 208.1 100.9L208 101Z" fill="url(#paint38_linear_258_10035)"></path><path d="M241.4 105.8L244.5 78.5L224.8 44.4L213.3 52.1L204.1 79L202.3 111.5L196.1 139.1C193.3 141.3 189.4 141.3 189 142C189 142 188.7 163.6 188.8 164.5C189 165.4 203.2 170.1 204.9 170.1C206.6 170.1 222.2 164.3 222.2 164.3L245.1 128.8L241.5 105.9L241.4 105.8Z" fill="url(#paint39_linear_258_10035)"></path><path d="M245 128.6L241.4 105.7L229 116.3L212.5 124.9C212.5 124.9 210.5 126.3 210.6 140.1C210.6 153.9 212.7 143.5 219.7 149C226.8 154.5 225.7 146.5 225.7 146.5C225.7 146.5 228.8 145.8 234.1 145.3L244.9 128.6H245Z" fill="url(#paint40_linear_258_10035)"></path><g style="mix-blend-mode:screen" opacity="0.2"><path d="M242.2 110.4L214.8 128L241 113.9L210.7 138.9V139.5L243.1 116.1L242.2 110.3V110.4Z" fill="url(#paint41_linear_258_10035)"></path><path d="M243.3 117.7L211.3 146.9C211.7 147.9 212.3 147.8 213.2 147.6L244.1 123.2L243.2 117.7H243.3Z" fill="url(#paint42_linear_258_10035)"></path><path d="M244.4 124.4L224.1 141.9C224.1 141.9 234.5 134.3 244.7 127L244.3 124.5L244.4 124.4Z" fill="url(#paint43_linear_258_10035)"></path></g><path d="M213.3 52L214.5 95.5C214.5 95.5 226.1 43.7 224.8 44.3C223.5 44.9 213.3 52 213.3 52Z" fill="url(#paint44_linear_258_10035)"></path><path d="M224.8 44.3C224.8 44.3 228.7 117 229 116.3C229.4 115.6 241.4 105.7 241.4 105.7L244.5 78.4001L224.8 44.3Z" fill="url(#paint45_linear_258_10035)"></path><path d="M202.3 111.4C202.3 111.4 212.4 125.9 212.6 125C212.8 124 214.9 98.8 214.5 95.6C214.1 92.4 213.6 60.8 213.7 59.6C213.9 58.4 213.3 52.2 213.3 52.2L204.1 79.1L202.3 111.6V111.4Z" fill="url(#paint46_linear_258_10035)"></path><g style="mix-blend-mode:screen" opacity="0.4"><path d="M205.1 115.4L209.2 63.9L205.8 73.9C205 89.2 203.7 113 203.8 112.2C204 110.9 206.7 75 206.7 75L204.8 115.1C204.8 115.2 205 115.3 205.1 115.5V115.4Z" fill="url(#paint47_linear_258_10035)"></path></g><path d="M212.6 124.9L204.8 170C204.8 170 197.2 143.8 197.4 140.4C197.6 137 202.2 111.4 202.2 111.4L212.5 125L212.6 124.9Z" fill="url(#paint48_linear_258_10035)"></path><path d="M197.5 140.4C196.6 141.1 189 141.9 189 141.9L182 135.1L165.3 152.4L167 167.4L188.5 165.7L204.8 170L197.4 140.4H197.5Z" fill="url(#paint49_linear_258_10035)"></path><path d="M221.5 146.4L212.6 124.9L201.1 157C199.9 163.4 199.6 166.8 199.7 168.6C202.2 169.4 204.3 169.9 204.8 169.9C206.4 169.9 222.1 164.1 222.1 164.1L245 128.6L221.5 146.4Z" fill="url(#paint50_linear_258_10035)"></path><path d="M220.1 159.8L221.5 146.4L212.6 124.9L201.4 155.9L203.8 164.8L204.8 170L222.1 164.1L220.1 159.8Z" fill="url(#paint51_linear_258_10035)"></path><g style="mix-blend-mode:screen" opacity="0.1"><path d="M226.9 82.9L236.2 64.1L235.7 63.2C232.5 69.9 229.5 76.3 226.9 82C226.9 82.3 226.9 82.6 226.9 82.9Z" fill="url(#paint52_linear_258_10035)"></path><path d="M234.4 60.8L233.7 59.6C231.3 64.8 228.9 70 226.5 74.9C226.5 75.5 226.5 76.1 226.5 76.7C229 71.6 231.6 66.2 234.3 60.8H234.4Z" fill="url(#paint53_linear_258_10035)"></path><path d="M226.3 70.7L232.3 57.2L231.3 55.4L226.2 67.3C226.2 68.4 226.3 69.6 226.4 70.7H226.3Z" fill="url(#paint54_linear_258_10035)"></path><path d="M228.6 111.3L244 80.2L228.8 113.6C228.8 114.1 228.8 114.5 228.8 114.8L243.8 83.6L244.4 78.4L244 77.7C238.4 89.6 232.8 101.5 228.5 110.6C228.5 110.8 228.5 111.1 228.5 111.3H228.6Z" fill="url(#paint55_linear_258_10035)"></path><path d="M241.8 73.7L240.9 72.1L228.1 102C228.1 102.9 228.1 103.7 228.2 104.5L241.8 73.7Z" fill="url(#paint56_linear_258_10035)"></path><path d="M242.6 95.6L243.7 85.7L231.3 114.4C232.6 113.3 234.2 111.9 235.8 110.6L242.6 95.7V95.6Z" fill="url(#paint57_linear_258_10035)"></path><path d="M239.5 69.8L237.7 66.6L227.4 90.4C227.4 92.2 227.6 94 227.7 95.7L239.6 69.8H239.5Z" fill="url(#paint58_linear_258_10035)"></path><path d="M237.2 65.7L236.5 64.5L227.1 85.1C227.1 85.6 227.1 86 227.1 86.5L237.1 65.7H237.2Z" fill="url(#paint59_linear_258_10035)"></path></g><g style="mix-blend-mode:screen" opacity="0.4"><path d="M163.8 74.7L166.8 49.6L162.3 53.9C160.8 63.4 158.9 75.5 158.9 75.5L163.3 58.9L162.6 75.6C163 75.3 163.4 75 163.8 74.7Z" fill="url(#paint60_linear_258_10035)"></path><path d="M169.6 46.8L167.8 48.6L166.7 69L169.6 46.8Z" fill="url(#paint61_linear_258_10035)"></path></g><path style="mix-blend-mode:screen" opacity="0.8" d="M224.8 44.3C223.5 44.9 213.3 52 213.3 52L213.9 73.6C215.2 73.8 217.5 74.2 219.2 74.1C222.3 59.9 225.6 43.9 224.9 44.3H224.8Z" fill="url(#paint62_linear_258_10035)"></path><path style="mix-blend-mode:screen" opacity="0.8" d="M158.3 57.8C157.8 64.6 158 73.7 158.2 74.5C158.5 75.8 167 69.5 167.8 68.3C168.5 67.5 170.6 52.5 171.5 44.9L158.3 57.7V57.8Z" fill="url(#paint63_linear_258_10035)"></path><path style="mix-blend-mode:screen" opacity="0.3" d="M241.4 105.8C241.4 105.8 241.3 105.8 241.2 105.9L237.1 109.4C231.9 114.1 224.9 120.8 224.9 120.8C224.9 120.8 229.3 137 230 137.2C230.5 137.4 240.2 131.7 245 128.4L241.4 105.6V105.8Z" fill="url(#paint64_linear_258_10035)"></path><path d="M213.3 52L213.7 95L212.8 122.2L215.3 94.2L221.3 63.9L214.5 89.2C214.5 89.2 213.3 52.6 213.3 52.1V52Z" fill="#F784B8"></path><path style="mix-blend-mode:screen" opacity="0.8" d="M190.2 27.8C189.5 23.5 189 20.4 188.8 20.5C188.5 20.6 185.5 22.7 182.3 24.9C181.1 25.7 172.4 31.5 172.4 31.5C172.4 31.5 171.6 47.7 171.2 55C171.2 56.6 192.2 51.3 192.6 48.1C192.6 46.6 192.4 43.4 192 39.7C192.1 40.5 192.3 41.2 192.4 42C192.2 40.4 191.9 38.8 191.7 37.1C191.3 33.9 190.8 30.5 190.3 27.8H190.2Z" fill="url(#paint65_linear_258_10035)"></path><path d="M192.3 42C193.4 49.3 194.3 55.5 194.3 54.6C194.3 53.7 193.4 48.3 192.3 42Z" fill="url(#paint66_linear_258_10035)"></path><path d="M188.7 20.4L199.1 89.8C199.1 89.8 194.8 56.8 194.7 54.6C194.7 52.4 188.7 20.5 188.7 20.5V20.4Z" fill="#FFAEF4"></path><path d="M167 167.3L188.5 165.7L188.9 141.8L181.9 135.1L165.3 152.4L167 167.3Z" fill="url(#paint67_linear_258_10035)"></path><path style="mix-blend-mode:multiply" opacity="0.3" d="M245 128.7H244.8C244.8 128.8 220.1 159.8 220.1 159.8L203.8 164.8L194.1 161.2L188.7 153.2L181.9 161.1L166.4 162.7L157.7 161.6L148.7 128.5C148.6 129.9 148.5 130.7 148.6 131C148.6 131 154 168.3 156.1 168.9C157 169.1 162.7 168.3 169 167.3L188.4 165.8L199.6 168.8C202.1 169.6 204.2 170.2 204.7 170.2C206.3 170.2 222 164.4 222 164.4L244.9 128.9L245 128.7Z" fill="url(#paint68_linear_258_10035)"></path><path d="M252.5 86.5C252.5 86.5 249.2 98.6 249.3 98.5C249.4 98.4 260.3 112 260.3 112L262.6 115.7L261.4 111.5L268.4 95.6C268.4 95.6 261.1 110.6 260.9 110.1C260.7 109.6 250.3 98.3 250.4 98.2C250.6 98 256.5 94.2 256.5 94.2C256.5 94.2 251 97 251.1 96.3C251.2 95.6 252.5 86.5 252.5 86.5Z" fill="#F24C88"></path><path style="mix-blend-mode:screen" opacity="0.3" d="M264.8 89.5C262.8 90.1 253.2 96.3 253.2 96.3C253.2 96.3 261.7 107.2 262.4 107.4C262.9 107.6 266.7 98.9 269.3 93.4L264.8 89.5Z" fill="url(#paint69_linear_258_10035)"></path><g opacity="0.1"><path d="M221.1 150.1L207.9 138.1L206.4 142.2L220.8 152.8L221.1 150.1Z" fill="url(#paint70_linear_258_10035)"></path><path d="M213.3 167.1H213.7C213.7 167 201.8 155.4 201.8 155.4L201.5 156.2L202.3 159C207 162.4 211.1 165.5 213.4 167.2L213.3 167.1Z" fill="url(#paint71_linear_258_10035)"></path><path d="M218 138.1L209.7 133L208.7 135.9L219 140.4L218 138.1Z" fill="url(#paint72_linear_258_10035)"></path><path d="M222 164.2L205 146.1L202.6 153.1L217.5 165.7L222 164.2Z" fill="url(#paint73_linear_258_10035)"></path></g><path style="mix-blend-mode:multiply" d="M169.4 69.6L163.2 111.6C160.4 114.3 148.8 128.4 148.8 128.4L168.4 113.9L171.7 44.8L169.4 69.5V69.6Z" fill="url(#paint74_linear_258_10035)"></path><path d="M148.8 128.5L165.3 150.3L181.3 135.7L165.3 152.4L148.8 128.5Z" fill="#F784B8"></path><path d="M181.9 135.1C181.9 135.1 188.1 139.3 188.7 139.6C189.3 139.9 196 139 196 139L202.2 111.4L198.1 140.5L201.3 155.9C201.3 155.9 197.1 141.4 197 141.2C196.9 141 188.9 141.8 188.9 141.8L181.9 135V135.1Z" fill="#F784B8"></path><path style="mix-blend-mode:screen" opacity="0.4" d="M170.1 116.5L181.9 135.1L188.9 141.8L198.2 140.4L202.6 111L170.1 116.5Z" fill="url(#paint75_linear_258_10035)"></path></g><defs><linearGradient id="paint0_linear_258_10035" x1="199" y1="127" x2="199" y2="274" gradientUnits="userSpaceOnUse"><stop stop-color="#FE5590"></stop><stop offset="1" stop-color="#771209"></stop></linearGradient><linearGradient id="paint1_linear_258_10035" x1="125.316" y1="105.171" x2="143.799" y2="113.395" gradientUnits="userSpaceOnUse"><stop stop-color="#E62211"></stop><stop offset="1" stop-color="#9E170C"></stop></linearGradient><linearGradient id="paint2_linear_258_10035" x1="131.849" y1="113.805" x2="149.613" y2="130.766" gradientUnits="userSpaceOnUse"><stop stop-color="#E62211"></stop><stop offset="1" stop-color="#9E170C"></stop></linearGradient><linearGradient id="paint3_linear_258_10035" x1="156.05" y1="126.007" x2="141.359" y2="117.944" gradientUnits="userSpaceOnUse"><stop stop-color="#E62211"></stop><stop offset="1" stop-color="#9E170C"></stop></linearGradient><linearGradient id="paint4_linear_258_10035" x1="150.5" y1="110.8" x2="135.3" y2="125.9" gradientUnits="userSpaceOnUse"><stop stop-color="#FF3E2E"></stop><stop offset="1" stop-color="#7D1209"></stop></linearGradient><linearGradient id="paint5_linear_258_10035" x1="152.6" y1="113.6" x2="137.6" y2="128.6" gradientUnits="userSpaceOnUse"><stop stop-color="#FF3E2E"></stop><stop offset="1" stop-color="#7D1209"></stop></linearGradient><linearGradient id="paint6_linear_258_10035" x1="155.1" y1="116.6" x2="139.9" y2="131.9" gradientUnits="userSpaceOnUse"><stop stop-color="#FF3E2E"></stop><stop offset="1" stop-color="#7D1209"></stop></linearGradient><linearGradient id="paint7_linear_258_10035" x1="149" y1="108.9" x2="134" y2="124" gradientUnits="userSpaceOnUse"><stop stop-color="#FF3E2E"></stop><stop offset="1" stop-color="#7D1209"></stop></linearGradient><linearGradient id="paint8_linear_258_10035" x1="148.4" y1="108.1" x2="133.3" y2="123.2" gradientUnits="userSpaceOnUse"><stop stop-color="#FF3E2E"></stop><stop offset="1" stop-color="#7D1209"></stop></linearGradient><linearGradient id="paint9_linear_258_10035" x1="156.7" y1="118.7" x2="141.5" y2="133.9" gradientUnits="userSpaceOnUse"><stop stop-color="#FF3E2E"></stop><stop offset="1" stop-color="#7D1209"></stop></linearGradient><linearGradient id="paint10_linear_258_10035" x1="145.4" y1="104.2" x2="130.4" y2="119.2" gradientUnits="userSpaceOnUse"><stop stop-color="#FF3E2E"></stop><stop offset="1" stop-color="#7D1209"></stop></linearGradient><linearGradient id="paint11_linear_258_10035" x1="146.9" y1="106.2" x2="131.8" y2="121.3" gradientUnits="userSpaceOnUse"><stop stop-color="#FF3E2E"></stop><stop offset="1" stop-color="#7D1209"></stop></linearGradient><linearGradient id="paint12_linear_258_10035" x1="135.1" y1="90.7" x2="143.6" y2="93.8" gradientUnits="userSpaceOnUse"><stop stop-color="#D4108F"></stop><stop offset="1" stop-color="#AD190D"></stop></linearGradient><linearGradient id="paint13_linear_258_10035" x1="159.7" y1="125.9" x2="146.6" y2="112.8" gradientUnits="userSpaceOnUse"><stop stop-color="#FF3E2E"></stop><stop offset="1" stop-color="#7D1209"></stop></linearGradient><linearGradient id="paint14_linear_258_10035" x1="139.701" y1="108.537" x2="129.723" y2="73.739" gradientUnits="userSpaceOnUse"><stop stop-color="#FF2E7B"></stop><stop offset="0.2" stop-color="#FB2D79"></stop><stop offset="0.4" stop-color="#EF2D76"></stop><stop offset="0.6" stop-color="#DC2C71"></stop><stop offset="0.8" stop-color="#C12C6A"></stop><stop offset="1" stop-color="#A12B62"></stop></linearGradient><linearGradient id="paint15_linear_258_10035" x1="133.7" y1="89.4" x2="133" y2="104.3" gradientUnits="userSpaceOnUse"><stop stop-color="#D4108F"></stop><stop offset="0.2" stop-color="#D21089"></stop><stop offset="0.5" stop-color="#CD117A"></stop><stop offset="0.9" stop-color="#C61361"></stop><stop offset="1" stop-color="#C31456"></stop></linearGradient><linearGradient id="paint16_linear_258_10035" x1="126.2" y1="81.4" x2="141" y2="104.5" gradientUnits="userSpaceOnUse"><stop stop-color="white"></stop><stop offset="0.1" stop-color="#FAFAFA"></stop><stop offset="0.2" stop-color="#ECECEC"></stop><stop offset="0.4" stop-color="#D5D5D5"></stop><stop offset="0.5" stop-color="#B5B5B5"></stop><stop offset="0.7" stop-color="#8B8B8B"></stop><stop offset="0.8" stop-color="#585858"></stop><stop offset="0.9" stop-color="#1E1E1E"></stop><stop offset="1" stop-color="#080808"></stop></linearGradient><linearGradient id="paint17_linear_258_10035" x1="270.656" y1="104.084" x2="251.467" y2="106.223" gradientUnits="userSpaceOnUse"><stop stop-color="#E62211"></stop><stop offset="1" stop-color="#9E170C"></stop></linearGradient><linearGradient id="paint18_linear_258_10035" x1="252.7" y1="110.1" x2="239.3" y2="118.8" gradientUnits="userSpaceOnUse"><stop stop-color="#E62211"></stop><stop offset="1" stop-color="#9E170C"></stop></linearGradient><linearGradient id="paint19_linear_258_10035" x1="248.5" y1="89.0037" x2="263.749" y2="85.9289" gradientUnits="userSpaceOnUse"><stop stop-color="#C31456"></stop><stop offset="0.1" stop-color="#C61361"></stop><stop offset="0.5" stop-color="#CD117A"></stop><stop offset="0.8" stop-color="#D21089"></stop><stop offset="1" stop-color="#D4108F"></stop></linearGradient><linearGradient id="paint20_linear_258_10035" x1="246.7" y1="119.4" x2="234.5" y2="107.2" gradientUnits="userSpaceOnUse"><stop stop-color="#FF3E2E"></stop><stop offset="1" stop-color="#7D1209"></stop></linearGradient><linearGradient id="paint21_linear_258_10035" x1="266.5" y1="89.9" x2="257.6" y2="101.6" gradientUnits="userSpaceOnUse"><stop stop-color="#FF2EA4"></stop><stop offset="1" stop-color="#AA1C3F"></stop></linearGradient><linearGradient id="paint22_linear_258_10035" x1="272.11" y1="94.1253" x2="264.308" y2="105.869" gradientUnits="userSpaceOnUse"><stop stop-color="#E62211"></stop><stop offset="1" stop-color="#9E170C"></stop></linearGradient><linearGradient id="paint23_linear_258_10035" x1="177.9" y1="28.3" x2="177.9" y2="152.3" gradientUnits="userSpaceOnUse"><stop stop-color="#D4108F"></stop><stop offset="1" stop-color="#AD190D"></stop></linearGradient><linearGradient id="paint24_linear_258_10035" x1="194.2" y1="130.2" x2="135.9" y2="71.8" gradientUnits="userSpaceOnUse"><stop stop-color="#D4108F"></stop><stop offset="1" stop-color="#AD190D"></stop></linearGradient><linearGradient id="paint25_linear_258_10035" x1="130.9" y1="121.5" x2="168.6" y2="128.1" gradientUnits="userSpaceOnUse"><stop stop-color="#E3E3E3"></stop><stop offset="0.3" stop-color="#9C9C9C"></stop><stop offset="0.6" stop-color="#2C2C2C"></stop><stop offset="0.7" stop-color="#080808"></stop></linearGradient><linearGradient id="paint26_linear_258_10035" x1="181.9" y1="146.1" x2="148.1" y2="112.3" gradientUnits="userSpaceOnUse"><stop stop-color="#FF3E2E"></stop><stop offset="1" stop-color="#7D1209"></stop></linearGradient><linearGradient id="paint27_linear_258_10035" x1="176.5" y1="103.5" x2="176.5" y2="177" gradientUnits="userSpaceOnUse"><stop stop-color="#FF3E2E"></stop><stop offset="1" stop-color="#7D1209"></stop></linearGradient><linearGradient id="paint28_linear_258_10035" x1="195.5" y1="48.7" x2="195.5" y2="205.6" gradientUnits="userSpaceOnUse"><stop stop-color="#E62211"></stop><stop offset="1" stop-color="#9E170C"></stop></linearGradient><linearGradient id="paint29_linear_258_10035" x1="183.8" y1="43.4" x2="183.8" y2="99.1" gradientUnits="userSpaceOnUse"><stop stop-color="#FF2E7B"></stop><stop offset="0.2" stop-color="#FB2D79"></stop><stop offset="0.4" stop-color="#EF2D76"></stop><stop offset="0.6" stop-color="#DC2C71"></stop><stop offset="0.8" stop-color="#C12C6A"></stop><stop offset="1" stop-color="#A12B62"></stop></linearGradient><linearGradient id="paint30_linear_258_10035" x1="241.3" y1="50.8" x2="318.7" y2="50.8" gradientUnits="userSpaceOnUse"><stop stop-color="#FF3E2E"></stop><stop offset="1" stop-color="#7D1209"></stop></linearGradient><linearGradient id="paint31_linear_258_10035" x1="241.3" y1="71.1" x2="318.7" y2="71.1" gradientUnits="userSpaceOnUse"><stop stop-color="#FF3E2E"></stop><stop offset="1" stop-color="#7D1209"></stop></linearGradient><linearGradient id="paint32_linear_258_10035" x1="241.301" y1="57.4001" x2="318.701" y2="57.4001" gradientUnits="userSpaceOnUse"><stop stop-color="#FF3E2E"></stop><stop offset="1" stop-color="#7D1209"></stop></linearGradient><linearGradient id="paint33_linear_258_10035" x1="241.3" y1="97" x2="318.7" y2="97" gradientUnits="userSpaceOnUse"><stop stop-color="#FF3E2E"></stop><stop offset="1" stop-color="#7D1209"></stop></linearGradient><linearGradient id="paint34_linear_258_10035" x1="241.3" y1="82.6" x2="318.7" y2="82.6" gradientUnits="userSpaceOnUse"><stop stop-color="#FF3E2E"></stop><stop offset="1" stop-color="#7D1209"></stop></linearGradient><linearGradient id="paint35_linear_258_10035" x1="161.8" y1="86.6" x2="175.2" y2="102.6" gradientUnits="userSpaceOnUse"><stop stop-color="#A12B62"></stop><stop offset="0.2" stop-color="#C12C6A"></stop><stop offset="0.4" stop-color="#DC2C71"></stop><stop offset="0.6" stop-color="#EF2D76"></stop><stop offset="0.8" stop-color="#FB2D79"></stop><stop offset="1" stop-color="#FF2E7B"></stop></linearGradient><linearGradient id="paint36_linear_258_10035" x1="239" y1="120.3" x2="304.6" y2="120.3" gradientUnits="userSpaceOnUse"><stop stop-color="white"></stop><stop offset="1" stop-color="white"></stop></linearGradient><linearGradient id="paint37_linear_258_10035" x1="204.7" y1="52.3" x2="207.5" y2="108.8" gradientUnits="userSpaceOnUse"><stop stop-color="#E62211"></stop><stop offset="1" stop-color="#9E170C"></stop></linearGradient><linearGradient id="paint38_linear_258_10035" x1="194.8" y1="98.5" x2="214" y2="79.4" gradientUnits="userSpaceOnUse"><stop stop-color="#FF3E2E"></stop><stop offset="1" stop-color="#7D1209"></stop></linearGradient><linearGradient id="paint39_linear_258_10035" x1="179.8" y1="113.3" x2="248.5" y2="101.2" gradientUnits="userSpaceOnUse"><stop offset="0.3" stop-color="#FF2EA4"></stop><stop offset="0.9" stop-color="#7D1209"></stop></linearGradient><linearGradient id="paint40_linear_258_10035" x1="244.7" y1="144.8" x2="220.8" y2="120.9" gradientUnits="userSpaceOnUse"><stop stop-color="#AE316E"></stop><stop offset="0.1" stop-color="#C13174"></stop><stop offset="0.3" stop-color="#DC337D"></stop><stop offset="0.6" stop-color="#EF3483"></stop><stop offset="0.8" stop-color="#FB3487"></stop><stop offset="1" stop-color="#FF3589"></stop></linearGradient><linearGradient id="paint41_linear_258_10035" x1="250.3" y1="125" x2="279.2" y2="125" gradientUnits="userSpaceOnUse"><stop stop-color="#FF3E2E"></stop><stop offset="1" stop-color="#7D1209"></stop></linearGradient><linearGradient id="paint42_linear_258_10035" x1="250.3" y1="132.7" x2="279.2" y2="132.7" gradientUnits="userSpaceOnUse"><stop stop-color="#FF3E2E"></stop><stop offset="1" stop-color="#7D1209"></stop></linearGradient><linearGradient id="paint43_linear_258_10035" x1="250.3" y1="133.1" x2="279.2" y2="133.1" gradientUnits="userSpaceOnUse"><stop stop-color="#FF3E2E"></stop><stop offset="1" stop-color="#7D1209"></stop></linearGradient><linearGradient id="paint44_linear_258_10035" x1="219.8" y1="50.7" x2="210.5" y2="86.9" gradientUnits="userSpaceOnUse"><stop stop-color="#FF2E7B"></stop><stop offset="0.2" stop-color="#FB2D79"></stop><stop offset="0.4" stop-color="#EF2D76"></stop><stop offset="0.6" stop-color="#DC2C71"></stop><stop offset="0.8" stop-color="#C12C6A"></stop><stop offset="1" stop-color="#A12B62"></stop></linearGradient><linearGradient id="paint45_linear_258_10035" x1="234.7" y1="116.3" x2="234.7" y2="44.3" gradientUnits="userSpaceOnUse"><stop stop-color="#7D1209"></stop><stop offset="1" stop-color="#FF2EA4"></stop></linearGradient><linearGradient id="paint46_linear_258_10035" x1="216.5" y1="58.2" x2="203.7" y2="127" gradientUnits="userSpaceOnUse"><stop stop-color="#FF2EA4"></stop><stop offset="1" stop-color="#7D1209"></stop></linearGradient><linearGradient id="paint47_linear_258_10035" x1="206.5" y1="111.1" x2="206.5" y2="49.1" gradientUnits="userSpaceOnUse"><stop stop-color="#FF3E2E"></stop><stop offset="1" stop-color="#7D1209"></stop></linearGradient><linearGradient id="paint48_linear_258_10035" x1="241.3" y1="102.9" x2="212.1" y2="132.1" gradientUnits="userSpaceOnUse"><stop stop-color="#FF3E2E"></stop><stop offset="1" stop-color="#7D1209"></stop></linearGradient><linearGradient id="paint49_linear_258_10035" x1="189.7" y1="124.9" x2="186.1" y2="152.8" gradientUnits="userSpaceOnUse"><stop stop-color="#FF3E2E"></stop><stop offset="1" stop-color="#771209"></stop></linearGradient><linearGradient id="paint50_linear_258_10035" x1="226.8" y1="126.2" x2="220.4" y2="154.9" gradientUnits="userSpaceOnUse"><stop stop-color="#FF3E2E"></stop><stop offset="1" stop-color="#771209"></stop></linearGradient><linearGradient id="paint51_linear_258_10035" x1="211.8" y1="130.4" x2="211.8" y2="159.6" gradientUnits="userSpaceOnUse"><stop stop-color="#D4108F"></stop><stop offset="1" stop-color="#AD190D"></stop></linearGradient><linearGradient id="paint52_linear_258_10035" x1="243.4" y1="61" x2="286" y2="18.3" gradientUnits="userSpaceOnUse"><stop stop-color="#FF3E2E"></stop><stop offset="1" stop-color="#7D1209"></stop></linearGradient><linearGradient id="paint53_linear_258_10035" x1="240.7" y1="57.6" x2="283.6" y2="14.8" gradientUnits="userSpaceOnUse"><stop stop-color="#FF3E2E"></stop><stop offset="1" stop-color="#7D1209"></stop></linearGradient><linearGradient id="paint54_linear_258_10035" x1="237.9" y1="53.8" x2="281.3" y2="10.4" gradientUnits="userSpaceOnUse"><stop stop-color="#FF3E2E"></stop><stop offset="1" stop-color="#7D1209"></stop></linearGradient><linearGradient id="paint55_linear_258_10035" x1="256.2" y1="76.5" x2="299.1" y2="33.7" gradientUnits="userSpaceOnUse"><stop stop-color="#FF3E2E"></stop><stop offset="1" stop-color="#7D1209"></stop></linearGradient><linearGradient id="paint56_linear_258_10035" x1="251.8" y1="71" x2="294.8" y2="28.1" gradientUnits="userSpaceOnUse"><stop stop-color="#FF3E2E"></stop><stop offset="1" stop-color="#7D1209"></stop></linearGradient><linearGradient id="paint57_linear_258_10035" x1="258.4" y1="79.3" x2="301.1" y2="36.6" gradientUnits="userSpaceOnUse"><stop stop-color="#FF3E2E"></stop><stop offset="1" stop-color="#7D1209"></stop></linearGradient><linearGradient id="paint58_linear_258_10035" x1="247.9" y1="66" x2="291.1" y2="22.7" gradientUnits="userSpaceOnUse"><stop stop-color="#FF3E2E"></stop><stop offset="1" stop-color="#7D1209"></stop></linearGradient><linearGradient id="paint59_linear_258_10035" x1="244.7" y1="62.5" x2="287.5" y2="19.7" gradientUnits="userSpaceOnUse"><stop stop-color="#FF3E2E"></stop><stop offset="1" stop-color="#7D1209"></stop></linearGradient><linearGradient id="paint60_linear_258_10035" x1="162.9" y1="114.1" x2="162.9" y2="3.50004" gradientUnits="userSpaceOnUse"><stop stop-color="#FF3E2E"></stop><stop offset="1" stop-color="#7D1209"></stop></linearGradient><linearGradient id="paint61_linear_258_10035" x1="168.2" y1="114.1" x2="168.2" y2="3.50005" gradientUnits="userSpaceOnUse"><stop stop-color="#FF3E2E"></stop><stop offset="1" stop-color="#7D1209"></stop></linearGradient><linearGradient id="paint62_linear_258_10035" x1="221" y1="35.2" x2="216" y2="70.3" gradientUnits="userSpaceOnUse"><stop stop-color="white"></stop><stop offset="0.1" stop-color="#FAFAFA"></stop><stop offset="0.2" stop-color="#ECECEC"></stop><stop offset="0.4" stop-color="#D5D5D5"></stop><stop offset="0.5" stop-color="#B5B5B5"></stop><stop offset="0.7" stop-color="#8B8B8B"></stop><stop offset="0.8" stop-color="#585858"></stop><stop offset="0.9" stop-color="#1E1E1E"></stop><stop offset="1" stop-color="#080808"></stop></linearGradient><linearGradient id="paint63_linear_258_10035" x1="164.3" y1="40.7" x2="165" y2="67.6" gradientUnits="userSpaceOnUse"><stop stop-color="white"></stop><stop offset="0.1" stop-color="#FAFAFA"></stop><stop offset="0.2" stop-color="#ECECEC"></stop><stop offset="0.4" stop-color="#D5D5D5"></stop><stop offset="0.5" stop-color="#B5B5B5"></stop><stop offset="0.7" stop-color="#8B8B8B"></stop><stop offset="0.8" stop-color="#585858"></stop><stop offset="0.9" stop-color="#1E1E1E"></stop><stop offset="1" stop-color="#080808"></stop></linearGradient><linearGradient id="paint64_linear_258_10035" x1="250.1" y1="112.6" x2="231.4" y2="124.9" gradientUnits="userSpaceOnUse"><stop stop-color="white"></stop><stop offset="0.1" stop-color="#FAFAFA"></stop><stop offset="0.2" stop-color="#ECECEC"></stop><stop offset="0.4" stop-color="#D5D5D5"></stop><stop offset="0.5" stop-color="#B5B5B5"></stop><stop offset="0.7" stop-color="#8B8B8B"></stop><stop offset="0.8" stop-color="#585858"></stop><stop offset="0.9" stop-color="#1E1E1E"></stop><stop offset="1" stop-color="#080808"></stop></linearGradient><linearGradient id="paint65_linear_258_10035" x1="181.8" y1="24.6" x2="181.8" y2="50.7" gradientUnits="userSpaceOnUse"><stop stop-color="white"></stop><stop offset="0.1" stop-color="#FAFAFA"></stop><stop offset="0.2" stop-color="#ECECEC"></stop><stop offset="0.4" stop-color="#D5D5D5"></stop><stop offset="0.5" stop-color="#B5B5B5"></stop><stop offset="0.7" stop-color="#8B8B8B"></stop><stop offset="0.8" stop-color="#585858"></stop><stop offset="0.9" stop-color="#1E1E1E"></stop><stop offset="1" stop-color="#080808"></stop></linearGradient><linearGradient id="paint66_linear_258_10035" x1="193.3" y1="24.7" x2="193.3" y2="51" gradientUnits="userSpaceOnUse"><stop stop-color="white"></stop><stop offset="1" stop-color="white"></stop></linearGradient><linearGradient id="paint67_linear_258_10035" x1="177.1" y1="202.2" x2="177.1" y2="184.6" gradientUnits="userSpaceOnUse"><stop stop-color="#FF3E2E"></stop><stop offset="1" stop-color="#771209"></stop></linearGradient><linearGradient id="paint68_linear_258_10035" x1="196.8" y1="214.9" x2="196.8" y2="192.2" gradientUnits="userSpaceOnUse"><stop stop-color="#FF3E2E"></stop><stop offset="1" stop-color="#771209"></stop></linearGradient><linearGradient id="paint69_linear_258_10035" x1="271.3" y1="92.9" x2="260.8" y2="99.8" gradientUnits="userSpaceOnUse"><stop stop-color="white"></stop><stop offset="0.1" stop-color="#FAFAFA"></stop><stop offset="0.2" stop-color="#ECECEC"></stop><stop offset="0.4" stop-color="#D5D5D5"></stop><stop offset="0.5" stop-color="#B5B5B5"></stop><stop offset="0.7" stop-color="#8B8B8B"></stop><stop offset="0.8" stop-color="#585858"></stop><stop offset="0.9" stop-color="#1E1E1E"></stop><stop offset="1" stop-color="#080808"></stop></linearGradient><linearGradient id="paint70_linear_258_10035" x1="236.6" y1="145.4" x2="200.1" y2="145.4" gradientUnits="userSpaceOnUse"><stop stop-color="white"></stop><stop offset="1" stop-color="white"></stop></linearGradient><linearGradient id="paint71_linear_258_10035" x1="236.6" y1="161.2" x2="200.1" y2="161.2" gradientUnits="userSpaceOnUse"><stop stop-color="white"></stop><stop offset="1" stop-color="white"></stop></linearGradient><linearGradient id="paint72_linear_258_10035" x1="236.6" y1="136.7" x2="200.1" y2="136.7" gradientUnits="userSpaceOnUse"><stop stop-color="white"></stop><stop offset="1" stop-color="white"></stop></linearGradient><linearGradient id="paint73_linear_258_10035" x1="236.6" y1="155.9" x2="200.1" y2="155.9" gradientUnits="userSpaceOnUse"><stop stop-color="white"></stop><stop offset="1" stop-color="white"></stop></linearGradient><linearGradient id="paint74_linear_258_10035" x1="138" y1="86.6" x2="181.8" y2="86.6" gradientUnits="userSpaceOnUse"><stop stop-color="#FF3E2E"></stop><stop offset="1" stop-color="#7D1209"></stop></linearGradient><linearGradient id="paint75_linear_258_10035" x1="186.3" y1="141.8" x2="186.3" y2="111" gradientUnits="userSpaceOnUse"><stop stop-color="#F3F3F3"></stop><stop offset="0.3" stop-color="#8F8F8F"></stop><stop offset="0.5" stop-color="#464646"></stop><stop offset="0.7" stop-color="#080808"></stop></linearGradient><clipPath id="clip0_258_10035"><rect width="170" height="170" fill="white" transform="translate(114)"></rect></clipPath></defs></svg> 