<?xml version="1.0" encoding="UTF-8"?> <svg xmlns="http://www.w3.org/2000/svg" width="398" height="274" viewBox="0 0 398 274" fill="none"><rect y="127" width="398" height="147" rx="10" fill="url(#paint0_linear_258_9877)"></rect><g clip-path="url(#clip0_258_9877)"><path d="M185.6 118.2C185.6 118.2 160.2 127.4 158.2 128.2C156.1 129 149.9 131.9 148 134.9C146.1 137.9 142.7 143.7 142.7 143.7C142.7 143.7 142.5 151.5 142.7 151.6C143 151.7 147.1 157.5 147.9 158C148.7 158.5 155.5 164.1 155.5 164.1C155.5 164.1 162 162.5 162.5 162.5C163 162.5 167.8 164.5 167.8 164.9C167.8 165.3 179 166.9 179 166.9L185.5 166.4L192 168.8L204.6 168L213 170.1C213 170.1 227.2 165.3 227.1 165.2C227.1 165.2 229.2 163.4 231.6 161.4C236.5 157.4 239.9 151.5 240.8 144.9C240.8 144.7 240.8 144.6 240.8 144.5C240.9 143.3 241.7 138.8 240.8 136.9C239.8 134.9 234.8 127.2 233.7 125.6C232.6 124 225.1 115.2 222.2 114.2C219.3 113.2 201 111.9 200.1 111.9C199.2 111.9 185.7 118.3 185.7 118.3L185.6 118.2Z" fill="url(#paint1_linear_258_9877)"></path><path d="M240.9 144.4C241 143.2 241.8 138.7 240.9 136.8C240.7 136.4 240.4 135.9 240 135.1C237.4 137.7 233.5 141.4 233.5 141.4C233.8 142 233.7 151.8 233.7 159.5C237.6 155.6 240.2 150.4 241 144.7C241 144.5 241 144.4 241 144.3L240.9 144.4Z" fill="url(#paint2_linear_258_9877)"></path><path d="M185.6 117.7C185.6 117.7 160.2 126.1 158.1 126.8C156 127.5 149.8 130.2 147.8 132.9C145.8 135.6 142.5 140.8 142.5 140.8C142.5 140.8 142.2 147.8 142.5 147.9C142.8 148 146.9 153.2 147.7 153.6C148.5 154 155.3 159 155.3 159C155.3 159 161.8 157.5 162.3 157.5C162.8 157.5 167.6 159.3 167.6 159.7C167.6 160.1 178.8 161.4 178.8 161.4L185.3 160.9L191.8 163L204.4 162.2L212.8 164C212.8 164 227 159.6 226.9 159.5C226.9 159.5 229 157.9 231.4 156.1C236.3 152.5 239.7 147.1 240.6 141.2C240.6 141.1 240.6 140.9 240.6 140.9C240.7 139.8 241.5 135.8 240.6 134.1C239.7 132.4 234.6 125.4 233.5 124C232.3 122.6 224.9 114.7 222 113.8C219.1 112.9 200.8 111.8 199.9 111.9C199 112 185.5 117.8 185.5 117.8L185.6 117.7Z" fill="url(#paint3_linear_258_9877)"></path><path d="M185.6 117.7C185.6 117.7 160.2 126.1 158.1 126.8C156 127.5 149.8 130.2 147.8 132.9C145.8 135.6 142.5 140.8 142.5 140.8C142.5 140.8 142.2 147.8 142.5 147.9C142.8 148 146.9 153.2 147.7 153.6C148.5 154 155.3 159 155.3 159C155.3 159 161.8 157.5 162.3 157.5C162.8 157.5 167.6 159.3 167.6 159.7C167.6 160.1 178.8 161.4 178.8 161.4L185.3 160.9L191.8 163L204.4 162.2L212.8 164C212.8 164 227 159.6 226.9 159.5C226.9 159.5 229 157.9 231.4 156.1C236.3 152.5 239.7 147.1 240.6 141.2C240.6 141.1 240.6 140.9 240.6 140.9C240.7 139.8 241.5 135.8 240.6 134.1C239.7 132.4 234.6 125.4 233.5 124C232.3 122.6 224.9 114.7 222 113.8C219.1 112.9 200.8 111.8 199.9 111.9C199 112 185.5 117.8 185.5 117.8L185.6 117.7Z" fill="url(#paint4_linear_258_9877)"></path><path style="mix-blend-mode:multiply" opacity="0.3" d="M217.9 157.8C217.9 158.8 215.8 159.7 213.3 159.8C210.8 159.9 208.7 159.2 208.7 158.2C208.7 157.2 210.8 156.3 213.3 156.2C215.8 156.1 217.9 156.8 217.9 157.8Z" fill="url(#paint5_linear_258_9877)"></path><path style="mix-blend-mode:multiply" opacity="0.3" d="M192 156.8C191.5 156.8 185.8 156.8 185.8 156.8C185.8 156.8 185.2 157.8 185.4 158C185.5 158.2 186.5 159.7 186.7 159.7C186.9 159.7 187.5 159.7 188.4 159.5C189.3 159.3 191.3 159.2 191.4 159C191.5 158.8 192.2 157.9 192.3 157.6C192.4 157.3 192 157 192 157V156.8Z" fill="url(#paint6_linear_258_9877)"></path><path d="M146.7 135L144.2 136.3L145.5 140.4L149 139.8L149.4 134.8L146.7 135Z" fill="url(#paint7_linear_258_9877)"></path><path style="mix-blend-mode:multiply" opacity="0.3" d="M233.6 123.9C233.2 123.5 232.3 122.5 231.2 121.3C227.9 121.3 223.8 121.4 220.2 122.3C212.6 124.2 204 119.5 204 119.5L178.8 120C177.2 120.5 175.4 121.1 173.5 121.7C170.6 122.8 166.9 124.6 162.8 127.3C154.3 133 160.7 129.8 156.3 132.3C151.9 134.8 150.6 137.2 150.9 141C151.2 144.8 154.3 145.2 158.2 148.8C162.1 152.3 164.9 153.1 170.7 151.9C176.5 150.7 190.2 151.2 190.2 151.2C190.2 151.2 194.8 151.9 201.8 154.1C208.8 156.3 208.9 154.7 212.2 155.7C215.6 156.8 222.4 155 225.5 155C228.6 155 230.3 147.4 230.3 147.4L230 136.9L228.4 129.7C228.4 129.7 231.4 126.8 233.9 124.5C233.7 124.2 233.5 124 233.4 123.8L233.6 123.9Z" fill="url(#paint8_linear_258_9877)"></path><path style="mix-blend-mode:multiply" opacity="0.3" d="M224.8 160.4C222.3 159.3 217.9 159.5 206.6 160.1C195.3 160.7 199 162.6 191.9 157.8C184.9 153 175.1 150.9 170.9 152C166.6 153.1 161.7 154.1 154 152.9C146.3 151.7 154 148.6 151 145.8C149.5 144.3 146.2 141.8 143.3 139.9C142.9 140.6 142.6 141 142.6 141C142.6 141 142.3 148 142.6 148.1C142.9 148.2 147 153.4 147.8 153.8C148.6 154.2 155.4 159.2 155.4 159.2C155.4 159.2 161.9 157.7 162.4 157.7C162.9 157.7 167.7 159.5 167.7 159.9C167.7 160.3 178.9 161.6 178.9 161.6L185.4 161.1L191.9 163.2L204.5 162.4L212.9 164.2C212.9 164.2 220.7 161.8 224.7 160.5L224.8 160.4Z" fill="url(#paint9_linear_258_9877)"></path><path style="mix-blend-mode:multiply" opacity="0.3" d="M160.4 127.8C160.4 127.8 160.2 127.8 159.9 127.9L179.9 136L185.1 125.5L186.2 113.1L185.8 111.8L170.1 101.8L173.6 115L172.3 125.6L160.5 127.8H160.4Z" fill="url(#paint10_linear_258_9877)"></path><path d="M177.3 140.5L170 43.3L196.8 22.5L224.7 37.3C224.7 37.3 213.3 138.2 212.8 138.1C212.2 138 177.3 140.5 177.3 140.5Z" fill="url(#paint11_linear_258_9877)"></path><mask id="mask0_258_9877" style="mask-type:luminance" maskUnits="userSpaceOnUse" x="170" y="22" width="55" height="119"><path d="M177.3 140.5L170 43.3L196.8 22.5L224.7 37.3C224.7 37.3 213.3 138.2 212.8 138.1C212.2 138 177.3 140.5 177.3 140.5Z" fill="white"></path></mask><g mask="url(#mask0_258_9877)"><g style="mix-blend-mode:screen" opacity="0.4"><path d="M206.2 95.5L217.3 60L228.5 57.6L232.7 82.8L212 126.7L204.3 106.2L206.2 95.5Z" fill="url(#paint12_linear_258_9877)"></path><path d="M217.2 76.1L205.4 109.2L207.4 114.5L222.8 86.2L217.2 76.1Z" fill="url(#paint13_linear_258_9877)"></path><path d="M222.8 86.2L207.4 114.5L212 126.7L232.7 82.8L222.8 86.2Z" fill="url(#paint14_linear_258_9877)"></path><path d="M232.7 82.8L222.7 86.2C222.7 86.2 222.7 72.9 223 72.3C223.3 71.7 228.5 57.6 228.5 57.6L232.7 82.8Z" fill="#B560B4"></path><path d="M217.2 76.1L222.8 86.2L228.5 57.6L218.7 71.3L217.2 76.1Z" fill="#DA91E1"></path><path d="M217.3 60L217.2 76.1L228.5 57.6L217.3 60Z" fill="#E4ABEF"></path><path d="M218 61L217.9 73L226.4 59.2L218 61Z" fill="url(#paint15_linear_258_9877)"></path><path d="M217.4 62L217.2 76.1L212.4 87.4L211.9 79.6L217.4 62Z" fill="url(#paint16_linear_258_9877)"></path><path d="M217.2 61L216.9 76.1C216.9 76.1 213.9 85.3 214.2 84.6C214.5 83.9 217.2 76.9 217.2 76.9C217.2 76.9 222.4 85.9 222.3 86.1C222.2 86.3 220.9 89.6 221 89.4C221.1 89.2 223 86.5 223 86.5L225.2 85.4H223.3L226.4 68L222.6 85.2L217.8 76.2C217.8 76.2 221.3 69.4 221.2 69.5C221.1 69.7 217.8 74.3 217.8 74.3L217.2 60.9V61Z" fill="url(#paint17_linear_258_9877)"></path></g><path style="mix-blend-mode:multiply" d="M177.3 140.5L170 43.3L196.8 22.5L224.7 37.3C224.7 37.3 213.3 138.2 212.8 138.1C212.2 138 177.3 140.5 177.3 140.5Z" fill="url(#paint18_linear_258_9877)"></path></g><path d="M170 43.3L188.1 60.7L196.8 22.5L170 43.3Z" fill="#E4ABEF"></path><path d="M211.4 55.7L188.1 60.7L196.8 22.5L211.4 55.7Z" fill="#DA91E1"></path><path d="M224.8 37.3L211.4 55.7L196.8 22.5L224.8 37.3Z" fill="#B560B4"></path><path d="M177.7 145.5L146 117.1L144.2 91.4L170 99.2L194.2 128.5L177.7 145.5Z" fill="url(#paint19_linear_258_9877)"></path><path d="M170 99.2L164.5 110.2L155.1 117.4L146 117.1L144.2 91.4L170 99.2Z" fill="#DA91E1"></path><path d="M164.5 110.2L186.5 132.9L194.2 128.5L170 99.2L164.5 110.2Z" fill="url(#paint20_linear_258_9877)"></path><path d="M155.1 117.4L182.3 140.8L188.8 134.4L164.5 110.2L155.1 117.4Z" fill="#D9AFDE"></path><path d="M164.5 110.2L144.2 91.4L170 99.2L164.5 110.2Z" fill="url(#paint21_linear_258_9877)"></path><path d="M155.1 117.4L144.2 91.4L164.5 110.2L155.1 117.4Z" fill="url(#paint22_linear_258_9877)"></path><path d="M146.7 93.4L163.5 108.5L170.5 99.7L164.5 110.1L155.2 117.3L146.6 117.1L153.2 116.1L145.5 93.8C145.5 93.8 154.2 117.1 154.9 116.3C155.6 115.5 163.3 109.9 163 109.7C162.7 109.5 146.8 93.4 146.8 93.4H146.7Z" fill="#ECC5EF"></path><path d="M188.1 60.7L193.2 143.9L177.3 140.5L170 43.3L188.1 60.7Z" fill="url(#paint23_linear_258_9877)"></path><mask id="mask1_258_9877" style="mask-type:luminance" maskUnits="userSpaceOnUse" x="170" y="43" width="24" height="101"><path d="M188.1 60.7L193.2 143.9L177.3 140.5L170 43.3L188.1 60.7Z" fill="white"></path></mask><g mask="url(#mask1_258_9877)"><g style="mix-blend-mode:screen" opacity="0.3"><path d="M183.7 129.3L169.4 89.2L172.6 71.2L187 81.8L201.9 126.5L183.7 129.3Z" fill="url(#paint24_linear_258_9877)"></path><path d="M187 81.8L181.2 90.7L174.9 93.9L169.4 89.2L172.6 71.2L187 81.8Z" fill="#DA91E1"></path><path d="M181.2 90.7L193.1 124.5L201.9 126.5L187 81.8L181.2 90.7Z" fill="url(#paint25_linear_258_9877)"></path><path d="M174.9 93.9L187.9 128.7L194.8 127.9L181.2 90.7L174.9 93.9Z" fill="url(#paint26_linear_258_9877)"></path><path d="M181.2 90.7L172.6 71.2L187 81.8L181.2 90.7Z" fill="url(#paint27_linear_258_9877)"></path><path d="M174.9 93.9L172.6 71.2L181.2 90.7L174.9 93.9Z" fill="url(#paint28_linear_258_9877)"></path><path d="M173.5 73.2L180.8 88.9L187.1 82.5L181.1 90.7L174.8 93.9L169.5 89.3L174 92.2L172.8 73.3C172.8 73.3 174.4 93.3 174.8 92.9C175.3 92.5 180.4 90.1 180.2 89.8C180 89.5 173.4 73.2 173.4 73.2H173.5Z" fill="url(#paint29_linear_258_9877)"></path></g><path style="mix-blend-mode:multiply" d="M188.1 60.7L193.2 143.9L177.3 140.5L170 43.3L188.1 60.7Z" fill="url(#paint30_linear_258_9877)"></path></g><path d="M211.4 55.7L204.3 144.3L193.2 143.9L188.1 60.7L211.4 55.7Z" fill="url(#paint31_linear_258_9877)"></path><mask id="mask2_258_9877" style="mask-type:luminance" maskUnits="userSpaceOnUse" x="188" y="55" width="24" height="90"><path d="M211.4 55.7L204.3 144.3L193.2 143.9L188.1 60.7L211.4 55.7Z" fill="white"></path></mask><g mask="url(#mask2_258_9877)"><g style="mix-blend-mode:screen" opacity="0.2"><path d="M181.8 140.2L191.1 100.8L208.1 84.4L217.2 100.1L206.9 139.8L193.8 144.7L181.8 140.2Z" fill="url(#paint32_linear_258_9877)"></path><path d="M203.5 107.6L188.7 142.8L181.8 140.2L191.1 100.8L203.5 107.6Z" fill="url(#paint33_linear_258_9877)"></path><path d="M208.1 84.4L203.5 107.6L191.1 100.8L208.1 84.4Z" fill="#E4ABEF"></path><path d="M217.2 100.1L203.5 107.6L208.1 84.4L217.2 100.1Z" fill="#DA91E1"></path><path d="M206.9 139.8L217.2 100.1L203.5 107.6L200.6 142.2L206.9 139.8Z" fill="url(#paint34_linear_258_9877)"></path><path style="mix-blend-mode:multiply" opacity="0.3" d="M201.1 138.6L190 139.1L184 130.6L181.8 140.2L193.8 144.7L206.9 139.8L209.4 130.3L201.1 138.6Z" fill="url(#paint35_linear_258_9877)"></path><path d="M192.8 100.1L206.4 87.3L202.6 104.5L192.8 100.1Z" fill="url(#paint36_linear_258_9877)"></path></g><g style="mix-blend-mode:screen" opacity="0.2"><path d="M174 113.5L194.7 78.1999L215.5 67.4999L219.4 85.4999L197.7 120.8L183.9 121.6L174 113.5Z" fill="url(#paint37_linear_258_9877)"></path><path d="M204.3 88.6L179.7 118.2L174 113.5L194.7 78.2L204.3 88.6Z" fill="url(#paint38_linear_258_9877)"></path><path d="M215.5 67.4999L204.3 88.5999L194.7 78.1999L215.5 67.4999Z" fill="#E4ABEF"></path><path d="M219.4 85.4999L204.3 88.5999L215.5 67.4999L219.4 85.4999Z" fill="#DA91E1"></path><path d="M197.7 120.8L219.4 85.4999L204.3 88.5999L191 121.3L197.7 120.8Z" fill="url(#paint39_linear_258_9877)"></path><path style="mix-blend-mode:multiply" opacity="0.3" d="M192.5 117.9L182 114.9L179 105L174 113.5L183.9 121.6L197.7 120.8L202.9 112.3L192.5 117.9Z" fill="url(#paint40_linear_258_9877)"></path><path d="M196.4 78.0999L213.1 69.7999L204.3 85.2999L196.4 78.0999Z" fill="url(#paint41_linear_258_9877)"></path></g><path style="mix-blend-mode:multiply" d="M211.4 55.7L204.3 144.3L193.2 143.9L188.1 60.7L211.4 55.7Z" fill="url(#paint42_linear_258_9877)"></path></g><path style="mix-blend-mode:multiply" opacity="0.3" d="M174.7 105.9L177.3 140.5C177.3 140.5 212.3 138 212.8 138.1C213.1 138.1 216.9 105.6 220.2 77.5L207.6 100.1L199.7 109.5L192.4 127.4L174.8 105.8L174.7 105.9Z" fill="url(#paint43_linear_258_9877)"></path><path d="M202.8 152L167.7 149.3L151.1 138.6C151.1 138.6 166.3 130.5 166.5 130.5C166.7 130.5 206.6 136.7 206.6 136.7L202.8 152Z" fill="url(#paint44_linear_258_9877)"></path><path d="M167.6 149.3L171.3 144.6L167.9 140.2L171.8 135.8L166.4 130.5L151 138.6L167.6 149.3Z" fill="#B560B4"></path><path d="M151 138.6L167.9 140.2L171.8 135.8L166.4 130.5L151 138.6Z" fill="#E4ABEF"></path><path d="M153.9 137.8L166 138.9L168.8 135.8L165 131.9L153.9 137.8Z" fill="url(#paint45_linear_258_9877)"></path><path d="M171.3 144.6L207.7 146.8L202.8 152L167.6 149.3L171.3 144.6Z" fill="url(#paint46_linear_258_9877)"></path><path d="M171.8 135.8C171.8 135.8 205.3 141.7 205.4 141.5C205.5 141.3 206.5 136.7 206.5 136.7L166.4 130.5L171.8 135.9V135.8Z" fill="url(#paint47_linear_258_9877)"></path><path style="mix-blend-mode:multiply" opacity="0.3" d="M188.4 150.9L202.8 152L206.6 136.7C206.6 136.7 200.9 135.8 193.7 134.7L196.6 140.3L195.8 146.2L188.4 151V150.9Z" fill="url(#paint48_linear_258_9877)"></path><path d="M171.6 43.2L195.4 24.4L187.3 57.9L171.6 43.2Z" fill="url(#paint49_linear_258_9877)"></path><path d="M167.7 131.1L171.8 135.2L195.3 139.3L193.6 135.1L167.7 131.1Z" fill="url(#paint50_linear_258_9877)"></path><path d="M209.4 110.9L224.9 70.3L247.5 60.8L255.4 83.6L227.9 136.6L207.8 122.1L209.4 110.9Z" fill="url(#paint51_linear_258_9877)"></path><path d="M228.1 85.5L210.7 124.3L220.1 136.3L241.6 91.5L228.1 85.5Z" fill="url(#paint52_linear_258_9877)"></path><path style="mix-blend-mode:multiply" opacity="0.3" d="M207.8 122.1L227.9 136.6L235.5 124.2L230 108.2L220.9 101.9L216.7 91.9L209.4 110.9L207.8 122.1Z" fill="url(#paint53_linear_258_9877)"></path><path d="M255.4 83.6L241.5 91.5C241.5 91.5 238.9 78.9 239.1 78.2C239.3 77.5 247.4 60.9 247.4 60.9L255.3 83.7L255.4 83.6Z" fill="#B560B4"></path><path d="M228.1 85.5L241.6 91.5L247.5 60.8L230.1 80L228.1 85.5Z" fill="#DA91E1"></path><path d="M224.9 70.3L228.1 85.5L247.5 60.8L224.9 70.3Z" fill="#E4ABEF"></path><path d="M226.6 70.7L229 82.1L243.5 63.6L226.6 70.7Z" fill="url(#paint54_linear_258_9877)"></path><path d="M225 70.7L227.6 85.6C227.6 85.6 223.3 96.2 223.6 95.4C223.9 94.6 228.2 86.2 228.2 86.2C228.2 86.2 240.8 91.4 240.6 91.7C240.4 92 237.6 97.3 236.1 101.2C236 101.5 242.1 91.6 242.1 91.6L249.9 86.8L242.4 90.5L245.2 72.1L241 90.7L229.2 85.3C229.2 85.3 247.6 60.7 247.4 60.9C243.5 65.2 228.9 83.5 228.9 83.5L224.9 70.8L225 70.7Z" fill="#F4C9F6"></path><path style="mix-blend-mode:multiply" opacity="0.3" d="M232.9 134.2H230.5C230.5 134.3 229 135.9 229 135.9L227.9 140.1C229.1 140.2 228.9 140.3 229.6 140.5C230.3 140.7 231 141 231.6 140.5C232.2 140 234.8 137.7 235.1 136.1C235.4 134.6 232.9 134.2 232.8 134.2H232.9Z" fill="url(#paint55_linear_258_9877)"></path><path d="M229.6 132.8L225.3 135.9L227 139.5L229.9 140L231.9 137.7L233.8 136.5C233.8 136.5 234.2 134.9 233.8 134.6C233.4 134.3 229.6 132.8 229.6 132.8Z" fill="url(#paint56_linear_258_9877)"></path><path d="M229.6 132.8C229.6 132.8 233.9 136.4 233.8 136.5C233.6 136.5 231.9 137.7 231.9 137.7L229.4 135.9L228.9 134.4L229.7 132.8H229.6Z" fill="url(#paint57_linear_258_9877)"></path><path d="M231.9 137.7L229.3 135.9L227.4 138.7L227 139.5L229.9 140L231.9 137.7Z" fill="url(#paint58_linear_258_9877)"></path><path d="M199.5 151.8L202.4 111.8L216.8 95.4L228.7 111.1L224.8 150.9L212.4 155.8L199.5 151.8Z" fill="url(#paint59_linear_258_9877)"></path><path d="M216.1 118.6L206.9 153.9L199.5 151.8L202.4 111.8L216.1 118.6Z" fill="url(#paint60_linear_258_9877)"></path><path d="M216.8 95.4L216.1 118.6L202.4 111.8L216.8 95.4Z" fill="#E4ABEF"></path><path d="M228.7 111.1L216.1 118.6L216.8 95.4L228.7 111.1Z" fill="#DA91E1"></path><path d="M224.8 150.9L228.7 111.1L216.1 118.6L218.8 153.3L224.8 150.9Z" fill="url(#paint61_linear_258_9877)"></path><path style="mix-blend-mode:multiply" opacity="0.3" d="M218.7 149.7L207.6 150.1L200.2 141.7L199.5 151.8L212.4 155.8L224.8 150.9L225.7 141.3L218.7 149.7Z" fill="url(#paint62_linear_258_9877)"></path><path d="M204 111.1L215.6 98.3L214.7 115.5L204 111.1Z" fill="url(#paint63_linear_258_9877)"></path><mask id="mask3_258_9877" style="mask-type:luminance" maskUnits="userSpaceOnUse" x="199" y="111" width="18" height="43"><path d="M216.1 118.6L206.9 153.9L199.5 151.8L202.4 111.8L216.1 118.6Z" fill="white"></path></mask><g mask="url(#mask3_258_9877)"><g style="mix-blend-mode:screen" opacity="0.3"><path d="M198.8 153.8L197.9 133.3L202.8 122.4C202.8 122.4 208.4 130.1 208.4 130.2C208.4 130.3 207.7 154 207.7 154L198.8 153.7V153.8Z" fill="url(#paint64_linear_258_9877)"></path><path d="M197.9 133.3L200.8 134.8L203 132.3L205.7 134L208.4 130.2L202.7 122.4L197.9 133.3Z" fill="#B560B4"></path><path d="M202.7 122.4L203 132.3L205.7 134L208.4 130.2L202.7 122.4Z" fill="#E4ABEF"></path><path d="M203.4 124L203.6 131.1L205.6 132.3L207.4 129.6L203.4 124Z" fill="url(#paint65_linear_258_9877)"></path><path d="M200.8 134.8L202.1 156L198.8 153.8L197.9 133.3L200.8 134.8Z" fill="url(#paint66_linear_258_9877)"></path><path d="M205.7 134C205.7 134 204.7 154 204.8 154C204.9 154 207.6 154 207.6 154L208.3 130.2L205.7 134Z" fill="url(#paint67_linear_258_9877)"></path><path d="M208.1 131L206.1 133.9L205.4 148L207.6 146.4L208.1 131Z" fill="url(#paint68_linear_258_9877)"></path><path d="M202.8 124.1V132.2L200.7 134.5L198.5 133.6L200.6 135.1C200.6 135.1 202.9 132.5 203.1 132.6C203.3 132.7 205.8 134 205.8 134L203.5 132.3L202.8 124.1Z" fill="url(#paint69_linear_258_9877)"></path></g></g><path d="M223.8 38.7L211.4 54.4C211.4 54.4 197.1 23 196.9 22.5C196.7 22 210 54.1 210.3 55.2C210.6 56.3 188.1 59.8 188.1 59.8L170 43.3L186.5 59.9L192.6 134.8L189.1 61.4C192.7 60.6 205.6 57.7 210.2 56.7L207.1 109.1L212.6 55.8H212.4C214.7 52.9 223.8 38.7 223.8 38.7Z" fill="#FAE6FB"></path><path d="M204 112.6L215.6 118L216.6 102.1L216.2 118C216.2 118 226.2 112.6 225.9 112.7C225.6 112.8 216 118.9 216 118.9L203.9 112.6H204Z" fill="#F4C9F6"></path><path d="M153.9 138.9L167.6 140.7L170.7 144.7L168.4 148.4L171.8 145.1C171.8 145.1 168.2 140.5 168.4 140.3C168.6 140.1 171.8 135.9 171.8 135.9L168.1 139.5L153.9 138.9Z" fill="url(#paint70_linear_258_9877)"></path><path d="M145.5 140.4C145.5 140.4 147.1 137.7 147.1 137.6L146.8 134.9H149.5C149.5 134.8 149.3 137.5 149.3 137.5L149.1 139.7L145.6 140.3L145.5 140.4Z" fill="url(#paint71_linear_258_9877)"></path><path d="M147 137.6C146.8 137.6 144.2 136.3 144.2 136.3L145.5 140.4L147.1 137.6H147Z" fill="url(#paint72_linear_258_9877)"></path><path d="M191.9 156.8L191.6 153.6L189.3 151.2L186.4 153.6C186.4 153.6 185.9 158.2 186.4 158.4C186.9 158.6 188.9 158.5 188.9 158.5H191C191 158.4 191.9 156.6 191.9 156.6V156.8Z" fill="url(#paint73_linear_258_9877)"></path><path d="M188.7 154.1L188.9 158.7H186.4C186.4 158.6 186.2 153.7 186.4 153.7C186.6 153.7 188.7 154.1 188.7 154.1Z" fill="url(#paint74_linear_258_9877)"></path><path d="M190.7 154L191 158.6L191.9 156.8L191.6 153.7L190.7 154Z" fill="url(#paint75_linear_258_9877)"></path><path d="M186.4 153.7L189.3 151.3L191.6 153.7C191.6 153.7 190.8 154.1 190.7 154C190.6 153.9 188.8 154.1 188.8 154.1C188.8 154.1 187.5 153.8 186.5 153.7H186.4Z" fill="#DA91E1"></path><path d="M191.6 153.7C191.6 153.7 190.8 154.1 190.7 154L189.3 151.3L191.6 153.7Z" fill="url(#paint76_linear_258_9877)"></path><path d="M189.3 151.3L188.7 154.1L186.4 153.7L189.3 151.3Z" fill="url(#paint77_linear_258_9877)"></path><path d="M210.3 157.9L210.2 151.7L214.3 150.5L217.9 153.9L216.3 158L214.3 159.4H212L210.3 157.9Z" fill="url(#paint78_linear_258_9877)"></path><path d="M217.9 153.9L214.9 154.8L212 154.4L210.2 151.7L214.3 150.5L217.9 153.9Z" fill="#DA91E1"></path><path d="M214.9 154.8L214.3 159.4L216.3 158L217.9 153.9L214.9 154.8Z" fill="url(#paint79_linear_258_9877)"></path><path d="M212 154.4V159.4H214.3L214.9 154.8L212 154.4Z" fill="url(#paint80_linear_258_9877)"></path><path d="M214.9 154.8L214.3 150.5L217.9 153.9L214.9 154.8Z" fill="url(#paint81_linear_258_9877)"></path><path d="M212 154.4L214.3 150.5L214.9 154.8L212 154.4Z" fill="url(#paint82_linear_258_9877)"></path><path style="mix-blend-mode:multiply" opacity="0.3" d="M149.8 152.2C149.8 153.2 151.9 153.9 154.4 153.8C156.9 153.7 159 152.8 159 151.8C159 150.8 156.9 150.1 154.4 150.2C151.9 150.3 149.8 151.2 149.8 152.2Z" fill="url(#paint83_linear_258_9877)"></path><path d="M157.4 151.5L153.5 145.5L148.1 143.4L148.4 148.3L151.4 152.2L153.4 153.4L155.7 153.1L157.4 151.5Z" fill="url(#paint84_linear_258_9877)"></path><path d="M148.4 148.3L150.2 149L153.1 148.2L153.5 145.5L148.1 143.4L148.4 148.3Z" fill="url(#paint85_linear_258_9877)"></path><path d="M150.2 149L153.4 153.4L151.4 152.2L148.4 148.3L150.2 149Z" fill="url(#paint86_linear_258_9877)"></path><path d="M153.1 148.2L155.7 153.1L153.4 153.4L150.2 149L153.1 148.2Z" fill="url(#paint87_linear_258_9877)"></path><path d="M150.2 149L148.1 143.4L148.4 148.3L150.2 149Z" fill="url(#paint88_linear_258_9877)"></path><path d="M153.1 148.2L148.1 143.4L150.2 149L153.1 148.2Z" fill="url(#paint89_linear_258_9877)"></path><path d="M155.6 164V159L162.6 157.5C162.6 157.5 163 162.3 162.6 162.3C162.3 162.3 155.6 163.9 155.6 163.9V164Z" fill="url(#paint90_linear_258_9877)"></path><path d="M167.9 164.8V159.7L179 161.4V166.8C179 166.8 169.4 165.8 167.9 164.8Z" fill="url(#paint91_linear_258_9877)"></path><path d="M185.5 160.9V166.3C185.5 166.3 191.9 169.6 192 168.7C192.1 167.8 192 163 192 163L185.5 160.9Z" fill="url(#paint92_linear_258_9877)"></path><path d="M204.6 167.9V162.2L213 164.1V170L204.6 167.9Z" fill="url(#paint93_linear_258_9877)"></path><path d="M227.1 159.6V165.1C227.1 165.1 213 170.6 213 170C213 169.5 213 164.1 213 164.1L227.1 159.6Z" fill="url(#paint94_linear_258_9877)"></path><mask id="mask4_258_9877" style="mask-type:luminance" maskUnits="userSpaceOnUse" x="188" y="22" width="24" height="39"><path d="M211.4 55.7L188.1 60.7L196.8 22.5L211.4 55.7Z" fill="white"></path></mask><g mask="url(#mask4_258_9877)"><g style="mix-blend-mode:screen" opacity="0.2"><path d="M180.7 82.9L192.3 44.1L210.1 28.7L218.3 44.8L205.8 84L192.4 88.2L180.7 82.9Z" fill="url(#paint95_linear_258_9877)"></path><path d="M204.2 51.6L187.4 86L180.7 82.9L192.3 44.1L204.2 51.6Z" fill="url(#paint96_linear_258_9877)"></path><path d="M210.1 28.7L204.2 51.6L192.3 44.1L210.1 28.7Z" fill="#E4ABEF"></path><path d="M218.3 44.8L204.2 51.6L210.1 28.7L218.3 44.8Z" fill="#DA91E1"></path><path d="M205.8 84L218.3 44.8L204.2 51.6L199.3 86.1L205.8 84Z" fill="url(#paint97_linear_258_9877)"></path><path d="M194 43.5L208.3 31.4L203.5 48.5L194 43.5Z" fill="url(#paint98_linear_258_9877)"></path></g></g></g><defs><linearGradient id="paint0_linear_258_9877" x1="199" y1="127" x2="199" y2="274" gradientUnits="userSpaceOnUse"><stop stop-color="#FECAFC"></stop><stop offset="1" stop-color="#B560B4"></stop></linearGradient><linearGradient id="paint1_linear_258_9877" x1="195.072" y1="125.138" x2="197.697" y2="176.972" gradientUnits="userSpaceOnUse"><stop stop-color="#CAABCE"></stop><stop offset="1" stop-color="#9889AB"></stop></linearGradient><linearGradient id="paint2_linear_258_9877" x1="240.251" y1="119.645" x2="241.982" y2="153.801" gradientUnits="userSpaceOnUse"><stop stop-color="#CAABCE"></stop><stop offset="1" stop-color="#8D7F9E"></stop></linearGradient><linearGradient id="paint3_linear_258_9877" x1="196.803" y1="161.297" x2="194.86" y2="122.946" gradientUnits="userSpaceOnUse"><stop stop-color="#CAABCE"></stop><stop offset="1" stop-color="#9889AB"></stop></linearGradient><linearGradient id="paint4_linear_258_9877" x1="196.803" y1="161.297" x2="194.86" y2="122.946" gradientUnits="userSpaceOnUse"><stop stop-color="#F1E1F2"></stop><stop offset="1" stop-color="#D4C6E1"></stop></linearGradient><linearGradient id="paint5_linear_258_9877" x1="232.436" y1="157.089" x2="219.752" y2="157.731" gradientUnits="userSpaceOnUse"><stop stop-color="#CAABCE"></stop><stop offset="1" stop-color="#9889AB"></stop></linearGradient><linearGradient id="paint6_linear_258_9877" x1="190.129" y1="158.03" x2="197.021" y2="157.681" gradientUnits="userSpaceOnUse"><stop stop-color="#CAABCE"></stop><stop offset="1" stop-color="#9889AB"></stop></linearGradient><linearGradient id="paint7_linear_258_9877" x1="151.4" y1="141.6" x2="168.5" y2="158.8" gradientUnits="userSpaceOnUse"><stop stop-color="#F4D4FF"></stop><stop offset="1" stop-color="#9F46AB"></stop></linearGradient><linearGradient id="paint8_linear_258_9877" x1="199.237" y1="195.517" x2="197.102" y2="153.371" gradientUnits="userSpaceOnUse"><stop stop-color="#CAABCE"></stop><stop offset="1" stop-color="#9889AB"></stop></linearGradient><linearGradient id="paint9_linear_258_9877" x1="188.138" y1="152.324" x2="186.337" y2="116.769" gradientUnits="userSpaceOnUse"><stop stop-color="#CAABCE"></stop><stop offset="1" stop-color="#9889AB"></stop></linearGradient><linearGradient id="paint10_linear_258_9877" x1="165.02" y1="111.04" x2="181.313" y2="124.333" gradientUnits="userSpaceOnUse"><stop stop-color="#9F58A8"></stop><stop offset="1" stop-color="#7E3987"></stop></linearGradient><linearGradient id="paint11_linear_258_9877" x1="199.6" y1="37.3" x2="183.6" y2="141.8" gradientUnits="userSpaceOnUse"><stop stop-color="#AC47BA"></stop><stop offset="1" stop-color="#D9AFDE"></stop></linearGradient><linearGradient id="paint12_linear_258_9877" x1="294.911" y1="80.9966" x2="275.151" y2="102.555" gradientUnits="userSpaceOnUse"><stop stop-color="#C372CE"></stop><stop offset="1" stop-color="#D9AFDE"></stop></linearGradient><linearGradient id="paint13_linear_258_9877" x1="285.923" y1="91.0636" x2="272.356" y2="103.515" gradientUnits="userSpaceOnUse"><stop stop-color="#C372CE"></stop><stop offset="1" stop-color="#D9AFDE"></stop></linearGradient><linearGradient id="paint14_linear_258_9877" x1="297.218" y1="94.7616" x2="259.85" y2="123.107" gradientUnits="userSpaceOnUse"><stop stop-color="#AC47BA"></stop><stop offset="1" stop-color="#D9AFDE"></stop></linearGradient><linearGradient id="paint15_linear_258_9877" x1="295.234" y1="65.0463" x2="298.718" y2="69.5869" gradientUnits="userSpaceOnUse"><stop stop-color="white"></stop><stop offset="1" stop-color="white"></stop></linearGradient><linearGradient id="paint16_linear_258_9877" x1="294.971" y1="71.2299" x2="283.054" y2="80.8908" gradientUnits="userSpaceOnUse"><stop stop-color="white"></stop><stop offset="1" stop-color="white"></stop></linearGradient><linearGradient id="paint17_linear_258_9877" x1="284.813" y1="87.4641" x2="296.162" y2="77.5413" gradientUnits="userSpaceOnUse"><stop stop-color="white"></stop><stop offset="1" stop-color="white"></stop></linearGradient><linearGradient id="paint18_linear_258_9877" x1="199.6" y1="37.3" x2="183.6" y2="141.8" gradientUnits="userSpaceOnUse"><stop offset="0.2" stop-color="white"></stop><stop offset="0.3" stop-color="#EAE7EC"></stop><stop offset="0.4" stop-color="#C7BECE"></stop><stop offset="0.5" stop-color="#AA9DB4"></stop><stop offset="0.6" stop-color="#9383A1"></stop><stop offset="0.8" stop-color="#837193"></stop><stop offset="0.9" stop-color="#7A668A"></stop><stop offset="1" stop-color="#776388"></stop></linearGradient><linearGradient id="paint19_linear_258_9877" x1="134.15" y1="103.617" x2="168.363" y2="130.633" gradientUnits="userSpaceOnUse"><stop offset="0.3" stop-color="#C372CE"></stop><stop offset="1" stop-color="#776388"></stop></linearGradient><linearGradient id="paint20_linear_258_9877" x1="142.32" y1="100.241" x2="154.442" y2="110.167" gradientUnits="userSpaceOnUse"><stop offset="0.3" stop-color="#C372CE"></stop><stop offset="1" stop-color="#776388"></stop></linearGradient><linearGradient id="paint21_linear_258_9877" x1="142.976" y1="97.8288" x2="120.298" y2="91.6674" gradientUnits="userSpaceOnUse"><stop stop-color="#C372CE"></stop><stop offset="1" stop-color="#D9AFDE"></stop></linearGradient><linearGradient id="paint22_linear_258_9877" x1="155.64" y1="106.14" x2="140.682" y2="102.076" gradientUnits="userSpaceOnUse"><stop stop-color="#C372CE"></stop><stop offset="1" stop-color="#D9AFDE"></stop></linearGradient><linearGradient id="paint23_linear_258_9877" x1="181.6" y1="136.9" x2="181.6" y2="72" gradientUnits="userSpaceOnUse"><stop offset="0.4" stop-color="#C372CE"></stop><stop offset="1" stop-color="#FFC6FC"></stop></linearGradient><linearGradient id="paint24_linear_258_9877" x1="149.899" y1="111.929" x2="170.949" y2="150.508" gradientUnits="userSpaceOnUse"><stop stop-color="#C372CE"></stop><stop offset="1" stop-color="#D9AFDE"></stop></linearGradient><linearGradient id="paint25_linear_258_9877" x1="152.818" y1="105.955" x2="161.921" y2="123.171" gradientUnits="userSpaceOnUse"><stop stop-color="#C372CE"></stop><stop offset="1" stop-color="#D9AFDE"></stop></linearGradient><linearGradient id="paint26_linear_258_9877" x1="147.276" y1="104.266" x2="159.131" y2="137.39" gradientUnits="userSpaceOnUse"><stop stop-color="#C372CE"></stop><stop offset="1" stop-color="#D9AFDE"></stop></linearGradient><linearGradient id="paint27_linear_258_9877" x1="154.701" y1="105.018" x2="141.42" y2="94.5672" gradientUnits="userSpaceOnUse"><stop stop-color="#C372CE"></stop><stop offset="1" stop-color="#D9AFDE"></stop></linearGradient><linearGradient id="paint28_linear_258_9877" x1="162.5" y1="115.482" x2="153.07" y2="108.061" gradientUnits="userSpaceOnUse"><stop stop-color="#C372CE"></stop><stop offset="1" stop-color="#D9AFDE"></stop></linearGradient><linearGradient id="paint29_linear_258_9877" x1="152.199" y1="116.283" x2="145.798" y2="91.2679" gradientUnits="userSpaceOnUse"><stop stop-color="white"></stop><stop offset="1" stop-color="white"></stop></linearGradient><linearGradient id="paint30_linear_258_9877" x1="184.5" y1="51.1" x2="180.1" y2="114.7" gradientUnits="userSpaceOnUse"><stop offset="0.4" stop-color="white"></stop><stop offset="1" stop-color="#776388"></stop></linearGradient><linearGradient id="paint31_linear_258_9877" x1="199.3" y1="71.2" x2="197.5" y2="131" gradientUnits="userSpaceOnUse"><stop stop-color="#C372CE"></stop><stop offset="1" stop-color="#D9AFDE"></stop></linearGradient><linearGradient id="paint32_linear_258_9877" x1="213.866" y1="137.836" x2="212.05" y2="101.982" gradientUnits="userSpaceOnUse"><stop stop-color="#C372CE"></stop><stop offset="1" stop-color="#9F46AB"></stop></linearGradient><linearGradient id="paint33_linear_258_9877" x1="207.108" y1="105.236" x2="199.411" y2="141.072" gradientUnits="userSpaceOnUse"><stop stop-color="#D591E1"></stop><stop offset="1" stop-color="#B45EC4"></stop></linearGradient><linearGradient id="paint34_linear_258_9877" x1="220.392" y1="106.566" x2="220.104" y2="146.332" gradientUnits="userSpaceOnUse"><stop stop-color="#C372CE"></stop><stop offset="1" stop-color="#9F46AB"></stop></linearGradient><linearGradient id="paint35_linear_258_9877" x1="213.426" y1="129.147" x2="210.19" y2="144.331" gradientUnits="userSpaceOnUse"><stop stop-color="#9F58A8"></stop><stop offset="1" stop-color="#7E3987"></stop></linearGradient><linearGradient id="paint36_linear_258_9877" x1="206.966" y1="86.6198" x2="207.856" y2="104.197" gradientUnits="userSpaceOnUse"><stop stop-color="white"></stop><stop offset="1" stop-color="white"></stop></linearGradient><linearGradient id="paint37_linear_258_9877" x1="115.184" y1="96.2172" x2="124.441" y2="61.4277" gradientUnits="userSpaceOnUse"><stop stop-color="#C372CE"></stop><stop offset="1" stop-color="#9F46AB"></stop></linearGradient><linearGradient id="paint38_linear_258_9877" x1="118.837" y1="63.0412" x2="100.554" y2="94.8081" gradientUnits="userSpaceOnUse"><stop stop-color="#D591E1"></stop><stop offset="1" stop-color="#B45EC4"></stop></linearGradient><linearGradient id="paint39_linear_258_9877" x1="130.983" y1="68.3424" x2="118.552" y2="106.116" gradientUnits="userSpaceOnUse"><stop stop-color="#C372CE"></stop><stop offset="1" stop-color="#9F46AB"></stop></linearGradient><linearGradient id="paint40_linear_258_9877" x1="117.543" y1="87.7389" x2="109.847" y2="101.109" gradientUnits="userSpaceOnUse"><stop stop-color="#9F58A8"></stop><stop offset="1" stop-color="#7E3987"></stop></linearGradient><linearGradient id="paint41_linear_258_9877" x1="124.271" y1="45.3432" x2="119.745" y2="62.3514" gradientUnits="userSpaceOnUse"><stop stop-color="white"></stop><stop offset="1" stop-color="white"></stop></linearGradient><linearGradient id="paint42_linear_258_9877" x1="199.791" y1="72.0312" x2="201.003" y2="131.546" gradientUnits="userSpaceOnUse"><stop stop-color="#EAE7EC"></stop><stop offset="0.2" stop-color="#C7BECE"></stop><stop offset="0.3" stop-color="#AA9DB4"></stop><stop offset="0.4" stop-color="#9383A1"></stop><stop offset="0.6" stop-color="#837193"></stop><stop offset="0.7" stop-color="#7A668A"></stop><stop offset="0.8" stop-color="#776388"></stop></linearGradient><linearGradient id="paint43_linear_258_9877" x1="185.699" y1="96.2752" x2="212.865" y2="118.629" gradientUnits="userSpaceOnUse"><stop stop-color="#9F58A8"></stop><stop offset="1" stop-color="#7E3987"></stop></linearGradient><linearGradient id="paint44_linear_258_9877" x1="163.711" y1="164.275" x2="176.89" y2="149.689" gradientUnits="userSpaceOnUse"><stop stop-color="#C372CE"></stop><stop offset="1" stop-color="#D9AFDE"></stop></linearGradient><linearGradient id="paint45_linear_258_9877" x1="154.396" y1="138.513" x2="170.538" y2="134.992" gradientUnits="userSpaceOnUse"><stop stop-color="white"></stop><stop offset="1" stop-color="white"></stop></linearGradient><linearGradient id="paint46_linear_258_9877" x1="177.138" y1="146.673" x2="201.569" y2="148.639" gradientUnits="userSpaceOnUse"><stop stop-color="#9F58A8"></stop><stop offset="1" stop-color="#7E3987"></stop></linearGradient><linearGradient id="paint47_linear_258_9877" x1="184.361" y1="135.093" x2="206.156" y2="138.394" gradientUnits="userSpaceOnUse"><stop stop-color="#D591E1"></stop><stop offset="1" stop-color="#B45EC4"></stop></linearGradient><linearGradient id="paint48_linear_258_9877" x1="201.854" y1="150.327" x2="201.318" y2="139.741" gradientUnits="userSpaceOnUse"><stop stop-color="#9F58A8"></stop><stop offset="1" stop-color="#7E3987"></stop></linearGradient><linearGradient id="paint49_linear_258_9877" x1="182.613" y1="35.3533" x2="187.589" y2="46.616" gradientUnits="userSpaceOnUse"><stop stop-color="white"></stop><stop offset="1" stop-color="white"></stop></linearGradient><linearGradient id="paint50_linear_258_9877" x1="172.731" y1="134.781" x2="183.857" y2="135.018" gradientUnits="userSpaceOnUse"><stop stop-color="white"></stop><stop offset="1" stop-color="white"></stop></linearGradient><linearGradient id="paint51_linear_258_9877" x1="252.97" y1="93.1989" x2="243.329" y2="122.58" gradientUnits="userSpaceOnUse"><stop offset="0.3" stop-color="#C372CE"></stop><stop offset="1" stop-color="#776388"></stop></linearGradient><linearGradient id="paint52_linear_258_9877" x1="237.366" y1="134.887" x2="244.124" y2="112.768" gradientUnits="userSpaceOnUse"><stop stop-color="#776388"></stop><stop offset="0.2" stop-color="#7C658C"></stop><stop offset="0.4" stop-color="#8C6E9B"></stop><stop offset="0.6" stop-color="#A67BB2"></stop><stop offset="0.9" stop-color="#CE91D6"></stop></linearGradient><linearGradient id="paint53_linear_258_9877" x1="224.289" y1="117.793" x2="245.172" y2="129.264" gradientUnits="userSpaceOnUse"><stop stop-color="#9F58A8"></stop><stop offset="1" stop-color="#7E3987"></stop></linearGradient><linearGradient id="paint54_linear_258_9877" x1="243.826" y1="78.322" x2="250.675" y2="82.7763" gradientUnits="userSpaceOnUse"><stop stop-color="white"></stop><stop offset="1" stop-color="white"></stop></linearGradient><linearGradient id="paint55_linear_258_9877" x1="231.5" y1="137.6" x2="231.5" y2="129.3" gradientUnits="userSpaceOnUse"><stop stop-color="#CAABCE"></stop><stop offset="1" stop-color="#9889AB"></stop></linearGradient><linearGradient id="paint56_linear_258_9877" x1="233.558" y1="139.71" x2="233.254" y2="133.717" gradientUnits="userSpaceOnUse"><stop stop-color="#C372CE"></stop><stop offset="1" stop-color="#D9AFDE"></stop></linearGradient><linearGradient id="paint57_linear_258_9877" x1="235.352" y1="141.521" x2="234.755" y2="129.736" gradientUnits="userSpaceOnUse"><stop stop-color="#C372CE"></stop><stop offset="1" stop-color="#D9AFDE"></stop></linearGradient><linearGradient id="paint58_linear_258_9877" x1="240.744" y1="147.156" x2="237.34" y2="143.223" gradientUnits="userSpaceOnUse"><stop stop-color="#C372CE"></stop><stop offset="1" stop-color="#D9AFDE"></stop></linearGradient><linearGradient id="paint59_linear_258_9877" x1="218.503" y1="148.883" x2="216.681" y2="112.929" gradientUnits="userSpaceOnUse"><stop stop-color="#9E6BAC"></stop><stop offset="0.3" stop-color="#C372CE"></stop></linearGradient><linearGradient id="paint60_linear_258_9877" x1="213.192" y1="115.209" x2="205.116" y2="143.553" gradientUnits="userSpaceOnUse"><stop offset="0.2" stop-color="#CE91D6"></stop><stop offset="0.5" stop-color="#CB8FD3"></stop><stop offset="0.6" stop-color="#C48BCD"></stop><stop offset="0.8" stop-color="#B684C1"></stop><stop offset="0.9" stop-color="#8C6E9A"></stop><stop offset="1" stop-color="#776388"></stop></linearGradient><linearGradient id="paint61_linear_258_9877" x1="226.26" y1="114.246" x2="222.643" y2="149.574" gradientUnits="userSpaceOnUse"><stop offset="0.2" stop-color="#CE91D6"></stop><stop offset="0.5" stop-color="#CB8FD3"></stop><stop offset="0.6" stop-color="#C48BCD"></stop><stop offset="0.8" stop-color="#B684C1"></stop><stop offset="0.9" stop-color="#8C6E9A"></stop><stop offset="1" stop-color="#776388"></stop></linearGradient><linearGradient id="paint62_linear_258_9877" x1="218.063" y1="140.194" x2="214.822" y2="155.277" gradientUnits="userSpaceOnUse"><stop stop-color="#9F58A8"></stop><stop offset="1" stop-color="#7E3987"></stop></linearGradient><linearGradient id="paint63_linear_258_9877" x1="211.598" y1="97.5666" x2="212.493" y2="115.244" gradientUnits="userSpaceOnUse"><stop stop-color="white"></stop><stop offset="1" stop-color="white"></stop></linearGradient><linearGradient id="paint64_linear_258_9877" x1="261.701" y1="185.137" x2="262.286" y2="199.101" gradientUnits="userSpaceOnUse"><stop stop-color="#C372CE"></stop><stop offset="1" stop-color="#9F46AB"></stop></linearGradient><linearGradient id="paint65_linear_258_9877" x1="260.71" y1="170.939" x2="263.971" y2="180.3" gradientUnits="userSpaceOnUse"><stop stop-color="white"></stop><stop offset="1" stop-color="white"></stop></linearGradient><linearGradient id="paint66_linear_258_9877" x1="257.802" y1="183.01" x2="258.381" y2="197.645" gradientUnits="userSpaceOnUse"><stop stop-color="#9F58A8"></stop><stop offset="1" stop-color="#7E3987"></stop></linearGradient><linearGradient id="paint67_linear_258_9877" x1="265.386" y1="186.023" x2="264.99" y2="199.243" gradientUnits="userSpaceOnUse"><stop stop-color="#D591E1"></stop><stop offset="1" stop-color="#B45EC4"></stop></linearGradient><linearGradient id="paint68_linear_258_9877" x1="264.383" y1="179.864" x2="265.053" y2="186.568" gradientUnits="userSpaceOnUse"><stop stop-color="white"></stop><stop offset="1" stop-color="white"></stop></linearGradient><linearGradient id="paint69_linear_258_9877" x1="259.254" y1="176.609" x2="261.909" y2="191.982" gradientUnits="userSpaceOnUse"><stop stop-color="white"></stop><stop offset="1" stop-color="white"></stop></linearGradient><linearGradient id="paint70_linear_258_9877" x1="165.405" y1="142.361" x2="191.471" y2="141.041" gradientUnits="userSpaceOnUse"><stop stop-color="white"></stop><stop offset="1" stop-color="white"></stop></linearGradient><linearGradient id="paint71_linear_258_9877" x1="151.212" y1="140.877" x2="150.812" y2="132.987" gradientUnits="userSpaceOnUse"><stop stop-color="#C372CE"></stop><stop offset="1" stop-color="#D9AFDE"></stop></linearGradient><linearGradient id="paint72_linear_258_9877" x1="149.288" y1="138.471" x2="148.928" y2="131.381" gradientUnits="userSpaceOnUse"><stop stop-color="#C372CE"></stop><stop offset="1" stop-color="#D9AFDE"></stop></linearGradient><linearGradient id="paint73_linear_258_9877" x1="193.717" y1="155.519" x2="193.975" y2="160.612" gradientUnits="userSpaceOnUse"><stop stop-color="#C372CE"></stop><stop offset="1" stop-color="#D9AFDE"></stop></linearGradient><linearGradient id="paint74_linear_258_9877" x1="192.835" y1="165.777" x2="192.647" y2="162.082" gradientUnits="userSpaceOnUse"><stop stop-color="#C372CE"></stop><stop offset="1" stop-color="#9F46AB"></stop></linearGradient><linearGradient id="paint75_linear_258_9877" x1="189.524" y1="157.734" x2="176.041" y2="158.417" gradientUnits="userSpaceOnUse"><stop stop-color="#C372CE"></stop><stop offset="1" stop-color="#9F46AB"></stop></linearGradient><linearGradient id="paint76_linear_258_9877" x1="192.96" y1="152.453" x2="195.899" y2="155.108" gradientUnits="userSpaceOnUse"><stop stop-color="#C372CE"></stop><stop offset="1" stop-color="#9F46AB"></stop></linearGradient><linearGradient id="paint77_linear_258_9877" x1="187.078" y1="160.862" x2="181.485" y2="167.053" gradientUnits="userSpaceOnUse"><stop stop-color="#F4D4FF"></stop><stop offset="1" stop-color="#9F46AB"></stop></linearGradient><linearGradient id="paint78_linear_258_9877" x1="69.2954" y1="273.44" x2="69.3268" y2="279.058" gradientUnits="userSpaceOnUse"><stop stop-color="#C372CE"></stop><stop offset="1" stop-color="#D9AFDE"></stop></linearGradient><linearGradient id="paint79_linear_258_9877" x1="71.1656" y1="273.9" x2="71.1285" y2="275.913" gradientUnits="userSpaceOnUse"><stop stop-color="#C372CE"></stop><stop offset="1" stop-color="#D9AFDE"></stop></linearGradient><linearGradient id="paint80_linear_258_9877" x1="68.8561" y1="272.061" x2="68.2804" y2="275.913" gradientUnits="userSpaceOnUse"><stop stop-color="#C372CE"></stop><stop offset="1" stop-color="#D9AFDE"></stop></linearGradient><linearGradient id="paint81_linear_258_9877" x1="73.3867" y1="277.186" x2="71.8974" y2="273.777" gradientUnits="userSpaceOnUse"><stop stop-color="#C372CE"></stop><stop offset="1" stop-color="#D9AFDE"></stop></linearGradient><linearGradient id="paint82_linear_258_9877" x1="213.4" y1="164.3" x2="213.4" y2="156.3" gradientUnits="userSpaceOnUse"><stop stop-color="#C372CE"></stop><stop offset="1" stop-color="#F9C9FF"></stop></linearGradient><linearGradient id="paint83_linear_258_9877" x1="141.905" y1="154.244" x2="154.588" y2="153.602" gradientUnits="userSpaceOnUse"><stop stop-color="#CAABCE"></stop><stop offset="1" stop-color="#9889AB"></stop></linearGradient><linearGradient id="paint84_linear_258_9877" x1="-17.4959" y1="288.913" x2="-17.4634" y2="295.366" gradientUnits="userSpaceOnUse"><stop stop-color="#C372CE"></stop><stop offset="1" stop-color="#D9AFDE"></stop></linearGradient><linearGradient id="paint85_linear_258_9877" x1="161.5" y1="157.5" x2="176.7" y2="172.7" gradientUnits="userSpaceOnUse"><stop stop-color="#F4D4FF"></stop><stop offset="1" stop-color="#9F46AB"></stop></linearGradient><linearGradient id="paint86_linear_258_9877" x1="-19.4155" y1="290.159" x2="-19.3468" y2="292.171" gradientUnits="userSpaceOnUse"><stop stop-color="#C372CE"></stop><stop offset="1" stop-color="#D9AFDE"></stop></linearGradient><linearGradient id="paint87_linear_258_9877" x1="-20.3294" y1="288.769" x2="-19.643" y2="292.958" gradientUnits="userSpaceOnUse"><stop stop-color="#C372CE"></stop><stop offset="1" stop-color="#D9AFDE"></stop></linearGradient><linearGradient id="paint88_linear_258_9877" x1="-17.1258" y1="294.792" x2="-15.7828" y2="291.581" gradientUnits="userSpaceOnUse"><stop stop-color="#C372CE"></stop><stop offset="1" stop-color="#D9AFDE"></stop></linearGradient><linearGradient id="paint89_linear_258_9877" x1="159.6" y1="156.6" x2="173.8" y2="170.8" gradientUnits="userSpaceOnUse"><stop stop-color="#C372CE"></stop><stop offset="1" stop-color="#9F46AB"></stop></linearGradient><linearGradient id="paint90_linear_258_9877" x1="164.743" y1="176.739" x2="164.212" y2="166.252" gradientUnits="userSpaceOnUse"><stop stop-color="#CAABCE"></stop><stop offset="1" stop-color="#8D7F9E"></stop></linearGradient><linearGradient id="paint91_linear_258_9877" x1="179.357" y1="180.604" x2="177.88" y2="151.441" gradientUnits="userSpaceOnUse"><stop stop-color="#CAABCE"></stop><stop offset="1" stop-color="#8D7F9E"></stop></linearGradient><linearGradient id="paint92_linear_258_9877" x1="193.159" y1="148.665" x2="194.121" y2="167.641" gradientUnits="userSpaceOnUse"><stop stop-color="#CAABCE"></stop><stop offset="1" stop-color="#8D7F9E"></stop></linearGradient><linearGradient id="paint93_linear_258_9877" x1="213.255" y1="150.05" x2="214.206" y2="168.826" gradientUnits="userSpaceOnUse"><stop stop-color="#CAABCE"></stop><stop offset="1" stop-color="#8D7F9E"></stop></linearGradient><linearGradient id="paint94_linear_258_9877" x1="255.919" y1="130.466" x2="243.588" y2="144.008" gradientUnits="userSpaceOnUse"><stop stop-color="#CAABCE"></stop><stop offset="1" stop-color="#8D7F9E"></stop></linearGradient><linearGradient id="paint95_linear_258_9877" x1="185.91" y1="82.2278" x2="186.162" y2="46.2287" gradientUnits="userSpaceOnUse"><stop stop-color="#C372CE"></stop><stop offset="1" stop-color="#9F46AB"></stop></linearGradient><linearGradient id="paint96_linear_258_9877" x1="180.941" y1="49.1924" x2="171.194" y2="84.5252" gradientUnits="userSpaceOnUse"><stop stop-color="#D591E1"></stop><stop offset="1" stop-color="#B45EC4"></stop></linearGradient><linearGradient id="paint97_linear_258_9877" x1="194.227" y1="51.2851" x2="191.65" y2="90.9681" gradientUnits="userSpaceOnUse"><stop stop-color="#C372CE"></stop><stop offset="1" stop-color="#9F46AB"></stop></linearGradient><linearGradient id="paint98_linear_258_9877" x1="181.971" y1="30.5991" x2="181.847" y2="48.2987" gradientUnits="userSpaceOnUse"><stop stop-color="white"></stop><stop offset="1" stop-color="white"></stop></linearGradient><clipPath id="clip0_258_9877"><rect width="170" height="170" fill="white" transform="translate(114)"></rect></clipPath></defs></svg> 